<?xml version="1.0" encoding="utf-8"?>
<!-- Generator: Adobe Illustrator 16.0.0, SVG Export Plug-In . SVG Version: 6.00 Build 0)  -->
<!DOCTYPE svg PUBLIC "-//W3C//DTD SVG 1.1//EN" "http://www.w3.org/Graphics/SVG/1.1/DTD/svg11.dtd">
<svg version="1.1" id="Layer_1" xmlns="http://www.w3.org/2000/svg" xmlns:xlink="http://www.w3.org/1999/xlink" x="0px" y="0px"
	 width="360px" height="360px" viewBox="0 0 360 360" enable-background="new 0 0 360 360" xml:space="preserve">
<g>
	
		<line fill="none" stroke="#BDC3C7" stroke-width="10" stroke-linecap="round" stroke-miterlimit="10" x1="43.5" y1="117.5" x2="78.669" y2="82.331"/>
	
		<line fill="none" stroke="#94A4A5" stroke-width="8" stroke-linecap="round" stroke-miterlimit="10" x1="-71.5" y1="290.5" x2="40.838" y2="178.162"/>
	
		<line fill="none" stroke="#ECF0F1" stroke-width="10" stroke-linecap="round" stroke-miterlimit="10" x1="-24.5" y1="271.5" x2="15.838" y2="231.162"/>
	
		<line fill="none" stroke="#ECF0F1" stroke-width="10" stroke-linecap="round" stroke-miterlimit="10" x1="-83.5" y1="244.5" x2="28.838" y2="132.162"/>
	
		<line fill="none" stroke="#ECF0F1" stroke-width="10" stroke-linecap="round" stroke-miterlimit="10" x1="-35.5" y1="170.5" x2="76.838" y2="58.162"/>
	
		<line fill="none" stroke="#BDC3C7" stroke-width="10" stroke-linecap="round" stroke-miterlimit="10" x1="-15.5" y1="204.5" x2="66.838" y2="122.162"/>
	
		<line fill="none" stroke="#ECF0F1" stroke-width="10" stroke-linecap="round" stroke-miterlimit="10" x1="-43.5" y1="318.5" x2="68.838" y2="206.162"/>
	
		<line fill="none" stroke="#4EB96F" stroke-width="8" stroke-linecap="round" stroke-miterlimit="10" x1="30.5" y1="273.5" x2="59.084" y2="244.916"/>
	
		<line fill="none" stroke="#BCC2C6" stroke-width="8" stroke-linecap="round" stroke-miterlimit="10" x1="-13.5" y1="316.5" x2="15.084" y2="287.916"/>
	
		<line fill="none" stroke="#ECF0F1" stroke-width="10" stroke-linecap="round" stroke-miterlimit="10" x1="-59.5" y1="246.5" x2="-30.916" y2="217.916"/>
	
		<line fill="none" stroke="#ECF0F1" stroke-width="10" stroke-linecap="round" stroke-miterlimit="10" x1="-3" y1="335" x2="54.084" y2="277.916"/>
	
		<line fill="none" stroke="#7F8C8D" stroke-width="10" stroke-linecap="round" stroke-miterlimit="10" x1="22" y1="339" x2="79.084" y2="281.916"/>
	
		<line fill="none" stroke="#ECF0F1" stroke-width="10" stroke-linecap="round" stroke-miterlimit="10" x1="26" y1="364" x2="83.084" y2="306.916"/>
	
		<line fill="none" stroke="#BDC3C7" stroke-width="10" stroke-linecap="round" stroke-miterlimit="10" x1="62" y1="354" x2="119.084" y2="296.916"/>
	
		<line fill="none" stroke="#7F8C8D" stroke-width="10" stroke-linecap="round" stroke-miterlimit="10" x1="87" y1="358" x2="144.084" y2="300.916"/>
	
		<line fill="none" stroke="#BDC3C7" stroke-width="10" stroke-linecap="round" stroke-miterlimit="10" x1="91" y1="383" x2="148.084" y2="325.916"/>
	
		<line fill="none" stroke="#BDC3C7" stroke-width="10" stroke-linecap="round" stroke-miterlimit="10" x1="58" y1="387.001" x2="74.838" y2="370.162"/>
	
		<line fill="none" stroke="#4EB96F" stroke-width="8" stroke-linecap="round" stroke-miterlimit="10" x1="148.084" y1="353.916" x2="169.084" y2="332.916"/>
	
		<line fill="none" stroke="#ECF0F1" stroke-width="10" stroke-linecap="round" stroke-miterlimit="10" x1="133.5" y1="395.5" x2="294.669" y2="234.331"/>
	
		<line fill="none" stroke="#ECF0F1" stroke-width="10" stroke-linecap="round" stroke-miterlimit="10" x1="155.5" y1="399.5" x2="277.084" y2="277.916"/>
	
		<line fill="none" stroke="#BDC3C7" stroke-width="10" stroke-linecap="round" stroke-miterlimit="10" x1="62" y1="127" x2="169.084" y2="19.917"/>
	
		<line fill="none" stroke="#ECF0F1" stroke-width="10" stroke-linecap="round" stroke-miterlimit="10" x1="192.5" y1="389.5" x2="243.292" y2="338.708"/>
	
		<line fill="none" stroke="#ECF0F1" stroke-width="10" stroke-linecap="round" stroke-miterlimit="10" x1="108.5" y1="393.5" x2="123" y2="379"/>
	
		<line fill="none" stroke="#BDC3C7" stroke-width="10" stroke-linecap="round" stroke-miterlimit="10" x1="257.584" y1="244.916" x2="307.75" y2="194.75"/>
	
		<line fill="none" stroke="#ECF0F1" stroke-width="10" stroke-linecap="round" stroke-miterlimit="10" x1="114.542" y1="102.458" x2="170.615" y2="46.385"/>
	
		<line fill="none" stroke="#4EB96F" stroke-width="8" stroke-linecap="round" stroke-miterlimit="10" x1="133.787" y1="368.212" x2="136.227" y2="365.773"/>
	
		<line fill="none" stroke="#BDC3C7" stroke-width="10" stroke-linecap="round" stroke-miterlimit="10" x1="112.5" y1="239.5" x2="127" y2="225"/>
	
		<line fill="none" stroke="#4EB96F" stroke-width="8" stroke-linecap="round" stroke-miterlimit="10" x1="288.5" y1="265.5" x2="349.5" y2="204.5"/>
	
		<line fill="none" stroke="#ECF0F1" stroke-width="10" stroke-linecap="round" stroke-miterlimit="10" x1="93" y1="69.5" x2="148.084" y2="14.416"/>
	
		<line fill="none" stroke="#ECF0F1" stroke-width="10" stroke-linecap="round" stroke-miterlimit="10" x1="144" y1="102.5" x2="213.5" y2="33"/>
	
		<line fill="none" stroke="#ECF0F1" stroke-width="10" stroke-linecap="round" stroke-miterlimit="10" x1="253" y1="221.5" x2="322.5" y2="152"/>
	
		<line fill="none" stroke="#ECF0F1" stroke-width="10" stroke-linecap="round" stroke-miterlimit="10" x1="287.75" y1="159.25" x2="347" y2="100"/>
	
		<line fill="none" stroke="#4EB96F" stroke-width="8" stroke-linecap="round" stroke-miterlimit="10" x1="265.338" y1="181.66" x2="276.11" y2="170.891"/>
	
		<line fill="none" stroke="#22AD5F" stroke-width="8" stroke-linecap="round" stroke-miterlimit="10" x1="158" y1="117.5" x2="227.5" y2="48"/>
	
		<line fill="none" stroke="#ECF0F1" stroke-width="10" stroke-linecap="round" stroke-miterlimit="10" x1="218" y1="87.5" x2="287.5" y2="18"/>
	
		<line fill="none" stroke="#BDC3C7" stroke-width="10" stroke-linecap="round" stroke-miterlimit="10" x1="194.584" y1="142.916" x2="244.75" y2="92.75"/>
	
		<line fill="none" stroke="#BDC3C7" stroke-width="10" stroke-linecap="round" stroke-miterlimit="10" x1="258" y1="324.5" x2="327.5" y2="255"/>
	
		<line fill="none" stroke="#BDC3C7" stroke-width="10" stroke-linecap="round" stroke-miterlimit="10" x1="238.584" y1="371.916" x2="288.75" y2="321.75"/>
	
		<line fill="none" stroke="#ECF0F1" stroke-width="10" stroke-linecap="round" stroke-miterlimit="10" x1="307" y1="221.5" x2="352.5" y2="176"/>
	
		<line fill="none" stroke="#ECF0F1" stroke-width="10" stroke-linecap="round" stroke-miterlimit="10" x1="236" y1="131.5" x2="305.5" y2="62"/>
	
		<line fill="none" stroke="#4EB96F" stroke-width="8" stroke-linecap="round" stroke-miterlimit="10" x1="302" y1="306.5" x2="341" y2="267.5"/>
	
		<line fill="none" stroke="#ECF0F1" stroke-width="10" stroke-linecap="round" stroke-miterlimit="10" x1="236" y1="158.5" x2="305.5" y2="89"/>
	
		<line fill="none" stroke="#BDC3C7" stroke-width="10" stroke-linecap="round" stroke-miterlimit="10" x1="251.584" y1="168.916" x2="301.75" y2="118.75"/>
	
		<line fill="none" stroke="#ECF0F1" stroke-width="10" stroke-linecap="round" stroke-miterlimit="10" x1="258" y1="80.5" x2="327.5" y2="11"/>
	
		<line fill="none" stroke="#ECF0F1" stroke-width="10" stroke-linecap="round" stroke-miterlimit="10" x1="137" y1="169.5" x2="206.5" y2="100"/>
	
		<line fill="none" stroke="#ECF0F1" stroke-width="10" stroke-linecap="round" stroke-miterlimit="10" x1="0.75" y1="104.25" x2="60" y2="45"/>
	
		<line fill="none" stroke="#4EB96F" stroke-width="8" stroke-linecap="round" stroke-miterlimit="10" x1="91.338" y1="123.66" x2="102.11" y2="112.891"/>
	
		<line fill="none" stroke="#ECF0F1" stroke-width="10" stroke-linecap="round" stroke-miterlimit="10" x1="268.75" y1="373.25" x2="328" y2="314"/>
</g>
</svg>
