<?xml version="1.0" encoding="utf-8"?>
<!-- Generator: Adobe Illustrator 16.0.0, SVG Export Plug-In . SVG Version: 6.00 Build 0)  -->
<!DOCTYPE svg PUBLIC "-//W3C//DTD SVG 1.1//EN" "http://www.w3.org/Graphics/SVG/1.1/DTD/svg11.dtd">
<svg version="1.1" id="Layer_1" xmlns="http://www.w3.org/2000/svg" xmlns:xlink="http://www.w3.org/1999/xlink" x="0px" y="0px"
	 width="40px" height="307px" viewBox="0 0 40 307" enable-background="new 0 0 40 307" xml:space="preserve">
<g>
	<rect y="267" fill="#FFFFFF" width="40" height="20"/>
	<g>
		<polygon fill="#FFFFFF" points="32,295 20,307 20,287 40,287 		"/>
		<polygon fill="#FFFFFF" points="8,295 20,307 20,287 0,287 		"/>
	</g>
</g>
<g>
	
		<line opacity="0.75" fill="none" stroke="#DDDDDD" stroke-width="20" stroke-miterlimit="10" enable-background="new    " x1="10" y1="0" x2="10" y2="267"/>
	
		<line opacity="0.75" fill="none" stroke="#CCCCCC" stroke-width="20" stroke-miterlimit="10" enable-background="new    " x1="30" y1="0" x2="30" y2="267"/>
	<g>
		<polygon fill="#FFFFFF" points="32,7 20,17.5 20,0 40,0 		"/>
		<polygon fill="#FFFFFF" points="8,7 20,17.5 20,0 0,0 		"/>
	</g>
</g>
<g>
	<polygon opacity="0.85" fill="#CCCCCC" enable-background="new    " points="32,275 20,287 20,267 40,267 	"/>
	<polygon opacity="0.85" fill="#DDDDDD" enable-background="new    " points="8,275 20,287 20,267 0,267 	"/>
</g>
</svg>
