<?xml version="1.0" encoding="utf-8"?>
<!-- Generator: Adobe Illustrator 16.0.0, SVG Export Plug-In . SVG Version: 6.00 Build 0)  -->
<!DOCTYPE svg PUBLIC "-//W3C//DTD SVG 1.1//EN" "http://www.w3.org/Graphics/SVG/1.1/DTD/svg11.dtd">
<svg version="1.1" id="Layer_1" xmlns="http://www.w3.org/2000/svg" xmlns:xlink="http://www.w3.org/1999/xlink" x="0px" y="0px"
	 width="80px" height="40px" viewBox="0 0 80 40" enable-background="new 0 0 80 40" xml:space="preserve">
<rect fill="#FAFAFA" width="80" height="40"/>
<g>
	<g>
		<g>
			<path fill="#FFFFFF" d="M40,39.75C18.22,39.75,0.5,30.89,0.5,20S18.22,0.25,40,0.25c21.779,0,39.5,8.86,39.5,19.75
				S61.779,39.75,40,39.75z"/>
			<path fill="#EEEEEE" d="M40,0.5c21.505,0,39,8.748,39,19.5S61.505,39.5,40,39.5S1,30.752,1,20S18.495,0.5,40,0.5 M40,0
				C17.908,0,0,8.954,0,20s17.908,20,40,20s40-8.954,40-20S62.092,0,40,0L40,0z"/>
		</g>
	</g>
</g>
</svg>
