<?xml version="1.0" encoding="utf-8"?>
<!-- Generator: Adobe Illustrator 16.0.0, SVG Export Plug-In . SVG Version: 6.00 Build 0)  -->
<!DOCTYPE svg PUBLIC "-//W3C//DTD SVG 1.1//EN" "http://www.w3.org/Graphics/SVG/1.1/DTD/svg11.dtd">
<svg version="1.1" id="Layer_1" xmlns="http://www.w3.org/2000/svg" xmlns:xlink="http://www.w3.org/1999/xlink" x="0px" y="0px"
	 width="80px" height="80px" viewBox="0 0 80 80" enable-background="new 0 0 80 80" xml:space="preserve">
<rect fill="#FAFAFA" width="80" height="80"/>
<g>
	<g>
		<g>
			<path fill="#FFFFFF" d="M40,79.5C18.22,79.5,0.5,61.78,0.5,40S18.22,0.5,40,0.5S79.5,18.22,79.5,40S61.78,79.5,40,79.5z"/>
			<path fill="#EEEEEE" d="M40,1c21.505,0,39,17.495,39,39S61.505,79,40,79S1,61.505,1,40S18.495,1,40,1 M40,0
				C17.908,0,0,17.908,0,40s17.908,40,40,40s40-17.908,40-40S62.092,0,40,0L40,0z"/>
		</g>
	</g>
</g>
</svg>
