<?xml version="1.0" encoding="utf-8"?>
<!-- Generator: Adobe Illustrator 16.0.0, SVG Export Plug-In . SVG Version: 6.00 Build 0)  -->
<!DOCTYPE svg PUBLIC "-//W3C//DTD SVG 1.1//EN" "http://www.w3.org/Graphics/SVG/1.1/DTD/svg11.dtd">
<svg version="1.1" id="Layer_1" xmlns="http://www.w3.org/2000/svg" xmlns:xlink="http://www.w3.org/1999/xlink" x="0px" y="0px"
	 width="600px" height="600px" viewBox="0 0 600 600" enable-background="new 0 0 600 600" xml:space="preserve">
<g>
	<path fill="#2C3E50" d="M441.388,191.303h-23.483c-0.955,0-1.739,0.777-1.739,1.729v36.569c0,0.962,0.776,1.74,1.739,1.74h23.483
		c0.952,0,1.732-0.777,1.732-1.74v-36.569C443.12,192.08,442.343,191.303,441.388,191.303z"/>
	<path fill="#2C3E50" d="M393.549,175.515v-0.003l-19.344,20.136v33.958c0,0.963,0.773,1.74,1.732,1.74h23.487
		c0.948,0,1.732-0.777,1.732-1.74v-52.096l-5.421-1.994H393.549z"/>
	<path fill="#2C3E50" d="M279.847,221.58c0-59.23-48.188-107.417-107.418-107.417c-59.229,0-107.417,48.188-107.417,107.417
		s48.188,107.417,107.417,107.417C231.659,328.997,279.847,280.81,279.847,221.58z M118.479,297.743l-0.004-49.204
		c0.28,0.016,0.561,0.042,0.845,0.042c0.058,0,0.11-0.011,0.164-0.011v49.222c0,0.243,0.049,0.474,0.071,0.713
		C119.192,298.255,118.84,297.997,118.479,297.743z M119.354,221.883h-0.071l-3.719-5.091l3.719-24.883h0.071l3.719,24.883
		L119.354,221.883z M129.237,304.342c2.582-1.054,4.409-3.589,4.409-6.554l0.003-56.402c0.433,0.466,0.948,0.879,1.543,1.202
		c0.91,0.501,1.888,0.728,2.854,0.728c1.979,0,3.89-0.989,5.02-2.737c0.269,0.52,0.508,1.023,0.792,1.547
		c1.285,2.362,3.719,3.707,6.235,3.707c1.142,0,2.301-0.281,3.382-0.868c0.375-0.204,0.72-0.439,1.038-0.701l0.004,66
		c0,1.088,0.228,2.119,0.603,3.066C145.95,311.609,137.255,308.543,129.237,304.342z M137.072,222.744
		c-0.314,2.092-0.947,4.359-1.955,6.838v-18.396c0.72,1.259,1.284,2.616,1.664,4.09
		C136.625,217.622,136.717,220.109,137.072,222.744z M153.585,207.777v21.85C149.711,220.116,150.48,213.179,153.585,207.777z
		 M172.429,314.969c-0.853,0-1.698-0.043-2.547-0.068c0.887-1.335,1.402-2.924,1.402-4.637l-0.004-58.271
		c0.33,0.011,0.663,0.042,0.997,0.042c0.064,0,0.129-0.004,0.197-0.004v58.229c0,1.725,0.52,3.332,1.417,4.662
		C173.403,314.938,172.918,314.969,172.429,314.969z M172.318,220.473h-0.083l-4.408-6.027l4.408-29.438h0.083l4.405,29.438
		L172.318,220.473z M188.566,313.539c0.428-1.006,0.663-2.111,0.663-3.271l0.004-66.725c0.512,0.553,1.122,1.039,1.823,1.425
		c1.076,0.583,2.236,0.868,3.382,0.868c2.517,0,4.95-1.342,6.239-3.708c0.28-0.52,0.516-1.016,0.78-1.52
		c1.134,1.729,3.033,2.71,5.004,2.71c0.963,0,1.948-0.231,2.858-0.728c0.311-0.171,0.603-0.372,0.876-0.592l0.007,55.792
		c0,3.196,2.127,5.868,5.038,6.743C206.985,308.815,198.021,311.896,188.566,313.539z M190.97,229.578v-21.759
		C194.055,213.202,194.813,220.112,190.97,229.578z M207.747,215.196c0.383-1.452,0.948-2.794,1.66-4.033v18.461
		c-1.001-2.46-1.63-4.712-1.956-6.786C207.822,220.135,207.906,217.588,207.747,215.196z M224.21,299.259
		c0.099-0.474,0.156-0.963,0.156-1.467l-0.005-49.253c0.281,0.016,0.562,0.042,0.846,0.042c0.054,0,0.106-0.012,0.163-0.012
		l-0.004,49.223c0,0.216,0.046,0.414,0.064,0.622C225.025,298.694,224.624,298.979,224.21,299.259z M225.241,221.883h-0.071
		l-3.727-5.091l3.727-24.883h0.071l3.719,24.883L225.241,221.883z M241.079,242.592c0.913,0.5,1.892,0.728,2.857,0.728
		c2.123,0,4.182-1.13,5.266-3.131c16.91-31.073-6.152-45.224-13.729-49.863c-0.262-0.159-0.534-0.277-0.8-0.391
		c-1.722-1.152-3.65-1.994-5.618-2.476l-3.844,3.871l-3.733-3.916c-0.012,0.007-0.026,0.007-0.042,0.011
		c-2.01,0.481-3.977,1.342-5.729,2.517c-0.269,0.114-0.538,0.231-0.788,0.386c-2.839,1.74-7.843,4.807-12.111,9.595
		c-5.485-8.863-14.06-14.136-18.381-16.793c-0.308-0.186-0.63-0.318-0.947-0.459c-2.036-1.353-4.318-2.354-6.649-2.922l-4.549,4.579
		l-4.413-4.632c-0.015,0.008-0.03,0.008-0.045,0.011c-2.377,0.565-4.712,1.588-6.778,2.976c-0.314,0.136-0.633,0.266-0.932,0.447
		c-4.329,2.657-12.915,7.938-18.4,16.816c-4.269-4.799-9.283-7.877-12.127-9.618c-0.262-0.159-0.53-0.276-0.8-0.391
		c-1.717-1.152-3.646-1.993-5.617-2.475l-3.849,3.871l-3.729-3.919c-0.011,0.007-0.022,0.007-0.042,0.011
		c-2.005,0.481-3.977,1.342-5.728,2.517c-0.262,0.114-0.538,0.231-0.788,0.386c-7.578,4.644-30.641,18.791-13.73,49.863
		c1.084,2.002,3.139,3.131,5.266,3.131c0.967,0,1.952-0.231,2.862-0.728c0.314-0.17,0.606-0.372,0.875-0.591l0.004,43.374
		C88.65,268.668,79.033,246.23,79.033,221.58c0-51.501,41.895-93.396,93.396-93.396c51.497,0,93.393,41.895,93.393,93.396
		c0,25.182-10.034,48.043-26.289,64.855l0.004-45.045C239.973,241.856,240.483,242.27,241.079,242.592z M241.007,229.582v-18.396
		C243.611,215.738,244.252,221.58,241.007,229.582z M103.518,211.159v18.461C100.246,221.58,100.891,215.719,103.518,211.159z"/>
	<path fill="#2C3E50" d="M430.364,75c-57.687,0-104.616,46.929-104.616,104.616c0,57.691,46.93,104.62,104.616,104.62
		c57.691,0,104.624-46.929,104.624-104.62C534.984,121.925,488.056,75,430.364,75z M430.364,271.894
		c-50.879,0-92.277-41.402-92.277-92.281c0-50.879,41.398-92.277,92.277-92.277c50.888,0,92.274,41.398,92.274,92.277
		C522.639,230.492,481.243,271.894,430.364,271.894z"/>
	<path fill="#2C3E50" d="M479.575,155.511c-1.479,0-2.907-0.53-4.04-1.475l-4.272-3.563l-15.429,16.834v62.297
		c0,0.963,0.771,1.74,1.732,1.74h23.483c0.956,0,1.732-0.777,1.732-1.74v-74.996c-0.087,0.061-0.182,0.121-0.28,0.178
		C481.592,155.253,480.592,155.511,479.575,155.511z"/>
	<path fill="#2C3E50" d="M431.763,183.202c1.323,0.489,2.803,0.129,3.75-0.902l35.621-38.862l8.332,6.968
		c0.413,0.337,0.981,0.398,1.448,0.155c0.474-0.243,0.751-0.747,0.705-1.278l-1.809-20.201c-0.072-0.72-0.709-1.25-1.43-1.186
		l-20.203,1.804c-0.524,0.049-0.972,0.41-1.135,0.914c-0.053,0.159-0.067,0.337-0.053,0.511c0.03,0.338,0.193,0.66,0.466,0.884
		l8.355,6.982l-33.84,36.914l-38.635-14.219c-1.293-0.47-2.745-0.136-3.692,0.853l-23.684,24.651
		c-1.328,1.376-1.282,3.563,0.094,4.894c0.675,0.648,1.539,0.971,2.408,0.971c0.905,0,1.814-0.364,2.501-1.073l22.104-22.998
		L431.763,183.202z"/>
	<polygon fill="#2C3E50" points="320.434,197.554 317.408,182.429 291.139,187.675 294.16,202.8 	"/>
	<polygon fill="#2C3E50" points="385.976,284.324 372.495,310.047 386.153,317.209 399.633,291.48 	"/>
	<circle fill="#2C3E50" cx="225.207" cy="171.129" r="15.436"/>
	
		<rect x="246.56" y="315.633" transform="matrix(-0.7995 0.6007 -0.6007 -0.7995 655.204 439.3446)" fill="#2C3E50" width="15.429" height="26.788"/>
	<circle fill="#2C3E50" cx="172.277" cy="160.431" r="18.26"/>
	<circle fill="#2C3E50" cx="119.317" cy="171.129" r="15.436"/>
	<path fill="#2C3E50" d="M341.601,315.761c-57.69,0-104.623,46.932-104.623,104.615C236.978,478.071,283.91,525,341.601,525
		c57.684,0,104.62-46.929,104.62-104.624C446.218,362.692,399.284,315.761,341.601,315.761z M341.601,512.662
		c-50.882,0-92.28-41.403-92.28-92.286c0-50.879,41.398-92.273,92.28-92.273c50.879,0,92.274,41.395,92.274,92.273
		C433.875,471.259,392.479,512.662,341.601,512.662z"/>
	<path fill="#2C3E50" d="M397.552,428.216l-6.664-2.448c0.527-4.864,0.349-9.818-0.562-14.742l6.434-2.97
		c4.021-1.837,5.776-6.626,3.931-10.647l-3.753-8.149c-1.85-4.018-6.626-5.781-10.641-3.924l-6.44,2.961
		c-3.146-3.901-6.796-7.241-10.829-10.011l2.456-6.657c1.531-4.154-0.596-8.772-4.746-10.303l-8.423-3.116
		c-4.022-1.486-8.82,0.728-10.307,4.742l-2.453,6.671c-4.856-0.526-9.811-0.356-14.738,0.554l-2.964-6.429
		c-1.85-4.026-6.626-5.785-10.645-3.936l-8.162,3.757c-4.018,1.846-5.772,6.626-3.923,10.652l2.96,6.429
		c-3.893,3.146-7.248,6.8-10.007,10.834l-6.653-2.456c-4.014-1.49-8.824,0.716-10.307,4.742l-3.112,8.431
		c-0.738,2.012-0.655,4.188,0.239,6.138c0.906,1.947,2.502,3.426,4.507,4.161l6.66,2.465c-0.522,4.852-0.356,9.817,0.562,14.741
		l-6.438,2.961c-4.021,1.851-5.78,6.618-3.931,10.637l3.757,8.162c1.85,4.014,6.626,5.776,10.641,3.922l6.44-2.96
		c3.146,3.9,6.801,7.248,10.838,10.008l-2.461,6.656c-0.746,2.01-0.663,4.185,0.239,6.138c0.891,1.944,2.49,3.423,4.503,4.173
		l8.432,3.109c2.004,0.738,4.185,0.655,6.137-0.236c1.952-0.89,3.422-2.502,4.166-4.502l2.456-6.669
		c4.856,0.531,9.811,0.353,14.743-0.553l2.959,6.429c1.851,4.018,6.63,5.776,10.648,3.928l8.15-3.757
		c4.022-1.846,5.781-6.618,3.931-10.652l-2.964-6.422c3.897-3.153,7.252-6.808,10-10.834l6.667,2.457
		c2.01,0.738,4.186,0.655,6.142-0.234c1.945-0.888,3.419-2.502,4.162-4.504l3.108-8.431
		C403.829,434.375,401.695,429.751,397.552,428.216z M353.421,449.179c-4.2,1.933-8.666,2.91-13.265,2.91
		c-12.351,0-23.661-7.24-28.828-18.448c-7.316-15.891-0.341-34.776,15.542-42.093c4.204-1.94,8.662-2.919,13.26-2.919
		c12.347,0,23.67,7.24,28.836,18.45C376.274,422.974,369.308,441.854,353.421,449.179z"/>
</g>
</svg>
