<?xml version="1.0" encoding="utf-8"?>
<!-- Generator: Adobe Illustrator 16.0.0, SVG Export Plug-In . SVG Version: 6.00 Build 0)  -->
<!DOCTYPE svg PUBLIC "-//W3C//DTD SVG 1.1//EN" "http://www.w3.org/Graphics/SVG/1.1/DTD/svg11.dtd">
<svg version="1.1" id="Layer_1" xmlns="http://www.w3.org/2000/svg" xmlns:xlink="http://www.w3.org/1999/xlink" x="0px" y="0px"
	 width="400px" height="373px" viewBox="0 0 400 373" enable-background="new 0 0 400 373" xml:space="preserve">
<g>
	<path fill="#FFFEEE" d="M0,375V181h9.5C9.771,285,95.125,371,200,371s190.229-86,190.499-190H399v194H0z"/>
	<path fill="#EEEEEE" d="M399,181v193H1V181h8.002C9.544,285.857,95.017,371,200,371c104.982,0,190.456-85.143,190.997-190H399
		 M400,180h-10c0,104.936-85.066,190-190,190C95.066,370,10,284.936,10,180H0v195h400V180L400,180z"/>
</g>
<g>
	<g>
		<g>
			<g>
				<defs>
					<circle id="SVGID_1_" cx="200" cy="180" r="180"/>
				</defs>
				<clipPath id="SVGID_2_">
					<use xlink:href="#SVGID_1_"  overflow="visible"/>
				</clipPath>
				<g clip-path="url(#SVGID_2_)">
					
						<line fill="none" stroke="#4EB96F" stroke-width="8" stroke-linecap="round" stroke-miterlimit="10" x1="26.5" y1="103.5" x2="138.838" y2="-8.838"/>
					
						<line fill="none" stroke="#BDC3C7" stroke-width="10" stroke-linecap="round" stroke-miterlimit="10" x1="97.5" y1="86.5" x2="132.669" y2="51.331"/>
					
						<line fill="none" stroke="#94A4A5" stroke-width="8" stroke-linecap="round" stroke-miterlimit="10" x1="-17.5" y1="259.5" x2="94.838" y2="147.162"/>
					
						<line fill="none" stroke="#22AD5F" stroke-width="8" stroke-linecap="round" stroke-miterlimit="10" x1="29.5" y1="240.5" x2="69.838" y2="200.162"/>
					
						<line fill="none" stroke="#4EB96F" stroke-width="8" stroke-linecap="round" stroke-miterlimit="10" x1="-29.5" y1="213.5" x2="82.838" y2="101.162"/>
					
						<line fill="none" stroke="#ECF0F1" stroke-width="10" stroke-linecap="round" stroke-miterlimit="10" x1="18.5" y1="139.5" x2="130.838" y2="27.162"/>
					
						<line fill="none" stroke="#22AD5F" stroke-width="8" stroke-linecap="round" stroke-miterlimit="10" x1="38.5" y1="173.5" x2="120.838" y2="91.162"/>
					
						<line fill="none" stroke="#ECF0F1" stroke-width="10" stroke-linecap="round" stroke-miterlimit="10" x1="10.5" y1="287.5" x2="122.838" y2="175.162"/>
					
						<line fill="none" stroke="#4EB96F" stroke-width="8" stroke-linecap="round" stroke-miterlimit="10" x1="84.5" y1="242.5" x2="113.084" y2="213.916"/>
					
						<line fill="none" stroke="#BCC2C6" stroke-width="8" stroke-linecap="round" stroke-miterlimit="10" x1="40.5" y1="285.5" x2="69.084" y2="256.916"/>
					
						<line fill="none" stroke="#ECF0F1" stroke-width="10" stroke-linecap="round" stroke-miterlimit="10" x1="-5.5" y1="215.5" x2="23.084" y2="186.916"/>
					
						<line fill="none" stroke="#22AD5F" stroke-width="8" stroke-linecap="round" stroke-miterlimit="10" x1="51" y1="304" x2="108.084" y2="246.916"/>
					
						<line fill="none" stroke="#7F8C8D" stroke-width="10" stroke-linecap="round" stroke-miterlimit="10" x1="76" y1="308" x2="133.084" y2="250.916"/>
					
						<line fill="none" stroke="#ECF0F1" stroke-width="10" stroke-linecap="round" stroke-miterlimit="10" x1="80" y1="333" x2="137.084" y2="275.916"/>
					
						<line fill="none" stroke="#22AD5F" stroke-width="8" stroke-linecap="round" stroke-miterlimit="10" x1="116" y1="323" x2="173.084" y2="265.916"/>
					
						<line fill="none" stroke="#7F8C8D" stroke-width="10" stroke-linecap="round" stroke-miterlimit="10" x1="141" y1="327" x2="198.084" y2="269.916"/>
					
						<line fill="none" stroke="#22AD5F" stroke-width="8" stroke-linecap="round" stroke-miterlimit="10" x1="145" y1="352" x2="202.084" y2="294.916"/>
					
						<line fill="none" stroke="#4EB96F" stroke-width="8" stroke-linecap="round" stroke-miterlimit="10" x1="112" y1="356.001" x2="128.838" y2="339.162"/>
					
						<line fill="none" stroke="#4EB96F" stroke-width="8" stroke-linecap="round" stroke-miterlimit="10" x1="202.084" y1="322.916" x2="223.084" y2="301.916"/>
					
						<line fill="none" stroke="#ECF0F1" stroke-width="10" stroke-linecap="round" stroke-miterlimit="10" x1="187.5" y1="364.5" x2="348.669" y2="203.331"/>
					
						<line fill="none" stroke="#ECF0F1" stroke-width="10" stroke-linecap="round" stroke-miterlimit="10" x1="209.5" y1="368.5" x2="331.084" y2="246.916"/>
					
						<line fill="none" stroke="#BDC3C7" stroke-width="10" stroke-linecap="round" stroke-miterlimit="10" x1="116" y1="96" x2="249.002" y2="-37"/>
					
						<line fill="none" stroke="#22AD5F" stroke-width="8" stroke-linecap="round" stroke-miterlimit="10" x1="246.5" y1="358.5" x2="297.292" y2="307.708"/>
					
						<line fill="none" stroke="#ECF0F1" stroke-width="10" stroke-linecap="round" stroke-miterlimit="10" x1="162.5" y1="362.5" x2="177" y2="348"/>
					
						<line fill="none" stroke="#BDC3C7" stroke-width="10" stroke-linecap="round" stroke-miterlimit="10" x1="311.584" y1="213.916" x2="361.75" y2="163.75"/>
					
						<line fill="none" stroke="#ECF0F1" stroke-width="10" stroke-linecap="round" stroke-miterlimit="10" x1="168.542" y1="71.458" x2="224.615" y2="15.385"/>
					
						<line fill="none" stroke="#4EB96F" stroke-width="8" stroke-linecap="round" stroke-miterlimit="10" x1="187.787" y1="337.212" x2="190.227" y2="334.773"/>
					
						<line fill="none" stroke="#BDC3C7" stroke-width="10" stroke-linecap="round" stroke-miterlimit="10" x1="166.5" y1="208.5" x2="181" y2="194"/>
					
						<line fill="none" stroke="#4EB96F" stroke-width="8" stroke-linecap="round" stroke-miterlimit="10" x1="342.5" y1="234.5" x2="412" y2="165"/>
					
						<line fill="none" stroke="#ECF0F1" stroke-width="10" stroke-linecap="round" stroke-miterlimit="10" x1="147" y1="38.5" x2="216.5" y2="-31"/>
					
						<line fill="none" stroke="#ECF0F1" stroke-width="10" stroke-linecap="round" stroke-miterlimit="10" x1="198" y1="71.5" x2="267.5" y2="2"/>
					
						<line fill="none" stroke="#ECF0F1" stroke-width="10" stroke-linecap="round" stroke-miterlimit="10" x1="307" y1="190.5" x2="376.5" y2="121"/>
					
						<line fill="none" stroke="#ECF0F1" stroke-width="10" stroke-linecap="round" stroke-miterlimit="10" x1="341.75" y1="128.25" x2="401" y2="69"/>
					
						<line fill="none" stroke="#4EB96F" stroke-width="8" stroke-linecap="round" stroke-miterlimit="10" x1="319.338" y1="150.66" x2="330.11" y2="139.891"/>
					
						<line fill="none" stroke="#22AD5F" stroke-width="8" stroke-linecap="round" stroke-miterlimit="10" x1="212" y1="86.5" x2="281.5" y2="17"/>
					
						<line fill="none" stroke="#ECF0F1" stroke-width="10" stroke-linecap="round" stroke-miterlimit="10" x1="272" y1="56.5" x2="341.5" y2="-13"/>
					
						<line fill="none" stroke="#BDC3C7" stroke-width="10" stroke-linecap="round" stroke-miterlimit="10" x1="248.584" y1="111.916" x2="298.75" y2="61.75"/>
					
						<line fill="none" stroke="#4EB96F" stroke-width="8" stroke-linecap="round" stroke-miterlimit="10" x1="312" y1="293.5" x2="381.5" y2="224"/>
					
						<line fill="none" stroke="#BDC3C7" stroke-width="10" stroke-linecap="round" stroke-miterlimit="10" x1="292.584" y1="340.916" x2="342.75" y2="290.75"/>
					
						<line fill="none" stroke="#ECF0F1" stroke-width="10" stroke-linecap="round" stroke-miterlimit="10" x1="361" y1="190.5" x2="406.5" y2="145"/>
					
						<line fill="none" stroke="#ECF0F1" stroke-width="10" stroke-linecap="round" stroke-miterlimit="10" x1="290" y1="100.5" x2="359.5" y2="31"/>
					
						<line fill="none" stroke="#4EB96F" stroke-width="8" stroke-linecap="round" stroke-miterlimit="10" x1="356" y1="275.5" x2="425.5" y2="206"/>
					
						<line fill="none" stroke="#ECF0F1" stroke-width="10" stroke-linecap="round" stroke-miterlimit="10" x1="290" y1="127.5" x2="359.5" y2="58"/>
					
						<line fill="none" stroke="#BDC3C7" stroke-width="10" stroke-linecap="round" stroke-miterlimit="10" x1="305.584" y1="137.916" x2="355.75" y2="87.75"/>
					
						<line fill="none" stroke="#ECF0F1" stroke-width="10" stroke-linecap="round" stroke-miterlimit="10" x1="312" y1="49.5" x2="381.5" y2="-20"/>
					
						<line fill="none" stroke="#ECF0F1" stroke-width="10" stroke-linecap="round" stroke-miterlimit="10" x1="191" y1="138.5" x2="260.5" y2="69"/>
				</g>
			</g>
		</g>
		<g>
			<g>
				<defs>
					<circle id="SVGID_3_" cx="200" cy="180" r="180"/>
				</defs>
				<clipPath id="SVGID_4_">
					<use xlink:href="#SVGID_3_"  overflow="visible"/>
				</clipPath>
				<g clip-path="url(#SVGID_4_)">
					<circle fill="#FFFFFF" cx="200" cy="180" r="125"/>
				</g>
			</g>
		</g>
		<g>
			<g>
				<defs>
					<circle id="SVGID_5_" cx="200" cy="180" r="180"/>
				</defs>
				<clipPath id="SVGID_6_">
					<use xlink:href="#SVGID_5_"  overflow="visible"/>
				</clipPath>
				<g clip-path="url(#SVGID_6_)">
					<path fill-rule="evenodd" clip-rule="evenodd" fill="#2C3E50" d="M158.925,201.244c0,0.398,0,0.752,0,1.105
						c0,13.406,0.003,26.811-0.003,40.217c-0.001,1.938,0.524,3.678,1.842,5.127c1.95,2.146,4.981,2.846,7.708,1.803
						c2.71-1.037,4.434-3.568,4.435-6.539c0.002-21.359,0.001-42.719,0.001-64.079c0-0.318,0-0.636,0-0.953
						c0.246,0.156,0.347,0.338,0.414,0.531c1.361,3.904,2.708,7.813,4.079,11.713c1.161,3.303,4.356,4.906,7.516,3.801
						c3.104-1.086,4.617-4.35,3.492-7.601c-4.868-14.056-9.743-28.108-14.624-42.159c-0.93-2.675-2.899-4.119-5.717-4.126
						c-7.815-0.021-15.631-0.022-23.446,0c-2.736,0.007-4.716,1.442-5.613,4.021c-4.915,14.127-9.837,28.252-14.68,42.403
						c-0.365,1.069-0.359,2.395-0.12,3.514c0.527,2.479,2.757,4.162,5.233,4.254c2.771,0.104,4.964-1.375,5.884-4.006
						c1.347-3.85,2.675-7.708,4.012-11.561c0.093-0.27,0.197-0.536,0.296-0.804c0.07,0.013,0.141,0.026,0.211,0.039
						c0,0.317,0,0.635,0,0.952c0,21.167,0,42.331,0.002,63.495c0,0.445,0.002,0.891,0.035,1.334c0.286,3.848,4.141,6.846,7.94,6.18
						c3.674-0.643,6.002-3.449,6.004-7.279c0.005-13.434,0.002-26.867,0.002-40.299c0-0.352,0-0.701,0-1.084
						C155.576,201.244,157.202,201.244,158.925,201.244z M199.425,177.462c0.056-0.016,0.112-0.031,0.168-0.046
						c0.083,0.226,0.169,0.449,0.247,0.675c1.198,3.432,2.396,6.863,3.592,10.295c1.054,3.023,3.926,4.49,6.824,3.486
						c2.795-0.967,4.118-3.959,3.079-6.952c-0.802-2.307-1.592-4.616-2.393-6.924c-3.601-10.381-7.201-20.763-10.809-31.143
						c-0.746-2.147-2.573-3.483-4.781-3.492c-5.478-0.022-10.956-0.029-16.435-0.038c-0.262,0-0.523,0.035-0.852,0.059
						c0.105,0.358,0.171,0.623,0.26,0.88c4.71,13.58,9.418,27.161,14.137,40.738c0.827,2.38,0.87,4.755-0.068,7.087
						c-1.355,3.365-3.829,5.48-7.384,6.348c0.576,0,1.153,0,1.821,0c0,0.404,0,0.758,0,1.111c0,12.125,0,24.25,0,36.375
						c0,2.111,0.799,3.859,2.493,5.119c2.054,1.525,4.315,1.74,6.6,0.613c2.327-1.148,3.492-3.125,3.493-5.717
						c0.012-19.162,0.007-38.322,0.007-57.483C199.425,178.125,199.425,177.793,199.425,177.462z M203.595,145.047
						c0.599,1.733,1.175,3.406,1.755,5.078c3.907,11.274,7.826,22.544,11.717,33.823c1.139,3.299,0.468,6.297-1.732,8.963
						c-1.119,1.355-2.597,2.201-4.444,2.826c0.822,0.041,1.421,0.07,2.09,0.104c0,0.443,0,0.799,0,1.156
						c0,11.18-0.005,22.359,0.005,33.539c0.002,2.285,1.039,4.021,3.043,5.088c2.03,1.082,4.082,0.967,6.002-0.311
						c1.851-1.232,2.564-3.063,2.561-5.227c-0.026-17.574-0.051-35.148-0.076-52.723c0-0.301,0-0.602,0-0.902
						c0.265,0.143,0.322,0.291,0.375,0.442c1.142,3.275,2.268,6.556,3.429,9.824c0.953,2.683,3.635,3.998,6.219,3.085
						c2.552-0.9,3.82-3.646,2.893-6.325c-4.034-11.642-8.076-23.281-12.12-34.919c-0.829-2.385-2.438-3.518-4.964-3.522
						c-2.864-0.004-5.729-0.001-8.594-0.001C209.056,145.047,206.359,145.047,203.595,145.047z M246.452,175.97
						c0.058-0.011,0.115-0.021,0.174-0.031c0.095,0.244,0.197,0.487,0.284,0.735c0.99,2.829,1.969,5.661,2.969,8.487
						c0.654,1.85,2.202,2.942,4.115,2.944c1.883,0,3.478-1.09,4.117-2.833c0.434-1.184,0.262-2.339-0.143-3.501
						c-3.586-10.299-7.159-20.602-10.74-30.903c-0.871-2.507-2.178-3.439-4.854-3.445c-4.282-0.01-8.565-0.004-12.848-0.002
						c-0.258,0-0.517,0.033-0.835,0.055c1.125,3.238,2.209,6.355,3.291,9.474c2.937,8.468,5.881,16.932,8.803,25.405
						c1.114,3.23,0.513,6.172-1.812,8.651c-0.853,0.908-2.008,1.531-3.04,2.295c0.02,0.242,0.073,0.615,0.073,0.986
						c0.005,10.15,0.001,20.301,0.006,30.451c0.002,2.816,2.23,5.084,5.048,5.164c3.029,0.086,5.393-2.246,5.419-5.422
						c0.025-3.113-0.024-6.227-0.025-9.342c-0.004-12.764-0.002-25.527-0.002-38.292
						C246.452,176.554,246.452,176.262,246.452,175.97z M256.76,191.254c0,0.439,0,0.797,0,1.152c0,8.564,0.003,17.129-0.002,25.693
						c-0.001,1.244,0.34,2.355,1.189,3.281c1.256,1.371,3.235,1.867,4.969,1.168c1.896-0.764,2.86-2.25,2.916-4.268
						c0.049-1.777-0.019-3.559-0.019-5.338c-0.003-11.9-0.002-23.801-0.002-35.702c0-0.284,0-0.568,0-0.854
						c0.27,0.169,0.358,0.357,0.427,0.554c0.824,2.356,1.61,4.729,2.491,7.063c0.254,0.676,0.675,1.361,1.2,1.846
						c1.254,1.155,3.166,1.194,4.554,0.234c1.476-1.02,1.977-2.795,1.323-4.676c-3.104-8.937-6.209-17.873-9.309-26.812
						c-0.748-2.157-1.92-3.004-4.232-3.005c-3.476-0.002-6.952,0-10.428,0c-0.27,0-0.539,0-0.947,0
						c0.555,1.606,1.066,3.092,1.581,4.576c2.891,8.335,5.781,16.671,8.676,25.005c0.596,1.717,0.623,3.438-0.014,5.141
						c-0.954,2.553-2.806,4.139-5.545,4.885C256.035,191.221,256.338,191.234,256.76,191.254z M142.736,123.576
						c-0.001,7.493,6.142,13.68,13.604,13.703c7.438,0.022,13.675-6.198,13.675-13.64c0-7.475-6.073-13.636-13.446-13.639
						C148.839,109.997,142.738,115.985,142.736,123.576z M183.823,140.208c7.41,0.008,13.21-6.436,12.222-13.762
						c-0.691-5.118-3.594-8.67-8.533-10.194c-5.002-1.543-9.364-0.175-12.931,3.68c-0.404,0.437-0.587,0.866-0.486,1.487
						c0.556,3.435-0.14,6.676-1.56,9.809c-0.159,0.351-0.178,0.875-0.039,1.233C174.311,137.128,178.834,140.202,183.823,140.208z
						 M211.045,143.379c0.287-0.018,0.848-0.01,1.395-0.095c6.366-0.993,10.515-6.703,9.537-13.107
						c-0.717-4.699-4.553-8.521-9.334-9.303c-4.793-0.784-9.712,1.681-11.842,5.94c-0.121,0.243-0.27,0.522-0.253,0.775
						c0.12,1.834-0.29,3.58-0.793,5.319c-0.097,0.333-0.12,0.718-0.063,1.06C200.618,139.443,205.233,143.352,211.045,143.379z
						 M233.267,124.853c-2.591,0.063-5.333,1.417-7.381,4.105c-0.237,0.312-0.383,0.823-0.328,1.207
						c0.365,2.571-0.013,5.026-0.935,7.434c-0.147,0.385-0.146,0.928,0.006,1.311c1.726,4.345,6.19,6.921,10.813,6.287
						c5.251-0.721,9.18-5.479,8.838-10.703C243.922,129.035,239.488,124.855,233.267,124.853z M263.9,140.9
						c-0.005-3.824-2.396-7.168-5.976-8.361c-3.615-1.205-7.528-0.015-9.817,3.038c-0.387,0.516-0.648,1.151-0.857,1.769
						c-0.318,0.941-0.551,1.913-0.8,2.876c-0.096,0.371-0.211,0.759-0.189,1.132c0.283,4.986,4.676,8.625,9.315,8.388
						C260.143,149.509,263.906,145.608,263.9,140.9z M177.292,197.09c0,14.9,0,29.873,0,44.902c0.259-0.053,0.448-0.074,0.628-0.131
						c2.559-0.816,4.273-3.135,4.275-5.846c0.008-12.264,0.004-24.527,0.001-36.793c0-0.24-0.03-0.482-0.033-0.525
						C180.469,198.139,178.902,197.621,177.292,197.09z M203.334,236.186c3.145-0.211,5.321-2.645,5.323-5.893
						c0.006-11.092,0.002-22.184,0-33.275c0-0.301-0.024-0.6-0.027-0.666c-1.87-0.57-3.598-1.098-5.296-1.615
						C203.334,208.447,203.334,222.285,203.334,236.186z M228.204,192.398c0,12.363,0,24.764,0,37.182
						c2.483-0.623,3.929-2.611,3.93-5.357c0.004-9.951,0.002-19.902,0-29.852c-0.001-0.268-0.028-0.535-0.036-0.684
						C230.746,193.24,229.496,192.826,228.204,192.398z M249.725,222.58c2.101-0.166,3.658-2.063,3.659-4.391
						c0.005-8.668,0.003-17.336,0.001-26.004c0-0.297-0.026-0.594-0.035-0.766c-1.284-0.432-2.449-0.822-3.625-1.219
						C249.725,200.973,249.725,211.748,249.725,222.58z"/>
					<path fill-rule="evenodd" clip-rule="evenodd" fill="#2C3E50" d="M158.925,201.244c-1.723,0-3.349,0-5.098,0
						c0,0.383,0,0.732,0,1.084c0,13.432,0.003,26.865-0.002,40.299c-0.002,3.83-2.33,6.637-6.004,7.279
						c-3.8,0.666-7.654-2.332-7.94-6.18c-0.033-0.443-0.035-0.889-0.035-1.334c-0.002-21.164-0.002-42.328-0.002-63.495
						c0-0.317,0-0.635,0-0.952c-0.07-0.013-0.141-0.026-0.211-0.039c-0.099,0.268-0.203,0.534-0.296,0.804
						c-1.337,3.854-2.665,7.711-4.012,11.561c-0.92,2.631-3.113,4.109-5.884,4.006c-2.477-0.092-4.706-1.775-5.233-4.254
						c-0.239-1.119-0.245-2.445,0.12-3.514c4.843-14.151,9.765-28.276,14.68-42.403c0.897-2.579,2.877-4.014,5.613-4.021
						c7.815-0.022,15.631-0.022,23.446,0c2.817,0.007,4.787,1.451,5.717,4.126c4.881,14.051,9.756,28.104,14.624,42.159
						c1.125,3.251-0.389,6.515-3.492,7.601c-3.159,1.105-6.354-0.498-7.516-3.801c-1.371-3.901-2.718-7.809-4.079-11.713
						c-0.067-0.193-0.168-0.375-0.414-0.531c0,0.317,0,0.635,0,0.953c0,21.36,0.001,42.719-0.001,64.079
						c-0.001,2.971-1.725,5.502-4.435,6.539c-2.727,1.043-5.758,0.344-7.708-1.803c-1.317-1.449-1.843-3.189-1.842-5.127
						c0.006-13.406,0.003-26.811,0.003-40.217C158.925,201.996,158.925,201.643,158.925,201.244z"/>
					<path fill-rule="evenodd" clip-rule="evenodd" fill="#2C3E50" d="M199.425,177.462c0,0.331,0,0.662,0,0.994
						c0,19.161,0.005,38.321-0.007,57.483c-0.001,2.592-1.166,4.568-3.493,5.717c-2.284,1.127-4.546,0.912-6.6-0.613
						c-1.694-1.26-2.493-3.008-2.493-5.119c0-12.125,0-24.25,0-36.375c0-0.354,0-0.707,0-1.111c-0.668,0-1.245,0-1.821,0
						c3.555-0.867,6.028-2.982,7.384-6.348c0.938-2.332,0.896-4.707,0.068-7.087c-4.719-13.577-9.427-27.158-14.137-40.738
						c-0.089-0.257-0.154-0.522-0.26-0.88c0.328-0.023,0.59-0.059,0.852-0.059c5.479,0.009,10.957,0.016,16.435,0.038
						c2.208,0.009,4.035,1.344,4.781,3.492c3.607,10.379,7.208,20.762,10.809,31.143c0.801,2.308,1.591,4.617,2.393,6.924
						c1.039,2.993-0.284,5.985-3.079,6.952c-2.898,1.004-5.771-0.463-6.824-3.486c-1.196-3.432-2.394-6.864-3.592-10.295
						c-0.078-0.226-0.164-0.449-0.247-0.675C199.537,177.431,199.48,177.447,199.425,177.462z"/>
					<path fill-rule="evenodd" clip-rule="evenodd" fill="#2C3E50" d="M203.595,145.047c2.765,0,5.461,0,8.156,0
						c2.864,0,5.729-0.003,8.594,0.001c2.526,0.004,4.135,1.138,4.964,3.522c4.044,11.638,8.086,23.277,12.12,34.919
						c0.928,2.679-0.341,5.424-2.893,6.325c-2.584,0.912-5.266-0.402-6.219-3.085c-1.161-3.269-2.287-6.549-3.429-9.824
						c-0.053-0.151-0.11-0.3-0.375-0.442c0,0.301,0,0.602,0,0.902c0.025,17.575,0.05,35.149,0.076,52.723
						c0.004,2.164-0.71,3.994-2.561,5.227c-1.92,1.277-3.972,1.393-6.002,0.311c-2.004-1.066-3.041-2.803-3.043-5.088
						c-0.01-11.18-0.005-22.359-0.005-33.539c0-0.357,0-0.713,0-1.156c-0.669-0.033-1.268-0.063-2.09-0.104
						c1.848-0.625,3.325-1.471,4.444-2.826c2.2-2.666,2.871-5.664,1.732-8.963c-3.891-11.279-7.81-22.549-11.717-33.823
						C204.77,148.454,204.193,146.78,203.595,145.047z"/>
					<path fill-rule="evenodd" clip-rule="evenodd" fill="#2C3E50" d="M246.452,175.97c0,0.292,0,0.584,0,0.876
						c0,12.765-0.002,25.529,0.002,38.292c0.001,3.115,0.051,6.229,0.025,9.342c-0.026,3.176-2.39,5.508-5.419,5.422
						c-2.817-0.08-5.046-2.348-5.048-5.164c-0.005-10.15-0.001-20.301-0.006-30.451c0-0.371-0.054-0.744-0.073-0.986
						c1.032-0.764,2.188-1.387,3.04-2.295c2.324-2.479,2.926-5.42,1.812-8.651c-2.922-8.473-5.866-16.937-8.803-25.405
						c-1.082-3.119-2.166-6.236-3.291-9.474c0.318-0.021,0.577-0.054,0.835-0.055c4.282-0.002,8.565-0.008,12.848,0.002
						c2.677,0.006,3.983,0.938,4.854,3.445c3.581,10.301,7.154,20.604,10.74,30.903c0.404,1.162,0.576,2.317,0.143,3.501
						c-0.64,1.743-2.234,2.833-4.117,2.833c-1.913-0.002-3.461-1.094-4.115-2.944c-1-2.826-1.979-5.658-2.969-8.487
						c-0.087-0.248-0.189-0.491-0.284-0.735C246.567,175.949,246.51,175.959,246.452,175.97z"/>
					<path fill-rule="evenodd" clip-rule="evenodd" fill="#2C3E50" d="M256.76,191.254c-0.422-0.02-0.725-0.033-1.171-0.055
						c2.739-0.746,4.591-2.332,5.545-4.885c0.637-1.703,0.609-3.424,0.014-5.141c-2.895-8.334-5.785-16.669-8.676-25.005
						c-0.515-1.484-1.026-2.97-1.581-4.576c0.408,0,0.678,0,0.947,0c3.476,0,6.952-0.002,10.428,0
						c2.313,0.001,3.484,0.848,4.232,3.005c3.1,8.938,6.205,17.875,9.309,26.812c0.653,1.881,0.152,3.656-1.323,4.676
						c-1.388,0.959-3.3,0.92-4.554-0.234c-0.525-0.484-0.946-1.17-1.2-1.846c-0.881-2.335-1.667-4.707-2.491-7.063
						c-0.068-0.196-0.157-0.385-0.427-0.554c0,0.285,0,0.569,0,0.854c0,11.901-0.001,23.801,0.002,35.702
						c0,1.779,0.067,3.561,0.019,5.338c-0.056,2.018-1.02,3.504-2.916,4.268c-1.733,0.699-3.713,0.203-4.969-1.168
						c-0.85-0.926-1.19-2.037-1.189-3.281c0.005-8.564,0.002-17.129,0.002-25.693C256.76,192.051,256.76,191.693,256.76,191.254z"/>
					<path fill-rule="evenodd" clip-rule="evenodd" fill="#2C3E50" d="M142.736,123.576c0.002-7.591,6.103-13.58,13.833-13.576
						c7.373,0.003,13.446,6.164,13.446,13.639c0,7.441-6.236,13.662-13.675,13.64C148.878,137.256,142.735,131.069,142.736,123.576z
						"/>
					<path fill-rule="evenodd" clip-rule="evenodd" fill="#2C3E50" d="M183.823,140.208c-4.989-0.005-9.513-3.08-11.327-7.747
						c-0.139-0.358-0.12-0.883,0.039-1.233c1.42-3.133,2.115-6.374,1.56-9.809c-0.101-0.621,0.082-1.05,0.486-1.487
						c3.566-3.855,7.929-5.224,12.931-3.68c4.939,1.524,7.842,5.076,8.533,10.194C197.033,133.771,191.233,140.215,183.823,140.208z
						"/>
					<path fill-rule="evenodd" clip-rule="evenodd" fill="#2C3E50" d="M211.045,143.379c-5.812-0.027-10.427-3.936-11.353-9.411
						c-0.058-0.342-0.034-0.727,0.063-1.06c0.503-1.739,0.913-3.485,0.793-5.319c-0.017-0.253,0.132-0.533,0.253-0.775
						c2.13-4.26,7.049-6.724,11.842-5.94c4.781,0.782,8.617,4.604,9.334,9.303c0.978,6.404-3.171,12.114-9.537,13.107
						C211.893,143.369,211.332,143.361,211.045,143.379z"/>
					<path fill-rule="evenodd" clip-rule="evenodd" fill="#2C3E50" d="M233.267,124.853c6.222,0.002,10.655,4.182,11.013,9.641
						c0.342,5.224-3.587,9.982-8.838,10.703c-4.622,0.635-9.087-1.942-10.813-6.287c-0.152-0.383-0.153-0.926-0.006-1.311
						c0.922-2.408,1.3-4.863,0.935-7.434c-0.055-0.384,0.091-0.895,0.328-1.207C227.934,126.271,230.676,124.916,233.267,124.853z"
						/>
					<path fill-rule="evenodd" clip-rule="evenodd" fill="#2C3E50" d="M263.9,140.9c0.006,4.708-3.758,8.608-8.324,8.841
						c-4.64,0.237-9.032-3.401-9.315-8.388c-0.021-0.373,0.094-0.761,0.189-1.132c0.249-0.964,0.481-1.935,0.8-2.876
						c0.209-0.617,0.471-1.252,0.857-1.769c2.289-3.053,6.202-4.243,9.817-3.038C261.505,133.732,263.896,137.077,263.9,140.9z"/>
					<path fill-rule="evenodd" clip-rule="evenodd" fill="#2C3E50" d="M177.292,197.09c1.61,0.531,3.177,1.049,4.871,1.607
						c0.003,0.043,0.033,0.285,0.033,0.525c0.003,12.266,0.007,24.529-0.001,36.793c-0.002,2.711-1.717,5.029-4.275,5.846
						c-0.18,0.057-0.369,0.078-0.628,0.131C177.292,226.963,177.292,211.99,177.292,197.09z"/>
					<path fill-rule="evenodd" clip-rule="evenodd" fill="#2C3E50" d="M203.334,236.186c0-13.9,0-27.738,0-41.449
						c1.698,0.518,3.426,1.045,5.296,1.615c0.003,0.066,0.027,0.365,0.027,0.666c0.002,11.092,0.006,22.184,0,33.275
						C208.655,233.541,206.479,235.975,203.334,236.186z"/>
					<path fill-rule="evenodd" clip-rule="evenodd" fill="#2C3E50" d="M228.204,192.398c1.292,0.428,2.542,0.842,3.894,1.289
						c0.008,0.148,0.035,0.416,0.036,0.684c0.002,9.949,0.004,19.9,0,29.852c-0.001,2.746-1.446,4.734-3.93,5.357
						C228.204,217.162,228.204,204.762,228.204,192.398z"/>
					<path fill-rule="evenodd" clip-rule="evenodd" fill="#2C3E50" d="M249.725,222.58c0-10.832,0-21.607,0-32.379
						c1.176,0.396,2.341,0.787,3.625,1.219c0.009,0.172,0.035,0.469,0.035,0.766c0.002,8.668,0.004,17.336-0.001,26.004
						C253.383,220.518,251.825,222.414,249.725,222.58z"/>
				</g>
			</g>
		</g>
	</g>
</g>
</svg>
