<?xml version="1.0" encoding="utf-8"?>
<!-- Generator: Adobe Illustrator 16.0.0, SVG Export Plug-In . SVG Version: 6.00 Build 0)  -->
<!DOCTYPE svg PUBLIC "-//W3C//DTD SVG 1.1//EN" "http://www.w3.org/Graphics/SVG/1.1/DTD/svg11.dtd">
<svg version="1.1" id="Layer_1" xmlns="http://www.w3.org/2000/svg" xmlns:xlink="http://www.w3.org/1999/xlink" x="0px" y="0px"
	 width="400px" height="373px" viewBox="0 0 400 373" enable-background="new 0 0 400 373" xml:space="preserve">
<g>
	<path fill="#FFFEEE" d="M0,375V181h9.5C9.771,285,95.125,371,200,371c104.875,0,190.229-86,190.499-190H399v194H0z"/>
	<path fill="#EEEEEE" d="M399,181v193H1V181h8.002C9.544,285.858,95.017,371,200,371s190.456-85.142,190.997-190H399 M400,180h-10
		c0,104.935-85.066,190-190,190C95.066,370,10,284.935,10,180H0v195h400V180L400,180z"/>
</g>
<g>
	<g>
		<g>
			<defs>
				<circle id="SVGID_1_" cx="200" cy="180" r="180"/>
			</defs>
			<clipPath id="SVGID_2_">
				<use xlink:href="#SVGID_1_"  overflow="visible"/>
			</clipPath>
			<g clip-path="url(#SVGID_2_)">
				
					<line fill="none" stroke="#4EB96F" stroke-width="8" stroke-linecap="round" stroke-miterlimit="10" x1="26.5" y1="103.5" x2="138.838" y2="-8.838"/>
				
					<line fill="none" stroke="#BDC3C7" stroke-width="10" stroke-linecap="round" stroke-miterlimit="10" x1="97.5" y1="86.5" x2="132.669" y2="51.331"/>
				
					<line fill="none" stroke="#94A4A5" stroke-width="8" stroke-linecap="round" stroke-miterlimit="10" x1="-17.5" y1="259.5" x2="94.838" y2="147.162"/>
				
					<line fill="none" stroke="#22AD5F" stroke-width="8" stroke-linecap="round" stroke-miterlimit="10" x1="29.5" y1="240.5" x2="69.838" y2="200.162"/>
				
					<line fill="none" stroke="#4EB96F" stroke-width="8" stroke-linecap="round" stroke-miterlimit="10" x1="-29.5" y1="213.5" x2="82.838" y2="101.162"/>
				
					<line fill="none" stroke="#ECF0F1" stroke-width="10" stroke-linecap="round" stroke-miterlimit="10" x1="18.5" y1="139.5" x2="130.838" y2="27.162"/>
				
					<line fill="none" stroke="#22AD5F" stroke-width="8" stroke-linecap="round" stroke-miterlimit="10" x1="38.5" y1="173.5" x2="120.838" y2="91.162"/>
				
					<line fill="none" stroke="#ECF0F1" stroke-width="10" stroke-linecap="round" stroke-miterlimit="10" x1="10.5" y1="287.5" x2="122.838" y2="175.162"/>
				
					<line fill="none" stroke="#4EB96F" stroke-width="8" stroke-linecap="round" stroke-miterlimit="10" x1="84.5" y1="242.5" x2="113.084" y2="213.916"/>
				
					<line fill="none" stroke="#BCC2C6" stroke-width="8" stroke-linecap="round" stroke-miterlimit="10" x1="40.5" y1="285.5" x2="69.084" y2="256.916"/>
				
					<line fill="none" stroke="#ECF0F1" stroke-width="10" stroke-linecap="round" stroke-miterlimit="10" x1="-5.5" y1="215.5" x2="23.084" y2="186.916"/>
				
					<line fill="none" stroke="#22AD5F" stroke-width="8" stroke-linecap="round" stroke-miterlimit="10" x1="51" y1="304" x2="108.084" y2="246.916"/>
				
					<line fill="none" stroke="#7F8C8D" stroke-width="10" stroke-linecap="round" stroke-miterlimit="10" x1="76" y1="308" x2="133.084" y2="250.916"/>
				
					<line fill="none" stroke="#ECF0F1" stroke-width="10" stroke-linecap="round" stroke-miterlimit="10" x1="80" y1="333" x2="137.084" y2="275.916"/>
				
					<line fill="none" stroke="#22AD5F" stroke-width="8" stroke-linecap="round" stroke-miterlimit="10" x1="116" y1="323" x2="173.084" y2="265.916"/>
				
					<line fill="none" stroke="#7F8C8D" stroke-width="10" stroke-linecap="round" stroke-miterlimit="10" x1="141" y1="327" x2="198.084" y2="269.916"/>
				
					<line fill="none" stroke="#22AD5F" stroke-width="8" stroke-linecap="round" stroke-miterlimit="10" x1="145" y1="352" x2="202.084" y2="294.916"/>
				
					<line fill="none" stroke="#4EB96F" stroke-width="8" stroke-linecap="round" stroke-miterlimit="10" x1="112" y1="356.001" x2="128.838" y2="339.162"/>
				
					<line fill="none" stroke="#4EB96F" stroke-width="8" stroke-linecap="round" stroke-miterlimit="10" x1="202.084" y1="322.916" x2="223.084" y2="301.916"/>
				
					<line fill="none" stroke="#ECF0F1" stroke-width="10" stroke-linecap="round" stroke-miterlimit="10" x1="187.5" y1="364.5" x2="348.669" y2="203.331"/>
				
					<line fill="none" stroke="#ECF0F1" stroke-width="10" stroke-linecap="round" stroke-miterlimit="10" x1="209.5" y1="368.5" x2="331.084" y2="246.916"/>
				
					<line fill="none" stroke="#BDC3C7" stroke-width="10" stroke-linecap="round" stroke-miterlimit="10" x1="116" y1="96" x2="249.002" y2="-37"/>
				
					<line fill="none" stroke="#22AD5F" stroke-width="8" stroke-linecap="round" stroke-miterlimit="10" x1="246.5" y1="358.5" x2="297.292" y2="307.708"/>
				
					<line fill="none" stroke="#ECF0F1" stroke-width="10" stroke-linecap="round" stroke-miterlimit="10" x1="162.5" y1="362.5" x2="177" y2="348"/>
				
					<line fill="none" stroke="#BDC3C7" stroke-width="10" stroke-linecap="round" stroke-miterlimit="10" x1="311.584" y1="213.916" x2="361.75" y2="163.75"/>
				
					<line fill="none" stroke="#ECF0F1" stroke-width="10" stroke-linecap="round" stroke-miterlimit="10" x1="168.542" y1="71.458" x2="224.615" y2="15.385"/>
				
					<line fill="none" stroke="#4EB96F" stroke-width="8" stroke-linecap="round" stroke-miterlimit="10" x1="187.787" y1="337.212" x2="190.227" y2="334.773"/>
				
					<line fill="none" stroke="#BDC3C7" stroke-width="10" stroke-linecap="round" stroke-miterlimit="10" x1="166.5" y1="208.5" x2="181" y2="194"/>
				
					<line fill="none" stroke="#4EB96F" stroke-width="8" stroke-linecap="round" stroke-miterlimit="10" x1="342.5" y1="234.5" x2="412" y2="165"/>
				
					<line fill="none" stroke="#ECF0F1" stroke-width="10" stroke-linecap="round" stroke-miterlimit="10" x1="147" y1="38.5" x2="216.5" y2="-31"/>
				
					<line fill="none" stroke="#ECF0F1" stroke-width="10" stroke-linecap="round" stroke-miterlimit="10" x1="198" y1="71.5" x2="267.5" y2="2"/>
				
					<line fill="none" stroke="#ECF0F1" stroke-width="10" stroke-linecap="round" stroke-miterlimit="10" x1="307" y1="190.5" x2="376.5" y2="121"/>
				
					<line fill="none" stroke="#ECF0F1" stroke-width="10" stroke-linecap="round" stroke-miterlimit="10" x1="341.75" y1="128.25" x2="401" y2="69"/>
				
					<line fill="none" stroke="#4EB96F" stroke-width="8" stroke-linecap="round" stroke-miterlimit="10" x1="319.338" y1="150.66" x2="330.11" y2="139.891"/>
				
					<line fill="none" stroke="#22AD5F" stroke-width="8" stroke-linecap="round" stroke-miterlimit="10" x1="212" y1="86.5" x2="281.5" y2="17"/>
				
					<line fill="none" stroke="#ECF0F1" stroke-width="10" stroke-linecap="round" stroke-miterlimit="10" x1="272" y1="56.5" x2="341.5" y2="-13"/>
				
					<line fill="none" stroke="#BDC3C7" stroke-width="10" stroke-linecap="round" stroke-miterlimit="10" x1="248.584" y1="111.916" x2="298.75" y2="61.75"/>
				
					<line fill="none" stroke="#4EB96F" stroke-width="8" stroke-linecap="round" stroke-miterlimit="10" x1="312" y1="293.5" x2="381.5" y2="224"/>
				
					<line fill="none" stroke="#BDC3C7" stroke-width="10" stroke-linecap="round" stroke-miterlimit="10" x1="292.584" y1="340.916" x2="342.75" y2="290.75"/>
				
					<line fill="none" stroke="#ECF0F1" stroke-width="10" stroke-linecap="round" stroke-miterlimit="10" x1="361" y1="190.5" x2="406.5" y2="145"/>
				
					<line fill="none" stroke="#ECF0F1" stroke-width="10" stroke-linecap="round" stroke-miterlimit="10" x1="290" y1="100.5" x2="359.5" y2="31"/>
				
					<line fill="none" stroke="#4EB96F" stroke-width="8" stroke-linecap="round" stroke-miterlimit="10" x1="356" y1="275.5" x2="425.5" y2="206"/>
				
					<line fill="none" stroke="#ECF0F1" stroke-width="10" stroke-linecap="round" stroke-miterlimit="10" x1="290" y1="127.5" x2="359.5" y2="58"/>
				
					<line fill="none" stroke="#BDC3C7" stroke-width="10" stroke-linecap="round" stroke-miterlimit="10" x1="305.584" y1="137.916" x2="355.75" y2="87.75"/>
				
					<line fill="none" stroke="#ECF0F1" stroke-width="10" stroke-linecap="round" stroke-miterlimit="10" x1="312" y1="49.5" x2="381.5" y2="-20"/>
				
					<line fill="none" stroke="#ECF0F1" stroke-width="10" stroke-linecap="round" stroke-miterlimit="10" x1="191" y1="138.5" x2="260.5" y2="69"/>
			</g>
		</g>
		<g>
			<defs>
				<circle id="SVGID_3_" cx="200" cy="180" r="180"/>
			</defs>
			<clipPath id="SVGID_4_">
				<use xlink:href="#SVGID_3_"  overflow="visible"/>
			</clipPath>
			<g clip-path="url(#SVGID_4_)">
				<circle fill="#FFFFFF" cx="200" cy="180" r="125"/>
			</g>
		</g>
		<g>
			<defs>
				<circle id="SVGID_5_" cx="200" cy="180" r="180"/>
			</defs>
			<clipPath id="SVGID_6_">
				<use xlink:href="#SVGID_5_"  overflow="visible"/>
			</clipPath>
			<g clip-path="url(#SVGID_6_)">
				<g>
					<g>
						<defs>
							<rect id="SVGID_7_" x="123.912" y="110" width="152.176" height="140"/>
						</defs>
						<defs>
							<rect id="SVGID_8_" x="123.912" y="110" width="152.176" height="140"/>
						</defs>
						<clipPath id="SVGID_9_">
							<use xlink:href="#SVGID_7_"  overflow="visible"/>
						</clipPath>
						<clipPath id="SVGID_10_" clip-path="url(#SVGID_9_)">
							<use xlink:href="#SVGID_8_"  overflow="visible"/>
						</clipPath>
						<path clip-path="url(#SVGID_10_)" fill="#2C3E50" d="M249.486,222.585c2.115-0.385,3.752-2.149,3.752-4.377V191.16
							c-1.373-0.109-2.674-0.521-3.762-1.286L249.486,222.585z"/>
						<path clip-path="url(#SVGID_10_)" fill="#2C3E50" d="M275.701,181.672l-9.588-27.625c-0.521-1.512-1.98-2.573-3.826-2.472
							c-0.227-0.03-11.383-0.021-11.609-0.021l10.293,29.653c1.355,3.941-0.74,8.256-4.68,9.626
							c-0.623,0.213-1.277,0.272-1.926,0.322h2.189v27.051c0,2.506,2.026,4.537,4.534,4.537c2.5,0,4.539-2.031,4.539-4.537
							l-0.017-42.517l2.939,8.463c0.662,1.926,2.783,3.027,4.809,2.332C275.33,185.801,276.379,183.648,275.701,181.672
							L275.701,181.672z"/>
					</g>
					<path fill="#2C3E50" d="M254.893,149.75c4.66,0,8.846-3.831,8.846-8.842c0-4.884-3.956-8.842-8.846-8.842
						c-3.371,0-6.264,1.907-7.756,4.684c-0.17,1.353-0.51,2.646-1.053,3.844c0,0.107-0.029,0.206-0.029,0.314
						C246.055,145.846,250.26,149.75,254.893,149.75L254.893,149.75z"/>
					<path fill="#2C3E50" d="M227.951,229.533c2.285-0.568,4.012-2.541,4.012-5.004v-31.104c-1.463-0.144-2.854-0.582-4.023-1.397
						L227.951,229.533z"/>
					<path fill="#2C3E50" d="M257.957,182.248l-11.094-31.972c-0.654-1.911-2.516-2.993-4.432-2.856
						c-0.119-0.02-4.334-0.027-8.55-0.027c-1.93,0-3.842,0.004-5.379,0.004l12.151,35.033c1.513,4.358-0.778,9.131-5.172,10.657
						c-0.274,0.095-0.563,0.076-0.844,0.142h1.158v31.304c0,2.897,2.35,5.252,5.252,5.252c2.893,0,5.248-2.354,5.248-5.252
						l-0.016-49.203l3.408,9.793c0.768,2.231,3.227,3.504,5.561,2.701C257.539,187.025,258.744,184.533,257.957,182.248
						L257.957,182.248z"/>
					<path fill="#2C3E50" d="M233.883,145.305c5.318,0,10.236-4.379,10.236-10.231c0-5.654-4.584-10.233-10.236-10.233
						c-3.617,0-6.779,1.886-8.602,4.715c0.141,0.819,0.256,1.649,0.256,2.512c0,2.188-0.504,4.247-1.357,6.12
						C225.582,142.562,229.678,145.305,233.883,145.305L233.883,145.305z"/>
					<path fill="#2C3E50" d="M203.129,194.281l0.021,41.609c0,0.08-0.021,0.151-0.025,0.231c3.018-0.205,5.432-2.661,5.432-5.74
						v-34.485c-0.074,0-0.139,0.035-0.215,0.035C206.432,195.932,204.627,195.33,203.129,194.281L203.129,194.281z"/>
					<path fill="#2C3E50" d="M237.324,183.584l-12.275-35.386c-0.719-2.081-2.715-3.296-4.91-3.159
						c-0.354-0.053-16.416-0.023-16.774-0.021c0.069,0.167,0.188,0.297,0.25,0.469l13.309,38.373c0.8,2.287,0.66,4.752-0.394,6.938
						c-1.059,2.192-2.909,3.838-5.213,4.639c-0.59,0.199-1.209,0.224-1.815,0.303h3.304v34.645c0,3.215,2.602,5.816,5.813,5.816
						c3.207,0,5.811-2.602,5.811-5.816l-0.016-54.459l3.762,10.844c0.861,2.488,3.588,3.873,6.166,2.986
						C236.861,188.875,238.201,186.114,237.324,183.584L237.324,183.584z"/>
					<path fill="#2C3E50" d="M210.682,143.39c6.217,0,11.328-5.054,11.328-11.323c0-6.262-5.072-11.329-11.328-11.329
						c-4.59,0-8.514,2.733-10.301,6.653c0.01,0.193,0.061,0.375,0.061,0.572c0,1.889-0.385,3.672-0.969,5.365
						C200.137,139.185,205.01,143.39,210.682,143.39L210.682,143.39z"/>
					<path fill="#2C3E50" d="M203.383,188.574c0.93,2.658,3.836,4.213,6.689,3.242c2.734-0.947,4.201-3.945,3.238-6.689
						l-13.31-38.388c-0.772-2.249-2.949-3.572-5.324-3.429c-0.322-0.053-16.455-0.027-16.783-0.027l14.504,41.818
						c1.822,5.248-0.967,11.002-6.225,12.826c-0.738,0.256-1.506,0.303-2.275,0.383h2.814v37.58c0,3.483,2.822,6.305,6.307,6.305
						c3.48,0,6.303-2.82,6.303-6.305l-0.025-59.074L203.383,188.574z"/>
					<path fill="#2C3E50" d="M177.105,241.934c2.84-0.61,5.01-3.018,5.01-6.043v-37.526c-1.828-0.142-3.568-0.689-5.02-1.706
						L177.105,241.934z"/>
					<g>
						<g>
							<defs>
								<rect id="SVGID_11_" x="123.912" y="110" width="152.176" height="140"/>
							</defs>
							<defs>
								<rect id="SVGID_12_" x="123.912" y="110" width="152.176" height="140"/>
							</defs>
							<clipPath id="SVGID_13_">
								<use xlink:href="#SVGID_11_"  overflow="visible"/>
							</clipPath>
							<clipPath id="SVGID_14_" clip-path="url(#SVGID_13_)">
								<use xlink:href="#SVGID_12_"  overflow="visible"/>
							</clipPath>
							<path clip-path="url(#SVGID_14_)" fill="#2C3E50" d="M183.77,140.242c6.439,0,12.281-5.273,12.281-12.281
								c0-6.793-5.492-12.287-12.281-12.287c-4.066,0-7.637,1.99-9.877,5.023c0.164,0.963,0.299,1.934,0.299,2.941
								c0,2.943-0.783,5.686-2.051,8.139C173.859,136.989,178.736,140.242,183.77,140.242L183.77,140.242z"/>
							<path clip-path="url(#SVGID_14_)" fill="#2C3E50" d="M188.389,186.494l-14.775-42.604c-0.877-2.517-3.309-3.982-5.91-3.805
								c-0.166-0.027-5.773-0.039-11.389-0.039c-5.613,0-11.227,0.012-11.389,0.039c-2.594-0.18-5.039,1.275-5.912,3.805
								l-14.781,42.604c-1.051,3.045,0.561,6.367,3.604,7.422c3.121,1.075,6.391-0.621,7.422-3.6l4.52-13.031l-0.01,65.545
								c0,3.865,3.133,6.998,6.994,6.998c3.865,0,6.998-3.133,6.998-6.998v-41.709h5.109v41.709c0,3.865,3.131,6.998,6.992,6.998
								c3.867,0,6.998-3.133,6.998-6.998l-0.014-65.561l4.523,13.047c1.027,2.957,4.285,4.68,7.424,3.6
								C187.832,192.861,189.445,189.539,188.389,186.494L188.389,186.494z"/>
						</g>
						<path fill="#2C3E50" d="M156.314,137.27c7.037,0,13.631-5.787,13.631-13.631c0-7.537-6.1-13.639-13.631-13.639
							c-7.533,0-13.639,6.1-13.639,13.639C142.676,131.412,149.201,137.27,156.314,137.27L156.314,137.27z"/>
					</g>
				</g>
			</g>
		</g>
	</g>
</g>
</svg>
