<?xml version="1.0" encoding="utf-8"?>
<!-- Generator: Adobe Illustrator 16.0.0, SVG Export Plug-In . SVG Version: 6.00 Build 0)  -->
<!DOCTYPE svg PUBLIC "-//W3C//DTD SVG 1.1//EN" "http://www.w3.org/Graphics/SVG/1.1/DTD/svg11.dtd">
<svg version="1.1" id="Layer_1" xmlns="http://www.w3.org/2000/svg" xmlns:xlink="http://www.w3.org/1999/xlink" x="0px" y="0px"
	 width="360px" height="360px" viewBox="0 0 360 360" enable-background="new 0 0 360 360" xml:space="preserve">
<g>
	<g>
		<defs>
			<path id="SVGID_1_" d="M180,360C80.589,360,0,279.41,0,180C0,80.589,80.589,0,180,0c99.41,0,180,80.589,180,180
				C360,279.41,279.41,360,180,360z"/>
		</defs>
		<clipPath id="SVGID_2_">
			<use xlink:href="#SVGID_1_"  overflow="visible"/>
		</clipPath>
		<g clip-path="url(#SVGID_2_)">
			
				<line fill="none" stroke="#4EB96F" stroke-width="8" stroke-linecap="round" stroke-miterlimit="10" x1="6.5" y1="103.5" x2="118.838" y2="-8.838"/>
			
				<line fill="none" stroke="#BDC3C7" stroke-width="10" stroke-linecap="round" stroke-miterlimit="10" x1="77.5" y1="86.5" x2="112.669" y2="51.331"/>
			
				<line fill="none" stroke="#94A4A5" stroke-width="8" stroke-linecap="round" stroke-miterlimit="10" x1="-37.5" y1="259.5" x2="74.838" y2="147.162"/>
			
				<line fill="none" stroke="#22AD5F" stroke-width="8" stroke-linecap="round" stroke-miterlimit="10" x1="9.5" y1="240.5" x2="49.838" y2="200.162"/>
			
				<line fill="none" stroke="#4EB96F" stroke-width="8" stroke-linecap="round" stroke-miterlimit="10" x1="-49.5" y1="213.5" x2="62.838" y2="101.162"/>
			
				<line fill="none" stroke="#ECF0F1" stroke-width="10" stroke-linecap="round" stroke-miterlimit="10" x1="-1.5" y1="139.5" x2="110.838" y2="27.162"/>
			
				<line fill="none" stroke="#22AD5F" stroke-width="8" stroke-linecap="round" stroke-miterlimit="10" x1="18.5" y1="173.5" x2="100.838" y2="91.162"/>
			
				<line fill="none" stroke="#ECF0F1" stroke-width="10" stroke-linecap="round" stroke-miterlimit="10" x1="-9.5" y1="287.5" x2="102.838" y2="175.162"/>
			
				<line fill="none" stroke="#4EB96F" stroke-width="8" stroke-linecap="round" stroke-miterlimit="10" x1="64.5" y1="242.5" x2="93.084" y2="213.916"/>
			
				<line fill="none" stroke="#BCC2C6" stroke-width="8" stroke-linecap="round" stroke-miterlimit="10" x1="20.5" y1="285.5" x2="49.084" y2="256.916"/>
			
				<line fill="none" stroke="#ECF0F1" stroke-width="10" stroke-linecap="round" stroke-miterlimit="10" x1="-25.5" y1="215.5" x2="3.084" y2="186.916"/>
			
				<line fill="none" stroke="#22AD5F" stroke-width="8" stroke-linecap="round" stroke-miterlimit="10" x1="31" y1="304" x2="88.084" y2="246.916"/>
			
				<line fill="none" stroke="#7F8C8D" stroke-width="10" stroke-linecap="round" stroke-miterlimit="10" x1="56" y1="308" x2="113.084" y2="250.916"/>
			
				<line fill="none" stroke="#ECF0F1" stroke-width="10" stroke-linecap="round" stroke-miterlimit="10" x1="60" y1="333" x2="117.084" y2="275.916"/>
			
				<line fill="none" stroke="#22AD5F" stroke-width="8" stroke-linecap="round" stroke-miterlimit="10" x1="96" y1="323" x2="153.084" y2="265.916"/>
			
				<line fill="none" stroke="#7F8C8D" stroke-width="10" stroke-linecap="round" stroke-miterlimit="10" x1="121" y1="327" x2="178.084" y2="269.916"/>
			
				<line fill="none" stroke="#22AD5F" stroke-width="8" stroke-linecap="round" stroke-miterlimit="10" x1="125" y1="352" x2="182.084" y2="294.916"/>
			
				<line fill="none" stroke="#4EB96F" stroke-width="8" stroke-linecap="round" stroke-miterlimit="10" x1="92" y1="356.001" x2="108.838" y2="339.162"/>
			
				<line fill="none" stroke="#4EB96F" stroke-width="8" stroke-linecap="round" stroke-miterlimit="10" x1="182.084" y1="322.916" x2="203.084" y2="301.916"/>
			
				<line fill="none" stroke="#ECF0F1" stroke-width="10" stroke-linecap="round" stroke-miterlimit="10" x1="167.5" y1="364.5" x2="328.669" y2="203.331"/>
			
				<line fill="none" stroke="#ECF0F1" stroke-width="10" stroke-linecap="round" stroke-miterlimit="10" x1="189.5" y1="368.5" x2="311.084" y2="246.916"/>
			
				<line fill="none" stroke="#BDC3C7" stroke-width="10" stroke-linecap="round" stroke-miterlimit="10" x1="96" y1="96" x2="229.002" y2="-37"/>
			
				<line fill="none" stroke="#22AD5F" stroke-width="8" stroke-linecap="round" stroke-miterlimit="10" x1="226.5" y1="358.5" x2="277.292" y2="307.708"/>
			
				<line fill="none" stroke="#ECF0F1" stroke-width="10" stroke-linecap="round" stroke-miterlimit="10" x1="142.5" y1="362.5" x2="157" y2="348"/>
			
				<line fill="none" stroke="#BDC3C7" stroke-width="10" stroke-linecap="round" stroke-miterlimit="10" x1="291.584" y1="213.916" x2="341.75" y2="163.75"/>
			
				<line fill="none" stroke="#ECF0F1" stroke-width="10" stroke-linecap="round" stroke-miterlimit="10" x1="148.542" y1="71.458" x2="204.615" y2="15.385"/>
			
				<line fill="none" stroke="#4EB96F" stroke-width="8" stroke-linecap="round" stroke-miterlimit="10" x1="167.787" y1="337.212" x2="170.227" y2="334.773"/>
			
				<line fill="none" stroke="#BDC3C7" stroke-width="10" stroke-linecap="round" stroke-miterlimit="10" x1="146.5" y1="208.5" x2="161" y2="194"/>
			
				<line fill="none" stroke="#4EB96F" stroke-width="8" stroke-linecap="round" stroke-miterlimit="10" x1="322.5" y1="234.5" x2="392" y2="165"/>
			
				<line fill="none" stroke="#ECF0F1" stroke-width="10" stroke-linecap="round" stroke-miterlimit="10" x1="127" y1="38.5" x2="196.5" y2="-31"/>
			
				<line fill="none" stroke="#ECF0F1" stroke-width="10" stroke-linecap="round" stroke-miterlimit="10" x1="178" y1="71.5" x2="247.5" y2="2"/>
			
				<line fill="none" stroke="#ECF0F1" stroke-width="10" stroke-linecap="round" stroke-miterlimit="10" x1="287" y1="190.5" x2="356.5" y2="121"/>
			
				<line fill="none" stroke="#ECF0F1" stroke-width="10" stroke-linecap="round" stroke-miterlimit="10" x1="321.75" y1="128.25" x2="381" y2="69"/>
			
				<line fill="none" stroke="#4EB96F" stroke-width="8" stroke-linecap="round" stroke-miterlimit="10" x1="299.338" y1="150.66" x2="310.11" y2="139.891"/>
			
				<line fill="none" stroke="#22AD5F" stroke-width="8" stroke-linecap="round" stroke-miterlimit="10" x1="192" y1="86.5" x2="261.5" y2="17"/>
			
				<line fill="none" stroke="#ECF0F1" stroke-width="10" stroke-linecap="round" stroke-miterlimit="10" x1="252" y1="56.5" x2="321.5" y2="-13"/>
			
				<line fill="none" stroke="#BDC3C7" stroke-width="10" stroke-linecap="round" stroke-miterlimit="10" x1="228.584" y1="111.916" x2="278.75" y2="61.75"/>
			
				<line fill="none" stroke="#4EB96F" stroke-width="8" stroke-linecap="round" stroke-miterlimit="10" x1="292" y1="293.5" x2="361.5" y2="224"/>
			
				<line fill="none" stroke="#BDC3C7" stroke-width="10" stroke-linecap="round" stroke-miterlimit="10" x1="272.584" y1="340.916" x2="322.75" y2="290.75"/>
			
				<line fill="none" stroke="#ECF0F1" stroke-width="10" stroke-linecap="round" stroke-miterlimit="10" x1="341" y1="190.5" x2="386.5" y2="145"/>
			
				<line fill="none" stroke="#ECF0F1" stroke-width="10" stroke-linecap="round" stroke-miterlimit="10" x1="270" y1="100.5" x2="339.5" y2="31"/>
			
				<line fill="none" stroke="#4EB96F" stroke-width="8" stroke-linecap="round" stroke-miterlimit="10" x1="336" y1="275.5" x2="405.5" y2="206"/>
			
				<line fill="none" stroke="#ECF0F1" stroke-width="10" stroke-linecap="round" stroke-miterlimit="10" x1="270" y1="127.5" x2="339.5" y2="58"/>
			
				<line fill="none" stroke="#BDC3C7" stroke-width="10" stroke-linecap="round" stroke-miterlimit="10" x1="285.584" y1="137.916" x2="335.75" y2="87.75"/>
			
				<line fill="none" stroke="#ECF0F1" stroke-width="10" stroke-linecap="round" stroke-miterlimit="10" x1="292" y1="49.5" x2="361.5" y2="-20"/>
			
				<line fill="none" stroke="#ECF0F1" stroke-width="10" stroke-linecap="round" stroke-miterlimit="10" x1="171" y1="138.5" x2="240.5" y2="69"/>
		</g>
		<g clip-path="url(#SVGID_2_)">
			<circle fill="#FFFFFF" cx="180" cy="180" r="125"/>
		</g>
		<g clip-path="url(#SVGID_2_)">
			<g>
				<path fill="#2C3E50" d="M230.313,179.699c0.013,13.763-1.697,25.482-5.127,35.165c-3.434,9.686-8.185,17.569-14.259,23.653
					c-6.077,6.088-13.311,10.534-21.707,13.34c-8.398,2.805-17.637,4.216-27.717,4.225c-5.279,0.005-10.44-0.271-15.48-0.826
					c-5.041-0.557-10.441-1.467-16.203-2.745l-0.132-144.96c6.719-1.446,13.036-2.412,18.957-2.897
					c5.918-0.485,11.438-0.73,16.561-0.735c9.757-0.009,18.68,1.424,26.764,4.296c8.079,2.873,14.924,7.39,20.531,13.542
					c5.604,6.156,9.974,13.993,13.102,23.508C228.73,154.782,230.301,166.26,230.313,179.699z M159.319,230.164
					c0.799,0.16,1.681,0.238,2.641,0.238c0.96-0.001,1.837-0.002,2.64-0.002c6.721-0.007,12.358-1.291,16.916-3.856
					c4.559-2.562,8.233-6.086,11.03-10.57c2.794-4.479,4.791-9.804,5.985-15.966c1.195-6.158,1.788-12.92,1.781-20.281
					c-0.005-6.397-0.49-12.637-1.456-18.719c-0.966-6.078-2.65-11.436-5.055-16.075c-2.404-4.637-5.689-8.354-9.85-11.151
					c-4.166-2.794-9.525-4.191-16.084-4.186c-1.282,0.002-2.723,0.044-4.32,0.124c-1.601,0.084-3.041,0.284-4.319,0.604
					L159.319,230.164z"/>
			</g>
		</g>
	</g>
</g>
</svg>
