<?xml version="1.0" encoding="utf-8"?>
<!-- Generator: Adobe Illustrator 16.0.0, SVG Export Plug-In . SVG Version: 6.00 Build 0)  -->
<!DOCTYPE svg PUBLIC "-//W3C//DTD SVG 1.1//EN" "http://www.w3.org/Graphics/SVG/1.1/DTD/svg11.dtd">
<svg version="1.1" id="Layer_1" xmlns="http://www.w3.org/2000/svg" xmlns:xlink="http://www.w3.org/1999/xlink" x="0px" y="0px"
	 width="360px" height="360px" viewBox="0 0 360 360" enable-background="new 0 0 360 360" xml:space="preserve">
<g>
	<g>
		<defs>
			<path id="SVGID_1_" d="M180,360C80.589,360,0,279.41,0,180C0,80.589,80.589,0,180,0c99.41,0,180,80.589,180,180
				C360,279.41,279.41,360,180,360z"/>
		</defs>
		<clipPath id="SVGID_2_">
			<use xlink:href="#SVGID_1_"  overflow="visible"/>
		</clipPath>
		<g clip-path="url(#SVGID_2_)">
			
				<line fill="none" stroke="#4EB96F" stroke-width="8" stroke-linecap="round" stroke-miterlimit="10" x1="6.5" y1="103.5" x2="118.838" y2="-8.838"/>
			
				<line fill="none" stroke="#BDC3C7" stroke-width="10" stroke-linecap="round" stroke-miterlimit="10" x1="77.5" y1="86.5" x2="112.669" y2="51.331"/>
			
				<line fill="none" stroke="#94A4A5" stroke-width="8" stroke-linecap="round" stroke-miterlimit="10" x1="-37.5" y1="259.5" x2="74.838" y2="147.162"/>
			
				<line fill="none" stroke="#22AD5F" stroke-width="8" stroke-linecap="round" stroke-miterlimit="10" x1="9.5" y1="240.5" x2="49.838" y2="200.162"/>
			
				<line fill="none" stroke="#4EB96F" stroke-width="8" stroke-linecap="round" stroke-miterlimit="10" x1="-49.5" y1="213.5" x2="62.838" y2="101.162"/>
			
				<line fill="none" stroke="#ECF0F1" stroke-width="10" stroke-linecap="round" stroke-miterlimit="10" x1="-1.5" y1="139.5" x2="110.838" y2="27.162"/>
			
				<line fill="none" stroke="#22AD5F" stroke-width="8" stroke-linecap="round" stroke-miterlimit="10" x1="18.5" y1="173.5" x2="100.838" y2="91.162"/>
			
				<line fill="none" stroke="#ECF0F1" stroke-width="10" stroke-linecap="round" stroke-miterlimit="10" x1="-9.5" y1="287.5" x2="102.838" y2="175.162"/>
			
				<line fill="none" stroke="#4EB96F" stroke-width="8" stroke-linecap="round" stroke-miterlimit="10" x1="64.5" y1="242.5" x2="93.084" y2="213.916"/>
			
				<line fill="none" stroke="#BCC2C6" stroke-width="8" stroke-linecap="round" stroke-miterlimit="10" x1="20.5" y1="285.5" x2="49.084" y2="256.916"/>
			
				<line fill="none" stroke="#ECF0F1" stroke-width="10" stroke-linecap="round" stroke-miterlimit="10" x1="-25.5" y1="215.5" x2="3.084" y2="186.916"/>
			
				<line fill="none" stroke="#22AD5F" stroke-width="8" stroke-linecap="round" stroke-miterlimit="10" x1="31" y1="304" x2="88.084" y2="246.916"/>
			
				<line fill="none" stroke="#7F8C8D" stroke-width="10" stroke-linecap="round" stroke-miterlimit="10" x1="56" y1="308" x2="113.084" y2="250.916"/>
			
				<line fill="none" stroke="#ECF0F1" stroke-width="10" stroke-linecap="round" stroke-miterlimit="10" x1="60" y1="333" x2="117.084" y2="275.916"/>
			
				<line fill="none" stroke="#22AD5F" stroke-width="8" stroke-linecap="round" stroke-miterlimit="10" x1="96" y1="323" x2="153.084" y2="265.916"/>
			
				<line fill="none" stroke="#7F8C8D" stroke-width="10" stroke-linecap="round" stroke-miterlimit="10" x1="121" y1="327" x2="178.084" y2="269.916"/>
			
				<line fill="none" stroke="#22AD5F" stroke-width="8" stroke-linecap="round" stroke-miterlimit="10" x1="125" y1="352" x2="182.084" y2="294.916"/>
			
				<line fill="none" stroke="#4EB96F" stroke-width="8" stroke-linecap="round" stroke-miterlimit="10" x1="92" y1="356.001" x2="108.838" y2="339.162"/>
			
				<line fill="none" stroke="#4EB96F" stroke-width="8" stroke-linecap="round" stroke-miterlimit="10" x1="182.084" y1="322.916" x2="203.084" y2="301.916"/>
			
				<line fill="none" stroke="#ECF0F1" stroke-width="10" stroke-linecap="round" stroke-miterlimit="10" x1="167.5" y1="364.5" x2="328.669" y2="203.331"/>
			
				<line fill="none" stroke="#ECF0F1" stroke-width="10" stroke-linecap="round" stroke-miterlimit="10" x1="189.5" y1="368.5" x2="311.084" y2="246.916"/>
			
				<line fill="none" stroke="#BDC3C7" stroke-width="10" stroke-linecap="round" stroke-miterlimit="10" x1="96" y1="96" x2="229.002" y2="-37"/>
			
				<line fill="none" stroke="#22AD5F" stroke-width="8" stroke-linecap="round" stroke-miterlimit="10" x1="226.5" y1="358.5" x2="277.292" y2="307.708"/>
			
				<line fill="none" stroke="#ECF0F1" stroke-width="10" stroke-linecap="round" stroke-miterlimit="10" x1="142.5" y1="362.5" x2="157" y2="348"/>
			
				<line fill="none" stroke="#BDC3C7" stroke-width="10" stroke-linecap="round" stroke-miterlimit="10" x1="291.584" y1="213.916" x2="341.75" y2="163.75"/>
			
				<line fill="none" stroke="#ECF0F1" stroke-width="10" stroke-linecap="round" stroke-miterlimit="10" x1="148.542" y1="71.458" x2="204.615" y2="15.385"/>
			
				<line fill="none" stroke="#4EB96F" stroke-width="8" stroke-linecap="round" stroke-miterlimit="10" x1="167.787" y1="337.212" x2="170.227" y2="334.773"/>
			
				<line fill="none" stroke="#BDC3C7" stroke-width="10" stroke-linecap="round" stroke-miterlimit="10" x1="146.5" y1="208.5" x2="161" y2="194"/>
			
				<line fill="none" stroke="#4EB96F" stroke-width="8" stroke-linecap="round" stroke-miterlimit="10" x1="322.5" y1="234.5" x2="392" y2="165"/>
			
				<line fill="none" stroke="#ECF0F1" stroke-width="10" stroke-linecap="round" stroke-miterlimit="10" x1="127" y1="38.5" x2="196.5" y2="-31"/>
			
				<line fill="none" stroke="#ECF0F1" stroke-width="10" stroke-linecap="round" stroke-miterlimit="10" x1="178" y1="71.5" x2="247.5" y2="2"/>
			
				<line fill="none" stroke="#ECF0F1" stroke-width="10" stroke-linecap="round" stroke-miterlimit="10" x1="287" y1="190.5" x2="356.5" y2="121"/>
			
				<line fill="none" stroke="#ECF0F1" stroke-width="10" stroke-linecap="round" stroke-miterlimit="10" x1="321.75" y1="128.25" x2="381" y2="69"/>
			
				<line fill="none" stroke="#4EB96F" stroke-width="8" stroke-linecap="round" stroke-miterlimit="10" x1="299.338" y1="150.66" x2="310.11" y2="139.891"/>
			
				<line fill="none" stroke="#22AD5F" stroke-width="8" stroke-linecap="round" stroke-miterlimit="10" x1="192" y1="86.5" x2="261.5" y2="17"/>
			
				<line fill="none" stroke="#ECF0F1" stroke-width="10" stroke-linecap="round" stroke-miterlimit="10" x1="252" y1="56.5" x2="321.5" y2="-13"/>
			
				<line fill="none" stroke="#BDC3C7" stroke-width="10" stroke-linecap="round" stroke-miterlimit="10" x1="228.584" y1="111.916" x2="278.75" y2="61.75"/>
			
				<line fill="none" stroke="#4EB96F" stroke-width="8" stroke-linecap="round" stroke-miterlimit="10" x1="292" y1="293.5" x2="361.5" y2="224"/>
			
				<line fill="none" stroke="#BDC3C7" stroke-width="10" stroke-linecap="round" stroke-miterlimit="10" x1="272.584" y1="340.916" x2="322.75" y2="290.75"/>
			
				<line fill="none" stroke="#ECF0F1" stroke-width="10" stroke-linecap="round" stroke-miterlimit="10" x1="341" y1="190.5" x2="386.5" y2="145"/>
			
				<line fill="none" stroke="#ECF0F1" stroke-width="10" stroke-linecap="round" stroke-miterlimit="10" x1="270" y1="100.5" x2="339.5" y2="31"/>
			
				<line fill="none" stroke="#4EB96F" stroke-width="8" stroke-linecap="round" stroke-miterlimit="10" x1="336" y1="275.5" x2="405.5" y2="206"/>
			
				<line fill="none" stroke="#ECF0F1" stroke-width="10" stroke-linecap="round" stroke-miterlimit="10" x1="270" y1="127.5" x2="339.5" y2="58"/>
			
				<line fill="none" stroke="#BDC3C7" stroke-width="10" stroke-linecap="round" stroke-miterlimit="10" x1="285.584" y1="137.916" x2="335.75" y2="87.75"/>
			
				<line fill="none" stroke="#ECF0F1" stroke-width="10" stroke-linecap="round" stroke-miterlimit="10" x1="292" y1="49.5" x2="361.5" y2="-20"/>
			
				<line fill="none" stroke="#ECF0F1" stroke-width="10" stroke-linecap="round" stroke-miterlimit="10" x1="171" y1="138.5" x2="240.5" y2="69"/>
		</g>
		<g clip-path="url(#SVGID_2_)">
			<circle fill="#FFFFFF" cx="180" cy="180" r="125"/>
		</g>
		<g clip-path="url(#SVGID_2_)">
			<g>
				<defs>
					<rect id="SVGID_3_" x="103.912" y="110" width="152.176" height="140"/>
				</defs>
				<clipPath id="SVGID_4_">
					<use xlink:href="#SVGID_3_"  overflow="visible"/>
				</clipPath>
				<path clip-path="url(#SVGID_4_)" fill="#2C3E50" d="M229.486,222.585c2.115-0.385,3.752-2.149,3.752-4.377V191.16
					c-1.373-0.109-2.674-0.521-3.762-1.286L229.486,222.585z M229.486,222.585"/>
				<path clip-path="url(#SVGID_4_)" fill="#2C3E50" d="M255.701,181.672l-9.588-27.625c-0.52-1.512-1.98-2.573-3.826-2.472
					c-0.227-0.03-11.383-0.021-11.609-0.021l10.293,29.653c1.355,3.941-0.74,8.256-4.68,9.626c-0.623,0.213-1.277,0.273-1.926,0.322
					h2.189v27.051c0,2.506,2.027,4.537,4.535,4.537c2.5,0,4.539-2.031,4.539-4.537l-0.016-42.517l2.939,8.464
					c0.662,1.925,2.783,3.027,4.809,2.332C255.33,185.801,256.379,183.648,255.701,181.672L255.701,181.672z M255.701,181.672"/>
			</g>
			<path fill="#2C3E50" d="M234.893,149.75c4.66,0,8.846-3.831,8.846-8.842c0-4.884-3.957-8.842-8.846-8.842
				c-3.371,0-6.264,1.907-7.756,4.684c-0.17,1.353-0.51,2.646-1.053,3.844c0,0.107-0.029,0.206-0.029,0.314
				C226.055,145.846,230.26,149.75,234.893,149.75L234.893,149.75z M234.893,149.75"/>
			<path fill="#2C3E50" d="M207.951,229.533c2.285-0.568,4.012-2.541,4.012-5.004v-31.104c-1.463-0.144-2.854-0.582-4.023-1.398
				L207.951,229.533z M207.951,229.533"/>
			<path fill="#2C3E50" d="M237.957,182.248l-11.094-31.972c-0.654-1.911-2.516-2.993-4.432-2.856
				c-0.119-0.02-4.334-0.027-8.549-0.027c-1.93,0-3.842,0.004-5.379,0.004l12.152,35.033c1.512,4.358-0.779,9.131-5.172,10.657
				c-0.275,0.094-0.564,0.076-0.844,0.142h1.158v31.303c0,2.898,2.35,5.252,5.252,5.252c2.893,0,5.248-2.354,5.248-5.252
				l-0.016-49.203l3.408,9.793c0.768,2.232,3.227,3.504,5.561,2.701C237.539,187.026,238.744,184.533,237.957,182.248
				L237.957,182.248z M237.957,182.248"/>
			<path fill="#2C3E50" d="M213.883,145.305c5.318,0,10.236-4.379,10.236-10.231c0-5.654-4.584-10.233-10.236-10.233
				c-3.617,0-6.779,1.886-8.602,4.715c0.141,0.819,0.256,1.649,0.256,2.512c0,2.188-0.504,4.247-1.357,6.12
				C205.582,142.562,209.678,145.305,213.883,145.305L213.883,145.305z M213.883,145.305"/>
			<path fill="#2C3E50" d="M183.129,194.281l0.021,41.609c0,0.08-0.021,0.152-0.025,0.232c3.018-0.205,5.432-2.661,5.432-5.74
				v-34.485c-0.074,0-0.139,0.034-0.215,0.034C186.432,195.932,184.627,195.33,183.129,194.281L183.129,194.281z M183.129,194.281"
				/>
			<path fill="#2C3E50" d="M217.324,183.584l-12.275-35.386c-0.719-2.081-2.715-3.296-4.91-3.159
				c-0.354-0.053-16.416-0.023-16.775-0.021c0.07,0.167,0.189,0.297,0.25,0.469l13.309,38.372c0.799,2.288,0.66,4.753-0.393,6.938
				c-1.059,2.192-2.91,3.838-5.213,4.638c-0.59,0.2-1.209,0.224-1.816,0.303h3.303v34.645c0,3.215,2.602,5.816,5.813,5.816
				c3.207,0,5.811-2.602,5.811-5.816l-0.016-54.459l3.762,10.844c0.861,2.488,3.588,3.873,6.166,2.986
				C216.861,188.875,218.201,186.114,217.324,183.584L217.324,183.584z M217.324,183.584"/>
			<path fill="#2C3E50" d="M190.682,143.39c6.217,0,11.328-5.054,11.328-11.323c0-6.262-5.072-11.329-11.328-11.329
				c-4.59,0-8.514,2.733-10.301,6.653c0.01,0.193,0.061,0.375,0.061,0.572c0,1.889-0.385,3.672-0.969,5.365
				C180.137,139.185,185.01,143.39,190.682,143.39L190.682,143.39z M190.682,143.39"/>
			<path fill="#2C3E50" d="M183.383,188.574c0.93,2.659,3.836,4.213,6.689,3.242c2.734-0.947,4.201-3.945,3.238-6.689
				l-13.309-38.388c-0.773-2.249-2.949-3.572-5.324-3.429c-0.322-0.053-16.455-0.027-16.783-0.027l14.504,41.818
				c1.822,5.248-0.967,11.002-6.225,12.827c-0.738,0.255-1.506,0.303-2.275,0.382h2.814v37.58c0,3.484,2.822,6.305,6.307,6.305
				c3.48,0,6.303-2.82,6.303-6.305l-0.025-59.074L183.383,188.574z M183.383,188.574"/>
			<path fill="#2C3E50" d="M157.105,241.934c2.84-0.611,5.01-3.018,5.01-6.043v-37.527c-1.828-0.142-3.568-0.689-5.02-1.706
				L157.105,241.934z M157.105,241.934"/>
			<g>
				<defs>
					<rect id="SVGID_5_" x="103.912" y="110" width="152.176" height="140"/>
				</defs>
				<clipPath id="SVGID_6_">
					<use xlink:href="#SVGID_5_"  overflow="visible"/>
				</clipPath>
				<path clip-path="url(#SVGID_6_)" fill="#2C3E50" d="M163.77,140.242c6.439,0,12.281-5.273,12.281-12.281
					c0-6.793-5.492-12.287-12.281-12.287c-4.066,0-7.637,1.99-9.877,5.023c0.164,0.963,0.299,1.934,0.299,2.941
					c0,2.943-0.783,5.686-2.051,8.139C153.859,136.989,158.736,140.242,163.77,140.242L163.77,140.242z M163.77,140.242"/>
				<path clip-path="url(#SVGID_6_)" fill="#2C3E50" d="M168.389,186.494l-14.775-42.604c-0.877-2.517-3.309-3.982-5.91-3.805
					c-0.166-0.027-5.773-0.039-11.389-0.039c-5.613,0-11.227,0.012-11.389,0.039c-2.594-0.18-5.039,1.275-5.912,3.805
					l-14.781,42.604c-1.051,3.045,0.561,6.367,3.604,7.422c3.121,1.075,6.391-0.621,7.422-3.599l4.52-13.032l-0.01,65.545
					c0,3.865,3.133,6.998,6.994,6.998c3.865,0,6.998-3.133,6.998-6.998v-41.709h5.109v41.709c0,3.866,3.131,6.998,6.992,6.998
					c3.867,0,6.998-3.132,6.998-6.998l-0.014-65.56l4.523,13.047c1.027,2.956,4.285,4.679,7.424,3.599
					C167.832,192.861,169.445,189.539,168.389,186.494L168.389,186.494z M168.389,186.494"/>
			</g>
			<path fill="#2C3E50" d="M136.314,137.27c7.037,0,13.631-5.787,13.631-13.631c0-7.537-6.1-13.639-13.631-13.639
				c-7.533,0-13.639,6.1-13.639,13.639C122.676,131.412,129.201,137.27,136.314,137.27L136.314,137.27z M136.314,137.27"/>
		</g>
	</g>
</g>
</svg>
