<?xml version="1.0" encoding="utf-8"?>
<!-- Generator: Adobe Illustrator 16.0.0, SVG Export Plug-In . SVG Version: 6.00 Build 0)  -->
<!DOCTYPE svg PUBLIC "-//W3C//DTD SVG 1.1//EN" "http://www.w3.org/Graphics/SVG/1.1/DTD/svg11.dtd">
<svg version="1.1" id="Layer_1" xmlns="http://www.w3.org/2000/svg" xmlns:xlink="http://www.w3.org/1999/xlink" x="0px" y="0px"
	 width="90px" height="180px" viewBox="0 0 90 180" enable-background="new 0 0 90 180" xml:space="preserve">
<g>
	
		<line opacity="0.75" fill="none" stroke="#DDDDDD" stroke-width="20" stroke-miterlimit="10" enable-background="new    " x1="25" y1="0" x2="25" y2="30"/>
	
		<line opacity="0.75" fill="none" stroke="#CCCCCC" stroke-width="20" stroke-miterlimit="10" enable-background="new    " x1="45" y1="0" x2="45" y2="30"/>
</g>
<path fill="#FDFDFD" d="M5.25,0v60h60V0H5.25z M35,60C18.432,60,5,46.568,5,30S18.432,0,35,0c16.568,0,30,13.432,30,30
	S51.568,60,35,60z"/>
<circle fill="none" stroke="#EEEEEE" stroke-miterlimit="10" cx="35" cy="30" r="30"/>
<g>
	
		<line opacity="0.75" fill="none" stroke="#DDDDDD" stroke-width="20" stroke-miterlimit="10" enable-background="new    " x1="25" y1="30" x2="25" y2="182"/>
	
		<line opacity="0.75" fill="none" stroke="#CCCCCC" stroke-width="20" stroke-miterlimit="10" enable-background="new    " x1="45" y1="30" x2="45" y2="182"/>
</g>
<g>
	<g>
		<rect x="93" fill="#FFFFFF" width="40" height="20"/>
		<g>
			<polygon fill="#FFFFFF" points="125,28 113,40 113,20 133,20 			"/>
			<polygon fill="#FFFFFF" points="101,28 113,40 113,20 93,20 			"/>
		</g>
	</g>
	<g>
		<polygon opacity="0.85" fill="#CCCCCC" enable-background="new    " points="125,8 113,20 113,0 133,0 		"/>
		<polygon opacity="0.85" fill="#DDDDDD" enable-background="new    " points="101,8 113,20 113,0 93,0 		"/>
	</g>
</g>
</svg>
