<?xml version="1.0" encoding="utf-8"?>
<!-- Generator: Adobe Illustrator 16.0.0, SVG Export Plug-In . SVG Version: 6.00 Build 0)  -->
<!DOCTYPE svg PUBLIC "-//W3C//DTD SVG 1.1//EN" "http://www.w3.org/Graphics/SVG/1.1/DTD/svg11.dtd">
<svg version="1.1" id="Layer_1" xmlns="http://www.w3.org/2000/svg" xmlns:xlink="http://www.w3.org/1999/xlink" x="0px" y="0px"
	 width="360px" height="70px" viewBox="0 0 360 70" enable-background="new 0 0 360 70" xml:space="preserve">
<g>
	<g>
		<path fill="#2C3E50" d="M152.422,48.318V18.61h19.122v0.837h-18.285v13.222h15.607v0.837h-15.607v14.812H152.422z"/>
		<path fill="#2C3E50" d="M184.39,27.438c-2.064,0.084-3.843,0.753-5.335,2.009c-1.492,1.255-2.531,2.971-3.117,5.146v13.724h-0.836
			V26.602h0.836v5.607c0.753-1.534,1.764-2.796,3.034-3.787c1.269-0.99,2.615-1.569,4.038-1.736
			c0.278-0.027,0.537-0.048,0.774-0.063c0.236-0.014,0.439-0.021,0.606-0.021V27.438z"/>
		<path fill="#2C3E50" d="M193.387,48.736c-0.978,0-1.898-0.175-2.762-0.523c-0.865-0.349-1.611-0.823-2.239-1.423
			c-0.628-0.6-1.123-1.304-1.485-2.113c-0.363-0.809-0.544-1.674-0.544-2.594s0.216-1.757,0.649-2.511
			c0.432-0.753,1.045-1.402,1.84-1.946s1.744-0.969,2.846-1.276c1.102-0.307,2.309-0.46,3.619-0.46c1.256,0,2.524,0.104,3.809,0.314
			c1.282,0.209,2.439,0.509,3.473,0.899v-2.469c0-1.115-0.168-2.14-0.502-3.075c-0.336-0.934-0.816-1.729-1.444-2.385
			c-0.628-0.655-1.38-1.165-2.259-1.527c-0.879-0.362-1.849-0.544-2.908-0.544c-1.061,0-2.19,0.23-3.39,0.69
			c-1.2,0.46-2.413,1.123-3.64,1.987l-0.502-0.669c2.789-1.896,5.299-2.845,7.531-2.845c1.199,0,2.294,0.195,3.284,0.586
			c0.989,0.391,1.827,0.948,2.511,1.673c0.684,0.726,1.213,1.604,1.59,2.636c0.377,1.032,0.564,2.19,0.564,3.473v12.009
			c0,0.559,0.224,0.837,0.67,0.837v0.837c-0.307,0-0.502-0.027-0.586-0.083c-0.279-0.111-0.502-0.314-0.67-0.607
			c-0.166-0.293-0.25-0.621-0.25-0.983v-2.008c-1.004,1.312-2.316,2.322-3.934,3.034C197.04,48.381,195.283,48.736,193.387,48.736z
			 M193.387,47.899c1.867,0,3.576-0.349,5.125-1.046s2.699-1.632,3.452-2.804c0.419-0.585,0.628-1.157,0.628-1.715v-4.31
			c-2.232-0.865-4.659-1.297-7.281-1.297c-1.228,0-2.336,0.125-3.326,0.376s-1.841,0.614-2.553,1.088
			c-0.711,0.475-1.262,1.04-1.652,1.695c-0.391,0.656-0.586,1.388-0.586,2.197s0.16,1.569,0.481,2.28
			c0.32,0.711,0.76,1.333,1.317,1.862c0.559,0.53,1.214,0.941,1.967,1.234C191.713,47.753,192.521,47.899,193.387,47.899z"/>
		<path fill="#2C3E50" d="M241.42,48.318h-0.836V36.226c0-3.124-0.468-5.425-1.402-6.904c-0.935-1.478-2.406-2.217-4.414-2.217
			c-1.032,0-2.002,0.188-2.908,0.565c-0.906,0.376-1.729,0.899-2.469,1.569s-1.381,1.464-1.924,2.385
			c-0.545,0.92-0.957,1.924-1.234,3.012v13.683h-0.838V36.226c0-3.152-0.46-5.46-1.381-6.925c-0.92-1.465-2.385-2.197-4.393-2.197
			c-1.004,0-1.961,0.182-2.867,0.544c-0.906,0.363-1.729,0.872-2.468,1.527c-0.739,0.656-1.388,1.443-1.946,2.364
			s-0.99,1.939-1.297,3.055v13.724h-0.836V26.602h0.836v5.607c0.948-1.896,2.155-3.361,3.619-4.393
			c1.465-1.032,3.062-1.548,4.791-1.548c1.842,0,3.348,0.572,4.52,1.715c1.172,1.144,1.868,2.678,2.092,4.603
			c2.176-4.212,5.076-6.318,8.703-6.318c2.26,0,3.934,0.816,5.021,2.448s1.631,4.136,1.631,7.511V48.318z"/>
		<path fill="#2C3E50" d="M257.069,48.736c-1.423,0-2.769-0.3-4.038-0.899c-1.27-0.6-2.379-1.423-3.326-2.469
			c-0.949-1.046-1.701-2.26-2.26-3.641c-0.559-1.38-0.836-2.852-0.836-4.414c0-1.534,0.264-2.971,0.795-4.31
			c0.529-1.339,1.262-2.51,2.196-3.515c0.935-1.004,2.022-1.792,3.264-2.364s2.573-0.858,3.995-0.858
			c1.451,0,2.811,0.293,4.08,0.878c1.27,0.586,2.371,1.381,3.306,2.385s1.681,2.19,2.239,3.557c0.557,1.367,0.836,2.832,0.836,4.394
			v0.46h-19.875c0.111,1.396,0.439,2.699,0.983,3.912c0.544,1.214,1.248,2.267,2.113,3.159c0.864,0.893,1.862,1.597,2.991,2.113
			c1.13,0.517,2.322,0.774,3.578,0.774c0.836,0,1.652-0.111,2.447-0.334s1.541-0.537,2.238-0.942
			c0.697-0.404,1.312-0.885,1.842-1.443c0.529-0.558,0.947-1.171,1.255-1.841l0.795,0.209c-0.308,0.753-0.747,1.443-1.317,2.071
			c-0.572,0.627-1.242,1.171-2.009,1.632c-0.768,0.46-1.604,0.823-2.511,1.088S258.018,48.736,257.069,48.736z M266.441,37.104
			c-0.083-1.45-0.391-2.789-0.92-4.017c-0.53-1.227-1.221-2.28-2.071-3.159s-1.835-1.569-2.95-2.071
			c-1.115-0.502-2.315-0.753-3.598-0.753c-1.283,0-2.483,0.251-3.6,0.753c-1.115,0.502-2.099,1.2-2.949,2.092
			c-0.852,0.893-1.527,1.953-2.029,3.18s-0.795,2.552-0.879,3.975H266.441z"/>
		<path fill="#2C3E50" d="M299.455,26.602h0.92l-9.498,21.716h-0.753l-5.313-12.176l-5.314,12.176h-0.753l-9.499-21.716h0.922
			l8.953,20.503l5.23-12.009l-3.641-8.452h0.879l3.223,7.364l3.221-7.364h0.879l-3.64,8.452l5.229,12.009L299.455,26.602z"/>
		<path fill="#2C3E50" d="M312.928,48.736c-1.422,0-2.762-0.3-4.017-0.899c-1.255-0.6-2.351-1.409-3.284-2.427
			c-0.936-1.018-1.674-2.21-2.218-3.577s-0.815-2.804-0.815-4.31c0-1.534,0.271-2.977,0.815-4.331
			c0.544-1.353,1.29-2.545,2.238-3.578c0.948-1.032,2.05-1.848,3.306-2.448c1.256-0.6,2.58-0.899,3.975-0.899s2.721,0.3,3.976,0.899
			c1.255,0.6,2.35,1.416,3.284,2.448c0.935,1.033,1.68,2.225,2.238,3.578c0.559,1.354,0.838,2.797,0.838,4.331
			c0,1.506-0.272,2.943-0.816,4.31s-1.283,2.56-2.218,3.577c-0.935,1.019-2.029,1.828-3.284,2.427
			C315.689,48.436,314.351,48.736,312.928,48.736z M303.43,37.606c0,1.395,0.252,2.72,0.754,3.975
			c0.502,1.255,1.178,2.351,2.029,3.285c0.85,0.935,1.848,1.674,2.991,2.218s2.37,0.816,3.683,0.816c1.282,0,2.503-0.278,3.66-0.837
			c1.158-0.558,2.176-1.311,3.055-2.259c0.879-0.948,1.569-2.05,2.071-3.306c0.503-1.255,0.753-2.594,0.753-4.017
			c0-1.395-0.25-2.72-0.753-3.975c-0.502-1.255-1.186-2.357-2.05-3.306c-0.865-0.948-1.877-1.701-3.033-2.259
			c-1.158-0.558-2.379-0.837-3.662-0.837s-2.504,0.279-3.66,0.837c-1.158,0.558-2.17,1.318-3.034,2.28
			c-0.865,0.962-1.548,2.078-2.05,3.347C303.682,34.838,303.43,36.184,303.43,37.606z"/>
		<path fill="#2C3E50" d="M337.991,27.438c-2.064,0.084-3.843,0.753-5.335,2.009c-1.492,1.255-2.531,2.971-3.117,5.146v13.724
			h-0.836V26.602h0.836v5.607c0.754-1.534,1.764-2.796,3.033-3.787c1.27-0.99,2.615-1.569,4.038-1.736
			c0.278-0.027,0.537-0.048,0.774-0.063c0.236-0.014,0.439-0.021,0.606-0.021V27.438z"/>
		<path fill="#2C3E50" d="M358.285,48.318l-9.248-12.427l-5.899,5.356v7.071h-0.837V17.773h0.837v22.344l14.813-13.431h1.13
			l-9.415,8.62l9.624,13.013H358.285z"/>
	</g>
	<g>
		<g>
			<path fill="#ECEEEF" d="M139,67.166c0,1.565-1.269,2.834-2.834,2.834H2.834C1.269,70,0,68.731,0,67.166V2.834
				C0,1.269,1.269,0,2.834,0h133.331C137.731,0,139,1.269,139,2.834V67.166z"/>
		</g>
		<g>
			<g>
				<g>
					<path fill="#2C3E50" d="M34.684,35.191c0,2.398-0.3,4.435-0.899,6.108c-0.6,1.673-1.423,3.034-2.469,4.079
						c-1.046,1.047-2.287,1.807-3.724,2.281c-1.437,0.474-2.991,0.712-4.665,0.712c-1.73,0-3.473-0.21-5.23-0.628V22.639
						c1.757-0.418,3.5-0.627,5.23-0.627c1.674,0,3.228,0.236,4.665,0.71c1.437,0.475,2.678,1.242,3.724,2.302
						c1.046,1.061,1.869,2.428,2.469,4.102C34.384,30.799,34.684,32.821,34.684,35.191z M21.127,45.274
						c0.697,0.084,1.408,0.127,2.134,0.127c1.255,0,2.37-0.189,3.347-0.565s1.799-0.976,2.469-1.8
						c0.669-0.822,1.186-1.883,1.548-3.181c0.362-1.297,0.544-2.852,0.544-4.664c0-3.515-0.676-6.096-2.029-7.74
						c-1.354-1.646-3.354-2.469-6.004-2.469c-0.363,0-0.718,0.007-1.067,0.021c-0.349,0.014-0.663,0.049-0.941,0.104V45.274z"/>
				</g>
				<g>
					<path fill="#2C3E50" d="M106.862,48.162v-25.9h14.518v2.93h-11.087v7.95H120v2.928h-9.707v9.165h12.008v2.928H106.862z"/>
				</g>
				<g>
					<path fill="#2C3E50" d="M86.27,22.262c0.335,1.759,0.76,3.676,1.277,5.755c0.516,2.077,1.059,4.156,1.631,6.232
						c0.572,2.079,1.151,4.065,1.736,5.963c0.586,1.898,1.131,3.557,1.633,4.979c0.445-1.423,0.969-3.097,1.568-5.021
						c0.6-1.926,1.193-3.927,1.778-6.005c0.586-2.077,1.136-4.149,1.653-6.213c0.516-2.064,0.941-3.962,1.276-5.691h3.599
						c-0.224,1.117-0.586,2.615-1.088,4.499c-0.502,1.882-1.103,3.988-1.799,6.317c-0.698,2.329-1.472,4.798-2.322,7.406
						c-0.851,2.608-1.737,5.167-2.658,7.678h-4.268c-0.865-2.511-1.708-5.063-2.531-7.657c-0.824-2.594-1.583-5.055-2.281-7.384
						c-0.697-2.329-1.296-4.442-1.798-6.339s-0.878-3.403-1.13-4.521H86.27z"/>
				</g>
				<g>
					<path fill="#2C3E50" d="M72.101,25.191v20.043h5.021v2.928H63.649v-2.928h5.021V25.191h-5.021v-2.928h13.473v2.928H72.101z"/>
				</g>
				<g>
					<path fill="#2C3E50" d="M55.484,30.296c0,1.591-0.418,2.991-1.255,4.206c-0.836,1.214-1.966,2.155-3.389,2.823
						c0.418,0.67,0.885,1.431,1.402,2.28c0.516,0.852,1.039,1.759,1.569,2.721c0.529,0.962,1.052,1.953,1.569,2.971
						c0.516,1.019,0.997,2.017,1.443,2.992h-3.682c-0.836-2.01-1.75-3.934-2.74-5.775c-0.991-1.841-1.946-3.332-2.867-4.477
						c-0.167,0.027-0.412,0.041-0.732,0.041c-0.321,0-0.538,0-0.649,0h-2.929v10.211h-3.473V22.766
						c0.418-0.112,0.899-0.209,1.443-0.294c0.544-0.084,1.102-0.146,1.674-0.188c0.572-0.043,1.136-0.077,1.695-0.105
						c0.558-0.027,1.06-0.041,1.506-0.041c3.125,0,5.475,0.685,7.051,2.05C54.696,25.555,55.484,27.591,55.484,30.296z
						 M46.363,25.108c-0.642,0-1.262,0.007-1.862,0.021c-0.6,0.016-1.025,0.05-1.276,0.104v10.001h2.218
						c1.004,0,1.904-0.069,2.699-0.209c0.794-0.14,1.478-0.397,2.05-0.773c0.571-0.378,1.011-0.894,1.318-1.549
						c0.307-0.654,0.46-1.512,0.46-2.573c0-1.004-0.153-1.826-0.46-2.468c-0.308-0.643-0.711-1.151-1.214-1.527
						c-0.501-0.377-1.095-0.643-1.778-0.796C47.834,25.186,47.116,25.108,46.363,25.108z"/>
				</g>
			</g>
		</g>
	</g>
</g>
</svg>
