<?xml version="1.0" encoding="utf-8"?>
<!-- Generator: Adobe Illustrator 16.0.0, SVG Export Plug-In . SVG Version: 6.00 Build 0)  -->
<!DOCTYPE svg PUBLIC "-//W3C//DTD SVG 1.1//EN" "http://www.w3.org/Graphics/SVG/1.1/DTD/svg11.dtd">
<svg version="1.1" id="Layer_1" xmlns="http://www.w3.org/2000/svg" xmlns:xlink="http://www.w3.org/1999/xlink" x="0px" y="0px"
	 width="60px" height="30px" viewBox="0 0 60 30" enable-background="new 0 0 60 30" xml:space="preserve">
<g>
	<g>
		<path fill="#ECEEEF" d="M60,27.165C60,28.725,58.725,30,57.166,30H2.834C1.275,30,0,28.725,0,27.165V2.834
			C0,1.275,1.275,0,2.834,0h54.331C58.725,0,60,1.275,60,2.834V27.165z"/>
	</g>
	<g>
		<g>
			<g>
				<path fill="#2C3E50" d="M14.92,15.082c0,1.032-0.129,1.908-0.387,2.628c-0.258,0.72-0.612,1.306-1.062,1.755
					c-0.45,0.45-0.984,0.777-1.602,0.981c-0.618,0.203-1.287,0.307-2.007,0.307c-0.744,0-1.494-0.091-2.25-0.271V9.682
					c0.756-0.179,1.506-0.27,2.25-0.27c0.72,0,1.389,0.103,2.007,0.306c0.618,0.204,1.152,0.535,1.602,0.99
					c0.45,0.456,0.804,1.045,1.062,1.765C14.792,13.192,14.92,14.063,14.92,15.082z M9.088,19.42c0.3,0.036,0.606,0.055,0.918,0.055
					c0.54,0,1.02-0.081,1.439-0.243s0.774-0.42,1.063-0.774c0.288-0.354,0.51-0.81,0.666-1.368c0.156-0.559,0.234-1.227,0.234-2.007
					c0-1.512-0.291-2.622-0.873-3.329c-0.583-0.709-1.443-1.063-2.583-1.063c-0.156,0-0.309,0.003-0.459,0.009
					c-0.15,0.006-0.285,0.021-0.405,0.045V19.42z"/>
			</g>
			<g>
				<path fill="#2C3E50" d="M45.971,20.662V9.521h6.246v1.26h-4.77v3.42h4.176v1.26h-4.176v3.942h5.166v1.26H45.971z"/>
			</g>
			<g>
				<path fill="#2C3E50" d="M37.112,9.521c0.144,0.756,0.327,1.581,0.549,2.476c0.222,0.894,0.456,1.787,0.702,2.681
					c0.246,0.895,0.495,1.749,0.747,2.565s0.486,1.53,0.702,2.142c0.191-0.611,0.417-1.332,0.675-2.159
					c0.259-0.829,0.513-1.689,0.765-2.583s0.489-1.785,0.711-2.673c0.223-0.889,0.406-1.704,0.549-2.448h1.549
					c-0.097,0.48-0.252,1.125-0.469,1.935c-0.215,0.811-0.474,1.716-0.773,2.718c-0.301,1.002-0.633,2.064-0.999,3.187
					s-0.747,2.223-1.144,3.303H38.84c-0.371-1.08-0.734-2.178-1.088-3.294c-0.355-1.115-0.682-2.175-0.982-3.177
					c-0.299-1.002-0.557-1.911-0.773-2.727c-0.216-0.816-0.377-1.464-0.486-1.944H37.112z"/>
			</g>
			<g>
				<path fill="#2C3E50" d="M31.018,10.78v8.622h2.16v1.26h-5.796v-1.26h2.16V10.78h-2.16v-1.26h5.796v1.26H31.018z"/>
			</g>
			<g>
				<path fill="#2C3E50" d="M23.869,12.977c0,0.684-0.18,1.287-0.54,1.809c-0.36,0.522-0.846,0.928-1.458,1.215
					c0.18,0.288,0.381,0.616,0.603,0.981c0.222,0.366,0.447,0.756,0.675,1.17c0.228,0.414,0.453,0.841,0.675,1.278
					s0.429,0.867,0.621,1.287h-1.584c-0.36-0.864-0.753-1.692-1.179-2.484c-0.426-0.792-0.837-1.434-1.233-1.926
					c-0.072,0.012-0.177,0.018-0.315,0.018c-0.138,0-0.231,0-0.279,0h-1.26v4.393h-1.494V9.737c0.18-0.049,0.387-0.091,0.621-0.127
					s0.474-0.063,0.72-0.081s0.489-0.032,0.729-0.045c0.24-0.012,0.456-0.018,0.648-0.018c1.344,0,2.355,0.294,3.033,0.882
					C23.53,10.937,23.869,11.813,23.869,12.977z M19.945,10.745c-0.276,0-0.543,0.002-0.801,0.008
					c-0.258,0.007-0.441,0.021-0.549,0.045v4.303h0.954c0.432,0,0.819-0.03,1.161-0.09c0.342-0.061,0.636-0.171,0.882-0.333
					c0.246-0.162,0.435-0.385,0.567-0.666c0.132-0.281,0.198-0.65,0.198-1.107c0-0.432-0.066-0.785-0.198-1.062
					c-0.132-0.276-0.306-0.495-0.522-0.657c-0.216-0.162-0.471-0.276-0.765-0.342C20.578,10.777,20.269,10.745,19.945,10.745z"/>
			</g>
		</g>
	</g>
</g>
</svg>
