<?xml version="1.0" encoding="utf-8"?>
<!-- Generator: Adobe Illustrator 16.0.0, SVG Export Plug-In . SVG Version: 6.00 Build 0)  -->
<!DOCTYPE svg PUBLIC "-//W3C//DTD SVG 1.1//EN" "http://www.w3.org/Graphics/SVG/1.1/DTD/svg11.dtd">
<svg version="1.1" id="Layer_1" xmlns="http://www.w3.org/2000/svg" xmlns:xlink="http://www.w3.org/1999/xlink" x="0px" y="0px"
	 width="360px" height="70px" viewBox="0 0 360 70" enable-background="new 0 0 360 70" xml:space="preserve">
<g>
	<path fill="#2C3E50" d="M162.983,47.593V19.299h18.211v0.797H163.78v12.593h14.864v0.797H163.78v14.107H162.983z"/>
	<path fill="#2C3E50" d="M193.429,27.708c-1.967,0.08-3.66,0.717-5.082,1.913c-1.42,1.195-2.41,2.829-2.969,4.901v13.071h-0.797
		V26.911h0.797v5.34c0.719-1.461,1.68-2.663,2.891-3.606c1.207-0.943,2.49-1.494,3.844-1.654c0.266-0.026,0.512-0.046,0.738-0.06
		c0.225-0.013,0.418-0.02,0.578-0.02V27.708z"/>
	<path fill="#2C3E50" d="M201.996,47.991c-0.93,0-1.807-0.166-2.63-0.498c-0.824-0.332-1.534-0.783-2.132-1.354
		s-1.07-1.242-1.415-2.013c-0.346-0.771-0.518-1.594-0.518-2.471s0.205-1.674,0.617-2.392c0.412-0.717,0.996-1.335,1.754-1.853
		c0.757-0.518,1.659-0.923,2.709-1.216c1.05-0.292,2.198-0.438,3.447-0.438c1.195,0,2.404,0.1,3.627,0.299
		c1.222,0.199,2.324,0.484,3.308,0.856v-2.351c0-1.063-0.16-2.039-0.479-2.929c-0.319-0.89-0.777-1.647-1.375-2.271
		c-0.598-0.624-1.315-1.109-2.152-1.455c-0.836-0.345-1.76-0.518-2.77-0.518s-2.086,0.219-3.228,0.658
		c-1.143,0.438-2.298,1.07-3.467,1.893l-0.479-0.637c2.656-1.807,5.048-2.71,7.173-2.71c1.143,0,2.186,0.186,3.129,0.558
		c0.942,0.372,1.739,0.903,2.391,1.594c0.65,0.691,1.156,1.528,1.515,2.511s0.538,2.086,0.538,3.308v11.437
		c0,0.531,0.212,0.797,0.638,0.797v0.797c-0.293,0-0.479-0.026-0.559-0.08c-0.266-0.105-0.478-0.299-0.638-0.577
		c-0.159-0.279-0.238-0.591-0.238-0.937v-1.913c-0.957,1.249-2.206,2.212-3.746,2.89C205.477,47.652,203.803,47.991,201.996,47.991z
		 M201.996,47.194c1.779,0,3.407-0.332,4.882-0.996s2.57-1.555,3.287-2.67c0.399-0.559,0.599-1.103,0.599-1.634V37.79
		c-2.126-0.824-4.438-1.235-6.935-1.235c-1.169,0-2.226,0.119-3.168,0.358c-0.943,0.238-1.753,0.584-2.431,1.036
		s-1.202,0.99-1.574,1.614s-0.558,1.321-0.558,2.092s0.152,1.494,0.458,2.172c0.305,0.678,0.724,1.269,1.255,1.773
		s1.156,0.896,1.873,1.175C200.402,47.055,201.173,47.194,201.996,47.194z"/>
	<path fill="#2C3E50" d="M247.744,47.593h-0.798V36.076c0-2.975-0.444-5.167-1.335-6.575c-0.89-1.408-2.291-2.112-4.204-2.112
		c-0.982,0-1.906,0.18-2.77,0.538c-0.863,0.359-1.647,0.857-2.351,1.495c-0.704,0.637-1.315,1.395-1.833,2.271
		c-0.519,0.877-0.911,1.833-1.176,2.87v13.031h-0.797V36.076c0-3.002-0.438-5.201-1.315-6.595c-0.877-1.395-2.271-2.092-4.185-2.092
		c-0.956,0-1.866,0.173-2.729,0.518c-0.863,0.346-1.647,0.831-2.351,1.455c-0.705,0.625-1.322,1.375-1.854,2.251
		c-0.531,0.877-0.943,1.847-1.235,2.909v13.071h-0.797V26.911h0.797v5.34c0.903-1.806,2.053-3.201,3.447-4.184
		s2.915-1.475,4.563-1.475c1.754,0,3.188,0.545,4.304,1.634c1.116,1.09,1.78,2.55,1.993,4.384c2.072-4.011,4.835-6.018,8.288-6.018
		c2.152,0,3.746,0.777,4.782,2.331s1.555,3.939,1.555,7.153V47.593z"/>
	<path fill="#2C3E50" d="M262.648,47.991c-1.355,0-2.638-0.286-3.846-0.856c-1.21-0.571-2.266-1.355-3.168-2.352
		c-0.904-0.996-1.621-2.151-2.152-3.467s-0.797-2.716-0.797-4.204c0-1.461,0.252-2.83,0.757-4.104
		c0.505-1.275,1.202-2.391,2.093-3.348c0.89-0.957,1.926-1.707,3.107-2.251c1.183-0.544,2.451-0.817,3.806-0.817
		c1.382,0,2.677,0.279,3.886,0.837c1.209,0.558,2.258,1.315,3.148,2.271c0.89,0.957,1.6,2.086,2.132,3.387
		c0.531,1.302,0.797,2.697,0.797,4.184v0.438h-18.929c0.105,1.329,0.418,2.57,0.937,3.726c0.518,1.156,1.188,2.159,2.013,3.009
		c0.823,0.851,1.773,1.521,2.849,2.013c1.076,0.492,2.212,0.737,3.407,0.737c0.797,0,1.574-0.105,2.331-0.319
		c0.758-0.212,1.468-0.511,2.133-0.896c0.663-0.385,1.248-0.843,1.753-1.374s0.903-1.116,1.195-1.754l0.758,0.199
		c-0.293,0.718-0.712,1.375-1.256,1.973c-0.545,0.598-1.183,1.116-1.912,1.554c-0.731,0.438-1.528,0.784-2.392,1.036
		C264.435,47.865,263.551,47.991,262.648,47.991z M271.574,36.913c-0.079-1.381-0.372-2.656-0.877-3.826
		c-0.505-1.169-1.162-2.172-1.973-3.009s-1.747-1.494-2.809-1.973c-1.063-0.478-2.206-0.717-3.428-0.717s-2.364,0.239-3.427,0.717
		c-1.063,0.479-1.999,1.143-2.81,1.993c-0.811,0.851-1.454,1.86-1.933,3.029s-0.757,2.431-0.837,3.786H271.574z"/>
	<path fill="#2C3E50" d="M303.015,26.911h0.877l-9.046,20.682h-0.717l-5.062-11.596l-5.061,11.596h-0.718l-9.046-20.682h0.877
		l8.527,19.527L288.629,35l-3.467-8.049h0.837l3.068,7.013l3.068-7.013h0.837L289.506,35l4.981,11.438L303.015,26.911z"/>
	<path fill="#2C3E50" d="M315.847,47.991c-1.354,0-2.63-0.286-3.825-0.856c-1.196-0.571-2.238-1.342-3.129-2.312
		c-0.89-0.97-1.594-2.105-2.111-3.407c-0.519-1.302-0.777-2.67-0.777-4.104c0-1.461,0.259-2.835,0.777-4.125
		c0.518-1.288,1.229-2.424,2.132-3.407c0.902-0.982,1.952-1.76,3.147-2.331c1.196-0.571,2.457-0.857,3.786-0.857
		c1.328,0,2.591,0.286,3.786,0.857s2.237,1.349,3.128,2.331c0.89,0.983,1.601,2.119,2.132,3.407
		c0.531,1.289,0.797,2.664,0.797,4.125c0,1.435-0.259,2.803-0.776,4.104c-0.519,1.302-1.223,2.438-2.112,3.407
		c-0.891,0.97-1.933,1.74-3.128,2.312C318.477,47.705,317.202,47.991,315.847,47.991z M306.801,37.392
		c0,1.328,0.239,2.59,0.718,3.785c0.478,1.195,1.122,2.238,1.933,3.128c0.81,0.891,1.76,1.595,2.849,2.112
		c1.089,0.519,2.258,0.777,3.507,0.777c1.222,0,2.385-0.266,3.487-0.797c1.102-0.531,2.072-1.249,2.909-2.152
		c0.837-0.902,1.494-1.952,1.973-3.147c0.478-1.196,0.717-2.471,0.717-3.826c0-1.328-0.239-2.59-0.717-3.786
		c-0.479-1.195-1.13-2.245-1.953-3.148c-0.823-0.903-1.787-1.62-2.889-2.152c-1.104-0.531-2.266-0.797-3.487-0.797
		c-1.223,0-2.385,0.266-3.486,0.797c-1.104,0.532-2.066,1.255-2.89,2.171c-0.823,0.917-1.475,1.979-1.952,3.188
		C307.04,34.755,306.801,36.036,306.801,37.392z"/>
	<path fill="#2C3E50" d="M339.717,27.708c-1.967,0.08-3.66,0.717-5.081,1.913c-1.421,1.195-2.411,2.829-2.969,4.901v13.071h-0.797
		V26.911h0.797v5.34c0.718-1.461,1.68-2.663,2.89-3.606c1.208-0.943,2.49-1.494,3.845-1.654c0.266-0.026,0.512-0.046,0.737-0.06
		c0.226-0.013,0.419-0.02,0.578-0.02V27.708z"/>
	<path fill="#2C3E50" d="M359.044,47.593l-8.807-11.835l-5.619,5.101v6.734h-0.797v-29.09h0.797v21.28l14.107-12.792h1.075
		l-8.966,8.209L360,47.593H359.044z"/>
</g>
<g>
	<g>
		<path fill="#F5F5F5" d="M150,67.165c0,1.56-1.275,2.835-2.834,2.835H2.834C1.275,70,0,68.725,0,67.165V2.834
			C0,1.275,1.275,0,2.834,0h144.331C148.725,0,150,1.275,150,2.834V67.165z"/>
	</g>
</g>
<g>
	<path fill="#2C3E50" d="M19.928,47.593V19.299h9.404c2.232,0,4.19,0.372,5.878,1.116c1.688,0.744,3.089,1.753,4.204,3.029
		c1.116,1.275,1.953,2.77,2.511,4.483s0.837,3.541,0.837,5.479c0,2.152-0.313,4.099-0.937,5.838
		c-0.624,1.74-1.521,3.228-2.689,4.463c-1.17,1.235-2.584,2.192-4.244,2.869c-1.661,0.678-3.514,1.017-5.56,1.017H19.928z
		 M40.729,33.406c0-1.78-0.253-3.42-0.757-4.921c-0.505-1.501-1.242-2.796-2.212-3.886c-0.97-1.089-2.159-1.939-3.566-2.55
		c-1.408-0.611-3.029-0.917-4.862-0.917H21.96V45.76h7.372c1.859,0,3.5-0.313,4.922-0.937c1.421-0.624,2.61-1.494,3.566-2.61
		c0.956-1.115,1.68-2.424,2.172-3.925C40.483,36.787,40.729,35.16,40.729,33.406z"/>
	<path fill="#2C3E50" d="M48.54,47.593V19.299h11.795c1.195,0,2.298,0.253,3.308,0.757c1.01,0.505,1.873,1.175,2.591,2.012
		c0.717,0.837,1.281,1.78,1.693,2.829c0.411,1.05,0.617,2.106,0.617,3.168c0,1.036-0.159,2.039-0.478,3.008
		c-0.319,0.97-0.771,1.84-1.355,2.61c-0.584,0.771-1.289,1.409-2.111,1.913c-0.824,0.505-1.728,0.836-2.71,0.996l7.053,10.999
		h-2.351l-6.854-10.68h-9.165v10.68H48.54z M50.572,35.04h9.922c0.903,0,1.728-0.199,2.471-0.598
		c0.744-0.398,1.382-0.923,1.913-1.574c0.531-0.651,0.937-1.395,1.216-2.231c0.278-0.837,0.418-1.694,0.418-2.57
		c0-0.903-0.166-1.773-0.498-2.61s-0.784-1.574-1.354-2.211c-0.572-0.638-1.235-1.149-1.993-1.535
		c-0.757-0.385-1.573-0.578-2.45-0.578h-9.644V35.04z"/>
	<path fill="#2C3E50" d="M74.681,47.593V19.339h2.032v28.254H74.681z"/>
	<path fill="#2C3E50" d="M83.169,19.299l10.8,25.743l10.759-25.743h2.152L94.885,47.593h-1.833L81.057,19.299H83.169z"/>
	<path fill="#2C3E50" d="M130.072,45.76v1.833h-18.849V19.299h18.49v1.833h-16.458V32.25h14.386v1.753h-14.386V45.76H130.072z"/>
</g>
<g>
	<line fill="none" stroke="#22AD5F" stroke-width="2" stroke-miterlimit="10" x1="20" y1="55" x2="43" y2="55"/>
	<line fill="none" stroke="#C03A2B" stroke-width="2" stroke-miterlimit="10" x1="43" y1="55" x2="61" y2="55"/>
	<line fill="none" stroke="#EEC21A" stroke-width="2" stroke-miterlimit="10" x1="61" y1="55" x2="84" y2="55"/>
	<line fill="none" stroke="#3B97D2" stroke-width="2" stroke-miterlimit="10" x1="84" y1="55" x2="107" y2="55"/>
	<line fill="none" stroke="#874B9C" stroke-width="2" stroke-miterlimit="10" x1="107" y1="55" x2="130" y2="55"/>
</g>
</svg>
