<?xml version="1.0" encoding="utf-8"?>
<!-- Generator: Adobe Illustrator 16.0.0, SVG Export Plug-In . SVG Version: 6.00 Build 0)  -->
<!DOCTYPE svg PUBLIC "-//W3C//DTD SVG 1.1//EN" "http://www.w3.org/Graphics/SVG/1.1/DTD/svg11.dtd">
<svg version="1.1" id="Layer_1" xmlns="http://www.w3.org/2000/svg" xmlns:xlink="http://www.w3.org/1999/xlink" x="0px" y="0px"
	 width="63.75px" height="30px" viewBox="0 0 63.75 30" enable-background="new 0 0 63.75 30" xml:space="preserve">
<g>
	<g>
		<path fill="#F5F5F5" d="M64,28c0,1.1-0.9,2-2,2H2c-1.1,0-2-0.9-2-2V2c0-1.1,0.9-2,2-2h60c1.1,0,2,0.9,2,2V28z"/>
	</g>
</g>
<g>
	<g>
		<path fill="#2C3E50" d="M8.086,19.949V7.57h4.115c0.976,0,1.833,0.163,2.571,0.488c0.738,0.326,1.351,0.767,1.839,1.325
			c0.488,0.558,0.854,1.211,1.099,1.961c0.244,0.75,0.366,1.549,0.366,2.397c0,0.941-0.137,1.793-0.41,2.555
			c-0.273,0.762-0.666,1.412-1.177,1.951c-0.511,0.541-1.13,0.959-1.856,1.256c-0.727,0.297-1.538,0.445-2.432,0.445H8.086z
			 M17.187,13.742c0-0.779-0.11-1.497-0.331-2.153c-0.221-0.656-0.543-1.223-0.968-1.7s-0.944-0.848-1.56-1.116
			c-0.616-0.267-1.325-0.401-2.127-0.401H8.975v10.774h3.226c0.813,0,1.531-0.137,2.153-0.41c0.622-0.271,1.142-0.652,1.561-1.141
			s0.735-1.061,0.95-1.718C17.079,15.221,17.187,14.509,17.187,13.742z"/>
		<path fill="#2C3E50" d="M20.604,19.949V7.57h5.161c0.523,0,1.005,0.111,1.447,0.332c0.441,0.221,0.819,0.514,1.133,0.88
			c0.314,0.366,0.561,0.779,0.741,1.238s0.27,0.921,0.27,1.386c0,0.454-0.069,0.892-0.209,1.316s-0.337,0.805-0.593,1.142
			c-0.256,0.337-0.564,0.616-0.924,0.837c-0.361,0.221-0.756,0.366-1.186,0.436l3.085,4.813h-1.028l-2.999-4.673h-4.01v4.673H20.604
			z M21.493,14.457h4.341c0.395,0,0.755-0.087,1.081-0.262c0.325-0.174,0.604-0.404,0.836-0.688s0.41-0.61,0.532-0.977
			c0.122-0.366,0.183-0.741,0.183-1.125c0-0.395-0.073-0.776-0.218-1.142c-0.146-0.366-0.343-0.689-0.593-0.968
			s-0.541-0.502-0.872-0.671c-0.332-0.168-0.689-0.252-1.072-0.252h-4.219V14.457z"/>
		<path fill="#2C3E50" d="M32.04,19.949V7.588h0.89v12.361H32.04z"/>
		<path fill="#2C3E50" d="M35.754,7.57l4.725,11.262L45.186,7.57h0.941l-5.248,12.379h-0.801L34.83,7.57H35.754z"/>
		<path fill="#2C3E50" d="M56.273,19.146v0.803h-8.246V7.57h8.09v0.802h-7.201v4.864h6.295v0.767h-6.295v5.143H56.273z"/>
	</g>
	<g>
		<line fill="none" stroke="#22AD5F" stroke-miterlimit="10" x1="8" y1="24.5" x2="18" y2="24.5"/>
		<line fill="none" stroke="#C03A2B" stroke-miterlimit="10" x1="18" y1="24.5" x2="27" y2="24.5"/>
		<line fill="none" stroke="#EEC21A" stroke-miterlimit="10" x1="27" y1="24.5" x2="37" y2="24.5"/>
		<line fill="none" stroke="#3B97D2" stroke-miterlimit="10" x1="37" y1="24.5" x2="47" y2="24.5"/>
		<line fill="none" stroke="#874B9C" stroke-miterlimit="10" x1="47" y1="24.5" x2="57" y2="24.5"/>
	</g>
</g>
</svg>
