<?xml version="1.0" encoding="utf-8"?>
<!-- Generator: Adobe Illustrator 16.0.0, SVG Export Plug-In . SVG Version: 6.00 Build 0)  -->
<!DOCTYPE svg PUBLIC "-//W3C//DTD SVG 1.1//EN" "http://www.w3.org/Graphics/SVG/1.1/DTD/svg11.dtd">
<svg version="1.1" id="Layer_1" xmlns="http://www.w3.org/2000/svg" xmlns:xlink="http://www.w3.org/1999/xlink" x="0px" y="0px"
	 width="400px" height="373px" viewBox="0 0 400 373" enable-background="new 0 0 400 373" xml:space="preserve">
<g>
	<path fill="#FFFEEE" d="M0,375V181h9.5C9.771,285,95.125,371,200,371s190.229-86,190.499-190H399v194H0z"/>
	<path fill="#EEEEEE" d="M399,181v193H1V181h8.002C9.544,285.857,95.017,371,200,371c104.982,0,190.456-85.143,190.997-190H399
		 M400,180h-10c0,104.936-85.066,190-190,190C95.066,370,10,284.936,10,180H0v195h400V180L400,180z"/>
</g>
<g>
	<g>
		<g>
			<defs>
				<path id="SVGID_1_" d="M200,360c-99.411,0-180-80.59-180-180C20,80.589,100.589,0,200,0c99.41,0,180,80.589,180,180
					C380,279.41,299.41,360,200,360z"/>
			</defs>
			<clipPath id="SVGID_2_">
				<use xlink:href="#SVGID_1_"  overflow="visible"/>
			</clipPath>
			<g clip-path="url(#SVGID_2_)">
				
					<line fill="none" stroke="#BDC3C7" stroke-width="10" stroke-linecap="round" stroke-miterlimit="10" x1="26.5" y1="103.5" x2="138.838" y2="-8.838"/>
				
					<line fill="none" stroke="#BDC3C7" stroke-width="10" stroke-linecap="round" stroke-miterlimit="10" x1="97.5" y1="86.5" x2="132.669" y2="51.331"/>
				
					<line fill="none" stroke="#94A4A5" stroke-width="8" stroke-linecap="round" stroke-miterlimit="10" x1="-17.5" y1="259.5" x2="94.838" y2="147.162"/>
				
					<line fill="none" stroke="#BDC3C7" stroke-width="10" stroke-linecap="round" stroke-miterlimit="10" x1="29.5" y1="240.5" x2="69.838" y2="200.162"/>
				
					<line fill="none" stroke="#ECF0F1" stroke-width="10" stroke-linecap="round" stroke-miterlimit="10" x1="-29.5" y1="213.5" x2="82.838" y2="101.162"/>
				
					<line fill="none" stroke="#ECF0F1" stroke-width="10" stroke-linecap="round" stroke-miterlimit="10" x1="18.5" y1="139.5" x2="130.838" y2="27.162"/>
				<line fill="none" x1="38.5" y1="173.5" x2="120.838" y2="91.162"/>
				
					<line fill="none" stroke="#945BA4" stroke-width="8" stroke-linecap="round" stroke-miterlimit="10" x1="10.5" y1="287.5" x2="122.838" y2="175.162"/>
				
					<line fill="none" stroke="#945BA4" stroke-width="8" stroke-linecap="round" stroke-miterlimit="10" x1="84.5" y1="242.5" x2="113.084" y2="213.916"/>
				<line fill="#FFFFFF" x1="40.5" y1="285.5" x2="69.084" y2="256.916"/>
				
					<line fill="none" stroke="#ECF0F1" stroke-width="10" stroke-linecap="round" stroke-miterlimit="10" x1="-5.5" y1="215.5" x2="23.084" y2="186.916"/>
				
					<line fill="none" stroke="#884A9C" stroke-width="8" stroke-linecap="round" stroke-miterlimit="10" x1="51" y1="304" x2="108.084" y2="246.916"/>
				
					<line fill="none" stroke="#945BA4" stroke-width="8" stroke-linecap="round" stroke-miterlimit="10" x1="76" y1="308" x2="133.084" y2="250.916"/>
				
					<line fill="none" stroke="#ECF0F1" stroke-width="10" stroke-linecap="round" stroke-miterlimit="10" x1="80" y1="333" x2="137.084" y2="275.916"/>
				
					<line fill="none" stroke="#945BA4" stroke-width="8" stroke-linecap="round" stroke-miterlimit="10" x1="116" y1="323" x2="173.084" y2="265.916"/>
				
					<line fill="none" stroke="#945BA4" stroke-width="8" stroke-linecap="round" stroke-miterlimit="10" x1="141" y1="327" x2="198.084" y2="269.916"/>
				
					<line fill="none" stroke="#ECF0F1" stroke-width="10" stroke-linecap="round" stroke-miterlimit="10" x1="145" y1="352" x2="202.084" y2="294.916"/>
				
					<line fill="none" stroke="#945BA4" stroke-width="8" stroke-linecap="round" stroke-miterlimit="10" x1="112" y1="356.001" x2="128.838" y2="339.162"/>
				
					<line fill="none" stroke="#945BA4" stroke-width="8" stroke-linecap="round" stroke-miterlimit="10" x1="202.084" y1="322.916" x2="223.084" y2="301.916"/>
				
					<line fill="none" stroke="#945BA4" stroke-width="8" stroke-linecap="round" stroke-miterlimit="10" x1="187.5" y1="364.5" x2="348.669" y2="203.331"/>
				
					<line fill="none" stroke="#884A9C" stroke-width="8" stroke-linecap="round" stroke-miterlimit="10" x1="209.5" y1="368.5" x2="331.084" y2="246.916"/>
				<line fill="none" x1="116" y1="96" x2="249.002" y2="-37"/>
				
					<line fill="none" stroke="#ECF0F1" stroke-width="10" stroke-linecap="round" stroke-miterlimit="10" x1="246.5" y1="358.5" x2="297.292" y2="307.708"/>
				
					<line fill="none" stroke="#ECF0F1" stroke-width="10" stroke-linecap="round" stroke-miterlimit="10" x1="162.5" y1="362.5" x2="177" y2="348"/>
				
					<line fill="none" stroke="#BDC3C7" stroke-width="10" stroke-linecap="round" stroke-miterlimit="10" x1="311.584" y1="213.916" x2="361.75" y2="163.75"/>
				
					<line fill="none" stroke="#945BA4" stroke-width="8" stroke-linecap="round" stroke-miterlimit="10" x1="168.542" y1="71.458" x2="224.615" y2="15.385"/>
				
					<line fill="none" stroke="#94A4A5" stroke-width="8" stroke-linecap="round" stroke-miterlimit="10" x1="187.787" y1="337.212" x2="190.227" y2="334.773"/>
				
					<line fill="none" stroke="#BDC3C7" stroke-width="10" stroke-linecap="round" stroke-miterlimit="10" x1="166.5" y1="208.5" x2="181" y2="194"/>
				
					<line fill="none" stroke="#ECF0F1" stroke-width="10" stroke-linecap="round" stroke-miterlimit="10" x1="342.5" y1="234.5" x2="412" y2="165"/>
				
					<line fill="none" stroke="#945BA4" stroke-width="8" stroke-linecap="round" stroke-miterlimit="10" x1="147" y1="38.5" x2="216.5" y2="-31"/>
				
					<line fill="none" stroke="#ECF0F1" stroke-width="10" stroke-linecap="round" stroke-miterlimit="10" x1="198" y1="71.5" x2="267.5" y2="2"/>
				
					<line fill="none" stroke="#945BA4" stroke-width="8" stroke-linecap="round" stroke-miterlimit="10" x1="307" y1="190.5" x2="376.5" y2="121"/>
				
					<line fill="none" stroke="#ECF0F1" stroke-width="10" stroke-linecap="round" stroke-miterlimit="10" x1="341.75" y1="128.25" x2="401" y2="69"/>
				
					<line fill="none" stroke="#BDC3C7" stroke-width="10" stroke-linecap="round" stroke-miterlimit="10" x1="319.338" y1="150.66" x2="330.11" y2="139.891"/>
				
					<line fill="none" stroke="#ECF0F1" stroke-width="10" stroke-linecap="round" stroke-miterlimit="10" x1="212" y1="86.5" x2="281.5" y2="17"/>
				
					<line fill="none" stroke="#945BA4" stroke-width="8" stroke-linecap="round" stroke-miterlimit="10" x1="272" y1="56.5" x2="341.5" y2="-13"/>
				
					<line fill="none" stroke="#884A9C" stroke-width="8" stroke-linecap="round" stroke-miterlimit="10" x1="248.584" y1="111.916" x2="298.75" y2="61.75"/>
				
					<line fill="none" stroke="#ECF0F1" stroke-width="10" stroke-linecap="round" stroke-miterlimit="10" x1="312" y1="293.5" x2="381.5" y2="224"/>
				
					<line fill="none" stroke="#BDC3C7" stroke-width="10" stroke-linecap="round" stroke-miterlimit="10" x1="292.584" y1="340.916" x2="342.75" y2="290.75"/>
				
					<line fill="none" stroke="#ECF0F1" stroke-width="10" stroke-linecap="round" stroke-miterlimit="10" x1="361" y1="190.5" x2="406.5" y2="145"/>
				
					<line fill="none" stroke="#945BA4" stroke-width="8" stroke-linecap="round" stroke-miterlimit="10" x1="290" y1="100.5" x2="359.5" y2="31"/>
				
					<line fill="none" stroke="#945BA4" stroke-width="8" stroke-linecap="round" stroke-miterlimit="10" x1="356" y1="275.5" x2="425.5" y2="206"/>
				
					<line fill="none" stroke="#ECF0F1" stroke-width="10" stroke-linecap="round" stroke-miterlimit="10" x1="290" y1="127.5" x2="359.5" y2="58"/>
				
					<line fill="none" stroke="#BDC3C7" stroke-width="10" stroke-linecap="round" stroke-miterlimit="10" x1="305.584" y1="137.916" x2="355.75" y2="87.75"/>
				
					<line fill="none" stroke="#945BA4" stroke-width="8" stroke-linecap="round" stroke-miterlimit="10" x1="312" y1="49.5" x2="381.5" y2="-20"/>
				
					<line fill="none" stroke="#ECF0F1" stroke-width="10" stroke-linecap="round" stroke-miterlimit="10" x1="191" y1="138.5" x2="260.5" y2="69"/>
			</g>
			<g clip-path="url(#SVGID_2_)">
				<circle fill="#FFFFFF" cx="200" cy="180" r="125"/>
			</g>
		</g>
	</g>
	<g>
		<path fill-rule="evenodd" clip-rule="evenodd" fill="#2C3E50" d="M167.562,192.391l21.063-5.345
			c-5.751-5.345-13.912-9.094-13.912-9.094s-22.613,14.8-27.131,31.241c-1.234,0.406-2.469,0.406-3.703,0.828
			c1.641-20.16,10.689-37.008,23.442-42.353c1.219-0.406,1.641-1.641,1.641-2.875c0-1.235-0.828-2.47-1.641-2.876
			c-12.753-4.938-21.786-21.801-23.442-42.353c7.407,2.059,18.097,3.297,30.834,3.297c12.753,0,23.442-1.238,30.835-3.297
			c-1.641,20.145-10.689,37.008-23.427,42.353c-1.234,0.406-1.656,1.641-1.656,2.876c0,1.234,0.828,2.469,1.656,2.875
			c6.157,2.47,11.096,7.408,15.206,13.972l4.938-2.047c-3.704-6.58-7.814-11.518-13.159-15.222
			c12.331-8.221,20.552-26.303,21.38-46.869c2.048-0.813,3.282-2.048,3.282-3.282c0-4.517-17.676-8.221-39.056-8.221
			c-21.785,0-39.055,3.704-39.055,8.221c0,1.234,1.234,2.063,3.282,3.297c0.828,20.552,9.455,38.634,21.38,46.869
			c-12.331,8.221-20.552,26.303-21.38,46.869c-2.048,0.813-3.282,2.048-3.282,3.282c0,4.11,13.807,7.393,31.903,7.814V192.391z
			 M223.224,184.11l13.565,7.813C236.804,191.924,234.335,183.704,223.224,184.11L223.224,184.11z M222.29,199.468l-14.8-8.628
			C205.442,202.343,222.29,199.468,222.29,199.468L222.29,199.468z M260.804,188.251c0,0-7.98,4.908-18.67,9.847v7.393
			c6.173-2.876,12.753-6.174,18.504-10.283L260.804,188.251z M259.93,203.788c0,0-7.919,4.577-18.608,9.516v7.407
			c6.173-2.891,12.752-6.173,18.503-9.876L259.93,203.788z M260.623,217.173c0,0-9.847,5.586-19.724,10.524v7.393
			c5.767-2.876,14.378-7.242,19.724-10.931V217.173z M219.941,183.297l19.316,11.91c3.704-1.642,12.331-6.58,16.035-9.034
			l-20.146-11.924C235.147,174.249,228.162,179.188,219.941,183.297L219.941,183.297z M228.162,204.255
			c-9.049,3.704-18.504,6.986-27.131,8.221l-25.49-13.972v6.579l25.49,14.8c0,0,11.924-2.875,26.725-8.642L228.162,204.255z
			 M227.756,219.477c-9.049,3.688-18.504,6.986-27.146,8.221l-25.278-13.807v6.58l25.278,14.619c0,0,11.925-2.876,27.146-8.627
			V219.477z M227.349,233.855c-9.47,3.703-19.331,7.407-28.38,8.642l-23.638-13.008v6.579l23.638,13.821
			c0,0,12.752-3.282,28.38-9.033V233.855z M182.527,196.862l19.724,10.69c0,0,12.752-3.282,23.849-7.408l-19.724-11.502
			C201.031,191.097,182.527,196.862,182.527,196.862L182.527,196.862z M264.342,198.098l-2.876,1.641l2.785,0.828v11.503
			l-1.641,1.535l1.641,1.235v11.909c0,0-32.807,21.5-66.924,27.251l-26.573-15.869v-11.909l1.912-1.821l-1.747-1.883v-12.33
			l2.153-0.588l-2.063-2.047v-12.331c0,0,32.49-6.173,63.731-25.911l29.601,16.862V198.098z M175.12,158.214
			c0,0-4.517-3.703-10.269-9.455c14.8-3.297,26.725-10.283,33.304-19.332C191.576,145.462,175.12,158.214,175.12,158.214
			L175.12,158.214z M175.12,158.214"/>
	</g>
</g>
</svg>
