<?xml version="1.0" encoding="utf-8"?>
<!-- Generator: Adobe Illustrator 16.0.0, SVG Export Plug-In . SVG Version: 6.00 Build 0)  -->
<!DOCTYPE svg PUBLIC "-//W3C//DTD SVG 1.1//EN" "http://www.w3.org/Graphics/SVG/1.1/DTD/svg11.dtd">
<svg version="1.1" id="Layer_1" xmlns="http://www.w3.org/2000/svg" xmlns:xlink="http://www.w3.org/1999/xlink" x="0px" y="0px"
	 width="360px" height="360px" viewBox="0 0 360 360" enable-background="new 0 0 360 360" xml:space="preserve">
<g>
	<g>
		<g>
			<defs>
				<path id="SVGID_1_" d="M180,360C80.589,360,0,279.41,0,180C0,80.589,80.589,0,180,0c99.41,0,180,80.589,180,180
					C360,279.41,279.41,360,180,360z"/>
			</defs>
			<clipPath id="SVGID_2_">
				<use xlink:href="#SVGID_1_"  overflow="visible"/>
			</clipPath>
			<g clip-path="url(#SVGID_2_)">
				
					<line fill="none" stroke="#BDC3C7" stroke-width="10" stroke-linecap="round" stroke-miterlimit="10" x1="6.5" y1="103.5" x2="118.838" y2="-8.838"/>
				
					<line fill="none" stroke="#BDC3C7" stroke-width="10" stroke-linecap="round" stroke-miterlimit="10" x1="77.5" y1="86.5" x2="112.669" y2="51.331"/>
				
					<line fill="none" stroke="#94A4A5" stroke-width="8" stroke-linecap="round" stroke-miterlimit="10" x1="-37.5" y1="259.5" x2="74.838" y2="147.162"/>
				
					<line fill="none" stroke="#BDC3C7" stroke-width="10" stroke-linecap="round" stroke-miterlimit="10" x1="9.5" y1="240.5" x2="49.838" y2="200.162"/>
				
					<line fill="none" stroke="#ECF0F1" stroke-width="10" stroke-linecap="round" stroke-miterlimit="10" x1="-49.5" y1="213.5" x2="62.838" y2="101.162"/>
				
					<line fill="none" stroke="#ECF0F1" stroke-width="10" stroke-linecap="round" stroke-miterlimit="10" x1="-1.5" y1="139.5" x2="110.838" y2="27.162"/>
				
					<line fill="none" stroke="#BDC3C7" stroke-width="10" stroke-linecap="round" stroke-miterlimit="10" x1="18.5" y1="173.5" x2="100.838" y2="91.162"/>
				
					<line fill="none" stroke="#945BA4" stroke-width="8" stroke-linecap="round" stroke-miterlimit="10" x1="-9.5" y1="287.5" x2="102.838" y2="175.162"/>
				
					<line fill="none" stroke="#945BA4" stroke-width="8" stroke-linecap="round" stroke-miterlimit="10" x1="64.5" y1="242.5" x2="93.084" y2="213.916"/>
				
					<line fill="none" stroke="#ECF0F1" stroke-width="10" stroke-linecap="round" stroke-miterlimit="10" x1="20.5" y1="285.5" x2="49.084" y2="256.916"/>
				
					<line fill="none" stroke="#ECF0F1" stroke-width="10" stroke-linecap="round" stroke-miterlimit="10" x1="-25.5" y1="215.5" x2="3.084" y2="186.916"/>
				
					<line fill="none" stroke="#884A9C" stroke-width="8" stroke-linecap="round" stroke-miterlimit="10" x1="31" y1="304" x2="88.084" y2="246.916"/>
				
					<line fill="none" stroke="#945BA4" stroke-width="8" stroke-linecap="round" stroke-miterlimit="10" x1="56" y1="308" x2="113.084" y2="250.916"/>
				
					<line fill="none" stroke="#ECF0F1" stroke-width="10" stroke-linecap="round" stroke-miterlimit="10" x1="60" y1="333" x2="117.084" y2="275.916"/>
				
					<line fill="none" stroke="#945BA4" stroke-width="8" stroke-linecap="round" stroke-miterlimit="10" x1="96" y1="323" x2="153.084" y2="265.916"/>
				
					<line fill="none" stroke="#945BA4" stroke-width="8" stroke-linecap="round" stroke-miterlimit="10" x1="121" y1="327" x2="178.084" y2="269.916"/>
				
					<line fill="none" stroke="#ECF0F1" stroke-width="10" stroke-linecap="round" stroke-miterlimit="10" x1="125" y1="352" x2="182.084" y2="294.916"/>
				
					<line fill="none" stroke="#945BA4" stroke-width="8" stroke-linecap="round" stroke-miterlimit="10" x1="92" y1="356.001" x2="108.838" y2="339.162"/>
				
					<line fill="none" stroke="#945BA4" stroke-width="8" stroke-linecap="round" stroke-miterlimit="10" x1="182.084" y1="322.916" x2="203.084" y2="301.916"/>
				
					<line fill="none" stroke="#945BA4" stroke-width="8" stroke-linecap="round" stroke-miterlimit="10" x1="167.5" y1="364.5" x2="328.669" y2="203.331"/>
				
					<line fill="none" stroke="#884A9C" stroke-width="8" stroke-linecap="round" stroke-miterlimit="10" x1="189.5" y1="368.5" x2="311.084" y2="246.916"/>
				
					<line fill="none" stroke="#ECF0F1" stroke-width="10" stroke-linecap="round" stroke-miterlimit="10" x1="119.193" y1="72.808" x2="229.002" y2="-37"/>
				
					<line fill="none" stroke="#ECF0F1" stroke-width="10" stroke-linecap="round" stroke-miterlimit="10" x1="226.5" y1="358.5" x2="277.292" y2="307.708"/>
				
					<line fill="none" stroke="#ECF0F1" stroke-width="10" stroke-linecap="round" stroke-miterlimit="10" x1="142.5" y1="362.5" x2="157" y2="348"/>
				
					<line fill="none" stroke="#BDC3C7" stroke-width="10" stroke-linecap="round" stroke-miterlimit="10" x1="291.584" y1="213.916" x2="341.75" y2="163.75"/>
				
					<line fill="none" stroke="#945BA4" stroke-width="8" stroke-linecap="round" stroke-miterlimit="10" x1="148.542" y1="71.458" x2="204.615" y2="15.385"/>
				
					<line fill="none" stroke="#94A4A5" stroke-width="8" stroke-linecap="round" stroke-miterlimit="10" x1="167.787" y1="337.212" x2="170.227" y2="334.773"/>
				
					<line fill="none" stroke="#BDC3C7" stroke-width="10" stroke-linecap="round" stroke-miterlimit="10" x1="146.5" y1="208.5" x2="161" y2="194"/>
				
					<line fill="none" stroke="#ECF0F1" stroke-width="10" stroke-linecap="round" stroke-miterlimit="10" x1="322.5" y1="234.5" x2="392" y2="165"/>
				
					<line fill="none" stroke="#945BA4" stroke-width="8" stroke-linecap="round" stroke-miterlimit="10" x1="127" y1="38.5" x2="196.5" y2="-31"/>
				
					<line fill="none" stroke="#ECF0F1" stroke-width="10" stroke-linecap="round" stroke-miterlimit="10" x1="178" y1="71.5" x2="247.5" y2="2"/>
				
					<line fill="none" stroke="#945BA4" stroke-width="8" stroke-linecap="round" stroke-miterlimit="10" x1="287" y1="190.5" x2="356.5" y2="121"/>
				
					<line fill="none" stroke="#ECF0F1" stroke-width="10" stroke-linecap="round" stroke-miterlimit="10" x1="321.75" y1="128.25" x2="381" y2="69"/>
				
					<line fill="none" stroke="#BDC3C7" stroke-width="10" stroke-linecap="round" stroke-miterlimit="10" x1="299.338" y1="150.66" x2="310.11" y2="139.891"/>
				
					<line fill="none" stroke="#ECF0F1" stroke-width="10" stroke-linecap="round" stroke-miterlimit="10" x1="192" y1="86.5" x2="261.5" y2="17"/>
				
					<line fill="none" stroke="#945BA4" stroke-width="8" stroke-linecap="round" stroke-miterlimit="10" x1="252" y1="56.5" x2="321.5" y2="-13"/>
				
					<line fill="none" stroke="#884A9C" stroke-width="8" stroke-linecap="round" stroke-miterlimit="10" x1="228.584" y1="111.916" x2="278.75" y2="61.75"/>
				
					<line fill="none" stroke="#ECF0F1" stroke-width="10" stroke-linecap="round" stroke-miterlimit="10" x1="292" y1="293.5" x2="361.5" y2="224"/>
				
					<line fill="none" stroke="#BDC3C7" stroke-width="10" stroke-linecap="round" stroke-miterlimit="10" x1="272.584" y1="340.916" x2="322.75" y2="290.75"/>
				
					<line fill="none" stroke="#ECF0F1" stroke-width="10" stroke-linecap="round" stroke-miterlimit="10" x1="341" y1="190.5" x2="386.5" y2="145"/>
				
					<line fill="none" stroke="#945BA4" stroke-width="8" stroke-linecap="round" stroke-miterlimit="10" x1="270" y1="100.5" x2="339.5" y2="31"/>
				
					<line fill="none" stroke="#945BA4" stroke-width="8" stroke-linecap="round" stroke-miterlimit="10" x1="336" y1="275.5" x2="405.5" y2="206"/>
				
					<line fill="none" stroke="#ECF0F1" stroke-width="10" stroke-linecap="round" stroke-miterlimit="10" x1="270" y1="127.5" x2="339.5" y2="58"/>
				
					<line fill="none" stroke="#BDC3C7" stroke-width="10" stroke-linecap="round" stroke-miterlimit="10" x1="285.584" y1="137.916" x2="335.75" y2="87.75"/>
				
					<line fill="none" stroke="#945BA4" stroke-width="8" stroke-linecap="round" stroke-miterlimit="10" x1="292" y1="49.5" x2="361.5" y2="-20"/>
				
					<line fill="none" stroke="#ECF0F1" stroke-width="10" stroke-linecap="round" stroke-miterlimit="10" x1="171" y1="138.5" x2="240.5" y2="69"/>
			</g>
			<g clip-path="url(#SVGID_2_)">
				<circle fill="#FFFFFF" cx="180" cy="180" r="125"/>
			</g>
		</g>
	</g>
	<g>
		<path fill-rule="evenodd" clip-rule="evenodd" fill="#2C3E50" d="M147.562,192.391l21.063-5.345
			c-5.751-5.345-13.912-9.094-13.912-9.094s-22.613,14.8-27.131,31.241c-1.234,0.406-2.469,0.406-3.703,0.828
			c1.641-20.16,10.689-37.008,23.442-42.353c1.219-0.406,1.641-1.641,1.641-2.875c0-1.235-0.828-2.47-1.641-2.876
			c-12.753-4.938-21.786-21.801-23.442-42.353c7.407,2.059,18.097,3.297,30.834,3.297c12.753,0,23.442-1.238,30.835-3.297
			c-1.641,20.145-10.689,37.008-23.427,42.353c-1.234,0.406-1.656,1.641-1.656,2.876c0,1.234,0.828,2.469,1.656,2.875
			c6.157,2.47,11.096,7.408,15.206,13.972l4.938-2.047c-3.704-6.58-7.814-11.518-13.159-15.222
			c12.331-8.221,20.552-26.303,21.38-46.869c2.048-0.813,3.282-2.048,3.282-3.282c0-4.517-17.676-8.221-39.056-8.221
			c-21.785,0-39.055,3.704-39.055,8.221c0,1.234,1.234,2.063,3.282,3.297c0.828,20.552,9.455,38.634,21.38,46.869
			c-12.331,8.221-20.552,26.303-21.38,46.869c-2.048,0.813-3.282,2.048-3.282,3.282c0,4.11,13.807,7.393,31.903,7.814V192.391z
			 M203.224,184.11l13.565,7.813C216.804,191.924,214.335,183.704,203.224,184.11L203.224,184.11z M202.29,199.468l-14.8-8.628
			C185.442,202.343,202.29,199.468,202.29,199.468L202.29,199.468z M240.804,188.251c0,0-7.98,4.908-18.67,9.847v7.393
			c6.173-2.876,12.753-6.174,18.504-10.283L240.804,188.251z M239.93,203.788c0,0-7.919,4.577-18.608,9.516v7.407
			c6.173-2.891,12.752-6.173,18.503-9.876L239.93,203.788z M240.623,217.173c0,0-9.847,5.586-19.724,10.524v7.393
			c5.767-2.876,14.378-7.242,19.724-10.931V217.173z M199.941,183.297l19.316,11.91c3.704-1.642,12.331-6.58,16.035-9.034
			l-20.146-11.924C215.147,174.249,208.162,179.188,199.941,183.297L199.941,183.297z M208.162,204.255
			c-9.049,3.704-18.504,6.986-27.131,8.221l-25.49-13.972v6.579l25.49,14.8c0,0,11.924-2.875,26.725-8.642L208.162,204.255z
			 M207.756,219.477c-9.049,3.688-18.504,6.986-27.146,8.221l-25.278-13.807v6.58l25.278,14.619c0,0,11.925-2.876,27.146-8.627
			V219.477z M207.349,233.855c-9.47,3.703-19.331,7.407-28.38,8.642l-23.638-13.008v6.579l23.638,13.821
			c0,0,12.752-3.282,28.38-9.033V233.855z M162.527,196.862l19.724,10.69c0,0,12.752-3.282,23.849-7.408l-19.724-11.502
			C181.031,191.097,162.527,196.862,162.527,196.862L162.527,196.862z M244.342,198.098l-2.876,1.641l2.785,0.828v11.503
			l-1.641,1.535l1.641,1.235v11.909c0,0-32.807,21.5-66.924,27.251l-26.573-15.869v-11.909l1.912-1.821l-1.747-1.883v-12.33
			l2.153-0.588l-2.063-2.047v-12.331c0,0,32.49-6.173,63.731-25.911l29.601,16.862V198.098z M155.12,158.214
			c0,0-4.517-3.703-10.269-9.455c14.8-3.297,26.725-10.283,33.304-19.332C171.576,145.462,155.12,158.214,155.12,158.214
			L155.12,158.214z M155.12,158.214"/>
	</g>
</g>
</svg>
