<?xml version="1.0" encoding="utf-8"?>
<!-- Generator: Adobe Illustrator 16.0.0, SVG Export Plug-In . SVG Version: 6.00 Build 0)  -->
<!DOCTYPE svg PUBLIC "-//W3C//DTD SVG 1.1//EN" "http://www.w3.org/Graphics/SVG/1.1/DTD/svg11.dtd">
<svg version="1.1" id="Layer_1" xmlns="http://www.w3.org/2000/svg" xmlns:xlink="http://www.w3.org/1999/xlink" x="0px" y="0px"
	 width="200px" height="50px" viewBox="-48 48 200 50" enable-background="new -48 48 200 50" xml:space="preserve">
<g>
	<rect x="-48" y="73" fill="#FDFDFD" width="200" height="25"/>
	<g>
		<polygon fill="#FFFFFF" points="112.031,81 52.076,93 52.076,73 152,73 		"/>
		<polygon fill="#FFFFFF" points="-7.878,81 52.076,93 52.076,73 -47.847,73 		"/>
		<line fill="none" stroke="#EEEEEE" stroke-miterlimit="10" x1="152" y1="73" x2="52.076" y2="93"/>
		<line fill="none" stroke="#EEEEEE" stroke-miterlimit="10" x1="52.076" y1="93" x2="-47.847" y2="73"/>
	</g>
</g>
<g>
	<rect x="-47.924" y="48" fill="#FFFFFF" width="200" height="25"/>
	<g>
		<polygon fill="#FDFDFD" points="112.138,56 52.229,68 52.229,48 152.076,48 		"/>
		<polygon fill="#FDFDFD" points="-7.68,56 52.229,68 52.229,48 -47.618,48 		"/>
		<line fill="none" stroke="#EEEEEE" stroke-miterlimit="10" x1="152.076" y1="48" x2="52.229" y2="68"/>
		<line fill="none" stroke="#EEEEEE" stroke-miterlimit="10" x1="52.229" y1="68" x2="-47.618" y2="48"/>
	</g>
</g>
</svg>
