<?xml version="1.0" encoding="utf-8"?>
<!-- Generator: Adobe Illustrator 16.0.0, SVG Export Plug-In . SVG Version: 6.00 Build 0)  -->
<!DOCTYPE svg PUBLIC "-//W3C//DTD SVG 1.1//EN" "http://www.w3.org/Graphics/SVG/1.1/DTD/svg11.dtd">
<svg version="1.1" id="Layer_1" xmlns="http://www.w3.org/2000/svg" xmlns:xlink="http://www.w3.org/1999/xlink" x="0px" y="0px"
	 width="160px" height="60px" viewBox="0 0 160 60" enable-background="new 0 0 160 60" xml:space="preserve">
<g opacity="0.25">
	<g>
		
			<line opacity="0.75" fill="none" stroke="#DDDDDD" stroke-width="20" stroke-miterlimit="10" enable-background="new    " x1="45" y1="20" x2="45" y2="61"/>
		
			<line opacity="0.75" fill="none" stroke="#CCCCCC" stroke-width="20" stroke-miterlimit="10" enable-background="new    " x1="65" y1="20" x2="65" y2="61"/>
	</g>
	<rect x="104.5" y="-38.5" fill="#FFFFFF" width="40" height="20"/>
	<g>
		<polygon fill="#FFFFFF" points="67,28 55,40 55,20 75,20 		"/>
		<polygon fill="#FFFFFF" points="43,28 55,40 55,20 35,20 		"/>
		<g>
			<polygon fill="#FFFFFF" points="63,52 55,60 75,60 75,40 			"/>
			<polygon fill="#FFFFFF" points="35,40 35,60 55,60 47,52 			"/>
		</g>
	</g>
	<g>
		<polygon opacity="0.85" fill="#CCCCCC" enable-background="new    " points="67,48 55,60 55,40 75,40 		"/>
		<polygon opacity="0.85" fill="#DDDDDD" enable-background="new    " points="43,48 55,60 55,40 35,40 		"/>
	</g>
	<g>
		<polygon fill="#FFFFFF" points="223,33 211,45 211,25 231,25 		"/>
		<polygon fill="#FFFFFF" points="199,33 211,45 211,25 191,25 		"/>
	</g>
</g>
<g>
	<polygon opacity="0.85" fill="#33485D" enable-background="new    " points="67,8 55,20 55,0 75,0 	"/>
	<polygon opacity="0.85" fill="#56799C" enable-background="new    " points="43,8 55,20 55,0 35,0 	"/>
</g>
</svg>
