<?xml version="1.0" encoding="utf-8"?>
<!-- Generator: Adobe Illustrator 16.0.0, SVG Export Plug-In . SVG Version: 6.00 Build 0)  -->
<!DOCTYPE svg PUBLIC "-//W3C//DTD SVG 1.1//EN" "http://www.w3.org/Graphics/SVG/1.1/DTD/svg11.dtd">
<svg version="1.1" id="Layer_1" xmlns="http://www.w3.org/2000/svg" xmlns:xlink="http://www.w3.org/1999/xlink" x="0px" y="0px"
	 width="400px" height="180px" viewBox="-240 0 400 180" enable-background="new -240 0 400 180" xml:space="preserve">
<g opacity="0.25">
	<g>
		
			<line opacity="0.75" fill="none" stroke="#CCCCCC" stroke-width="20" stroke-miterlimit="10" enable-background="new    " x1="105" y1="0" x2="105" y2="70"/>
		
			<line opacity="0.75" fill="none" stroke="#DDDDDD" stroke-width="20" stroke-miterlimit="10" enable-background="new    " x1="125" y1="0" x2="125" y2="70"/>
	</g>
	<rect x="95" fill="#FFFFFF" width="40" height="20"/>
	<g>
		<polygon fill="#FFFFFF" points="127,8 115,20 115,0 135,0 		"/>
		<polygon fill="#FFFFFF" points="103,8 115,20 115,0 95,0 		"/>
	</g>
	<g>
		<polygon opacity="0.85" fill="#BBBBBB" enable-background="new    " points="127,78 115,90 115,70 135,70 		"/>
		<polygon opacity="0.75" fill="#BBBBBB" enable-background="new    " points="103,82 115,70 95,70 95,90 		"/>
		<polygon opacity="0.85" fill="#BBBBBB" enable-background="new    " points="107.25,98 95.25,110 95.25,90 115.25,90 		"/>
		<polygon opacity="0.85" fill="#BBBBBB" enable-background="new    " points="115,70 115,90 95,90 107,78 		"/>
	</g>
	<g>
		<polygon fill="#FFFFFF" points="127,28 115,40 115,20 135,20 		"/>
		<polygon fill="#FFFFFF" points="103,28 115,40 115,20 95,20 		"/>
	</g>
	<g>
		
			<line opacity="0.75" fill="none" stroke="#DDDDDD" stroke-width="20" stroke-miterlimit="10" enable-background="new    " x1="95.75" y1="80" x2="-240" y2="80"/>
		
			<line opacity="0.75" fill="none" stroke="#CCCCCC" stroke-width="20" stroke-miterlimit="10" enable-background="new    " x1="95.75" y1="100" x2="-240" y2="100"/>
	</g>
</g>
<g>
	<polygon opacity="0.85" fill="#CCCCCC" enable-background="new    " points="127,8 115,20 115,0 135,0 	"/>
	<polygon opacity="0.85" fill="#DDDDDD" enable-background="new    " points="103,8 115,20 115,0 95,0 	"/>
</g>
</svg>
