<?xml version="1.0" encoding="utf-8"?>
<!-- Generator: Adobe Illustrator 16.0.0, SVG Export Plug-In . SVG Version: 6.00 Build 0)  -->
<!DOCTYPE svg PUBLIC "-//W3C//DTD SVG 1.1//EN" "http://www.w3.org/Graphics/SVG/1.1/DTD/svg11.dtd">
<svg version="1.1" id="Layer_1" xmlns="http://www.w3.org/2000/svg" xmlns:xlink="http://www.w3.org/1999/xlink" x="0px" y="0px"
	 width="80px" height="120px" viewBox="0 0 80 120" enable-background="new 0 0 80 120" xml:space="preserve">
<rect x="16" fill="#FFFFFF" width="40" height="55"/>
<g>
	<g>
		
			<line opacity="0.75" fill="none" stroke="#56799C" stroke-width="20" stroke-miterlimit="10" enable-background="new    " x1="25" y1="0" x2="25" y2="60"/>
		
			<line opacity="0.75" fill="none" stroke="#33485D" stroke-width="20" stroke-miterlimit="10" enable-background="new    " x1="45" y1="0" x2="45" y2="60"/>
	</g>
	<polygon fill="#FFFFFF" points="35,0 15,0 23,8 35,20 47,8 55,0 	"/>
	<g>
		<polygon opacity="0.85" fill="#33485D" enable-background="new    " points="47,68 35,80 35,60 55,60 		"/>
		<polygon opacity="0.85" fill="#56799C" enable-background="new    " points="23,68 35,80 35,60 15,60 		"/>
	</g>
</g>
<polygon fill="#FFFFFF" points="15,0 15,20 23,28 35,40 47,28 55,20 55,0 "/>
<g>
	<polygon opacity="0.25" fill="#CCCCCC" enable-background="new    " points="47,8 35,20 35,0 55,0 	"/>
	<polygon opacity="0.25" fill="#DDDDDD" enable-background="new    " points="23,8 35,20 35,0 15,0 	"/>
</g>
</svg>
