<?xml version="1.0" encoding="utf-8"?>
<!-- Generator: Adobe Illustrator 16.0.0, SVG Export Plug-In . SVG Version: 6.00 Build 0)  -->
<!DOCTYPE svg PUBLIC "-//W3C//DTD SVG 1.1//EN" "http://www.w3.org/Graphics/SVG/1.1/DTD/svg11.dtd">
<svg version="1.1" id="Layer_1" xmlns="http://www.w3.org/2000/svg" xmlns:xlink="http://www.w3.org/1999/xlink" x="0px" y="0px"
	 width="661.833px" height="60px" viewBox="0 0 661.833 60" enable-background="new 0 0 661.833 60" xml:space="preserve">
<rect x="-23.333" y="-50.333" fill="#FFFFFF" width="40" height="20"/>
<g opacity="0.25">
	<g>
		<polygon opacity="0.85" fill="#CCCCCC" enable-background="new    " points="84.334,-28.667 72.333,-16.667 72.333,-36.667 
			92.334,-36.667 		"/>
		<polygon opacity="0.85" fill="#DDDDDD" enable-background="new    " points="60.333,-28.667 72.333,-16.667 72.333,-36.667 
			52.333,-36.667 		"/>
	</g>
</g>
<g opacity="0.25">
	
		<line opacity="0.85" fill="none" stroke="#DDDDDD" stroke-width="20" stroke-miterlimit="10" enable-background="new    " x1="663.332" y1="30" x2="55" y2="30"/>
	
		<line opacity="0.85" fill="none" stroke="#CCCCCC" stroke-width="20" stroke-miterlimit="10" enable-background="new    " x1="663.332" y1="50" x2="55" y2="50"/>
</g>
<g>
	<g>
		<polygon fill="#FFFFFF" points="51,36 75,60 35,60 35,20 		"/>
		<polygon opacity="0.85" fill="#DDDDDD" fill-opacity="0.25" enable-background="new    " points="55,40 55,20 35,20 47,32 		"/>
	</g>
</g>
<g opacity="0.25">
	
		<line opacity="0.85" fill="none" stroke="#DDDDDD" stroke-width="20" stroke-miterlimit="10" enable-background="new    " x1="45" y1="0" x2="45" y2="20"/>
	
		<line opacity="0.85" fill="none" stroke="#CCCCCC" stroke-width="20" stroke-miterlimit="10" enable-background="new    " x1="65" y1="0" x2="65" y2="20"/>
</g>
<polygon fill="#FFFFFF" points="143.667,-36.667 123.667,-36.667 131.667,-28.667 143.667,-16.667 155.667,-28.667 163.667,-36.667 
	"/>
</svg>
