<?xml version="1.0" encoding="utf-8"?>
<!-- Generator: Adobe Illustrator 16.0.0, SVG Export Plug-In . SVG Version: 6.00 Build 0)  -->
<!DOCTYPE svg PUBLIC "-//W3C//DTD SVG 1.1//EN" "http://www.w3.org/Graphics/SVG/1.1/DTD/svg11.dtd">
<svg version="1.1" id="Layer_1" xmlns="http://www.w3.org/2000/svg" xmlns:xlink="http://www.w3.org/1999/xlink" x="0px" y="0px"
	 width="80px" height="120px" viewBox="0 0 80 120" enable-background="new 0 0 80 120" xml:space="preserve">
<rect x="16" fill="#FFFFFF" width="40" height="74"/>
<g>
	<g opacity="0.25">
		<g>
			
				<line opacity="0.75" fill="none" stroke="#CCCCCC" stroke-width="20" stroke-miterlimit="10" enable-background="new    " x1="26" y1="0" x2="26" y2="74"/>
			
				<line opacity="0.75" fill="none" stroke="#DDDDDD" stroke-width="20" stroke-miterlimit="10" enable-background="new    " x1="46" y1="0" x2="46" y2="74"/>
		</g>
		<rect x="16" fill="#FFFFFF" width="40" height="20"/>
		<g>
			<polygon fill="#FFFFFF" points="48,8 36,20 36,0 56,0 			"/>
			<polygon fill="#FFFFFF" points="24,8 36,20 36,0 16,0 			"/>
		</g>
		<g>
			<polygon fill="#FFFFFF" points="48,28 36,40 36,20 56,20 			"/>
			<polygon fill="#FFFFFF" points="24,28 36,40 36,20 16,20 			"/>
		</g>
	</g>
	<g>
		<polygon opacity="0.85" fill="#CCCCCC" enable-background="new    " points="48,8 36,20 36,0 56,0 		"/>
		<polygon opacity="0.85" fill="#DDDDDD" enable-background="new    " points="24,8 36,20 36,0 16,0 		"/>
	</g>
</g>
<rect x="16" y="74" fill="#FDFDFD" width="40" height="46"/>
<line fill="none" stroke="#EEEEEE" stroke-miterlimit="10" x1="16" y1="74" x2="56" y2="74"/>
</svg>
