<?xml version="1.0" encoding="utf-8"?>
<!-- Generator: Adobe Illustrator 16.0.0, SVG Export Plug-In . SVG Version: 6.00 Build 0)  -->
<!DOCTYPE svg PUBLIC "-//W3C//DTD SVG 1.1//EN" "http://www.w3.org/Graphics/SVG/1.1/DTD/svg11.dtd">
<svg version="1.1" id="Layer_1" xmlns="http://www.w3.org/2000/svg" xmlns:xlink="http://www.w3.org/1999/xlink" x="0px" y="0px"
	 width="500px" height="110px" viewBox="-123.5 0 500 110" enable-background="new -123.5 0 500 110" xml:space="preserve">
<rect x="311" fill="#FFFFFF" width="41.5" height="110"/>
<g>
	<g opacity="0.25">
		<g>
			
				<line opacity="0.75" fill="none" stroke="#CCCCCC" stroke-width="20" stroke-miterlimit="10" enable-background="new    " x1="321" y1="0" x2="321" y2="70"/>
			
				<line opacity="0.75" fill="none" stroke="#DDDDDD" stroke-width="20" stroke-miterlimit="10" enable-background="new    " x1="341" y1="0" x2="341" y2="70"/>
		</g>
		<rect x="311" fill="#FFFFFF" width="40" height="20"/>
		<g>
			<polygon fill="#FFFFFF" points="343,8 331,20 331,0 351,0 			"/>
			<polygon fill="#FFFFFF" points="319,8 331,20 331,0 311,0 			"/>
		</g>
		<g>
			<polygon opacity="0.85" fill="#BBBBBB" enable-background="new    " points="343,78 331,90 331,70 351,70 			"/>
			<polygon opacity="0.75" fill="#BBBBBB" enable-background="new    " points="319,82 331,70 311,70 311,90 			"/>
			<polygon opacity="0.85" fill="#BBBBBB" enable-background="new    " points="323.25,98 311.25,110 311.25,90 331.25,90 			"/>
			<polygon opacity="0.85" fill="#BBBBBB" enable-background="new    " points="331,70 331,90 311,90 323,78 			"/>
		</g>
		<g>
			<polygon fill="#FFFFFF" points="343,28 331,40 331,20 351,20 			"/>
			<polygon fill="#FFFFFF" points="319,28 331,40 331,20 311,20 			"/>
		</g>
		<g>
			
				<line opacity="0.75" fill="none" stroke="#DDDDDD" stroke-width="20" stroke-miterlimit="10" enable-background="new    " x1="311.75" y1="80" x2="-123.25" y2="80"/>
			
				<line opacity="0.75" fill="none" stroke="#CCCCCC" stroke-width="20" stroke-miterlimit="10" enable-background="new    " x1="311.75" y1="100" x2="-123.25" y2="100"/>
		</g>
	</g>
	<g>
		<polygon opacity="0.85" fill="#CCCCCC" enable-background="new    " points="343,8 331,20 331,0 351,0 		"/>
		<polygon opacity="0.85" fill="#DDDDDD" enable-background="new    " points="319,8 331,20 331,0 311,0 		"/>
	</g>
</g>
</svg>
