<?xml version="1.0" encoding="utf-8"?>
<!-- Generator: Adobe Illustrator 16.0.0, SVG Export Plug-In . SVG Version: 6.00 Build 0)  -->
<!DOCTYPE svg PUBLIC "-//W3C//DTD SVG 1.1//EN" "http://www.w3.org/Graphics/SVG/1.1/DTD/svg11.dtd">
<svg version="1.1" id="Layer_1" xmlns="http://www.w3.org/2000/svg" xmlns:xlink="http://www.w3.org/1999/xlink" x="0px" y="0px"
	 width="160px" height="360px" viewBox="0 0 160 360" enable-background="new 0 0 160 360" xml:space="preserve">
<g opacity="0.25">
	<g>
		
			<line opacity="0.75" fill="none" stroke="#DDDDDD" stroke-width="20" stroke-miterlimit="10" enable-background="new    " x1="45" y1="20" x2="45" y2="360"/>
		
			<line opacity="0.75" fill="none" stroke="#CCCCCC" stroke-width="20" stroke-miterlimit="10" enable-background="new    " x1="65" y1="20" x2="65" y2="360"/>
	</g>
	<rect x="35" y="320" fill="#FFFFFF" width="40" height="20"/>
	<g>
		<polygon fill="#FFFFFF" points="67,28 55,40 55,20 75,20 		"/>
		<polygon fill="#FFFFFF" points="43,28 55,40 55,20 35,20 		"/>
	</g>
	<g>
		<polygon opacity="0.85" fill="#CCCCCC" enable-background="new    " points="67,328 55,340 55,320 75,320 		"/>
		<polygon opacity="0.85" fill="#DDDDDD" enable-background="new    " points="43,328 55,340 55,320 35,320 		"/>
	</g>
	<g>
		<polygon fill="#FFFFFF" points="67,348 55,360 55,340 75,340 		"/>
		<polygon fill="#FFFFFF" points="43,348 55,360 55,340 35,340 		"/>
	</g>
</g>
</svg>
