<?xml version="1.0" encoding="utf-8"?>
<!-- Generator: Adobe Illustrator 16.0.0, SVG Export Plug-In . SVG Version: 6.00 Build 0)  -->
<!DOCTYPE svg PUBLIC "-//W3C//DTD SVG 1.1//EN" "http://www.w3.org/Graphics/SVG/1.1/DTD/svg11.dtd">
<svg version="1.1" id="Layer_1" xmlns="http://www.w3.org/2000/svg" xmlns:xlink="http://www.w3.org/1999/xlink" x="0px" y="0px"
	 width="400px" height="110px" viewBox="0 0 400 110" enable-background="new 0 0 400 110" xml:space="preserve">
<rect x="333.5" fill="#FFFFFF" width="41.5" height="110"/>
<g>
	<g opacity="0.25">
		<g>
			
				<line opacity="0.75" fill="none" stroke="#CCCCCC" stroke-width="20" stroke-miterlimit="10" enable-background="new    " x1="343.5" y1="0" x2="343.5" y2="70"/>
			
				<line opacity="0.75" fill="none" stroke="#DDDDDD" stroke-width="20" stroke-miterlimit="10" enable-background="new    " x1="363.5" y1="0" x2="363.5" y2="70"/>
		</g>
		<rect x="333.5" fill="#FFFFFF" width="40" height="20"/>
		<g>
			<polygon fill="#FFFFFF" points="365.5,8 353.5,20 353.5,0 373.5,0 			"/>
			<polygon fill="#FFFFFF" points="341.5,8 353.5,20 353.5,0 333.5,0 			"/>
		</g>
		<g>
			<polygon opacity="0.85" fill="#BBBBBB" enable-background="new    " points="365.5,78 353.5,90 353.5,70 373.5,70 			"/>
			<polygon opacity="0.75" fill="#BBBBBB" enable-background="new    " points="341.5,82 353.5,70 333.5,70 333.5,90 			"/>
			<polygon opacity="0.85" fill="#BBBBBB" enable-background="new    " points="345.75,98 333.75,110 333.75,90 353.75,90 			"/>
			<polygon opacity="0.85" fill="#BBBBBB" enable-background="new    " points="353.5,70 353.5,90 333.5,90 345.5,78 			"/>
		</g>
		<g>
			<polygon fill="#FFFFFF" points="365.5,28 353.5,40 353.5,20 373.5,20 			"/>
			<polygon fill="#FFFFFF" points="341.5,28 353.5,40 353.5,20 333.5,20 			"/>
		</g>
		<g>
			
				<line opacity="0.75" fill="none" stroke="#DDDDDD" stroke-width="20" stroke-miterlimit="10" enable-background="new    " x1="334.25" y1="80" x2="-1.25" y2="80"/>
			
				<line opacity="0.75" fill="none" stroke="#CCCCCC" stroke-width="20" stroke-miterlimit="10" enable-background="new    " x1="334.25" y1="100" x2="-1.25" y2="100"/>
		</g>
	</g>
	<g>
		<polygon opacity="0.85" fill="#CCCCCC" enable-background="new    " points="365.5,8 353.5,20 353.5,0 373.5,0 		"/>
		<polygon opacity="0.85" fill="#DDDDDD" enable-background="new    " points="341.5,8 353.5,20 353.5,0 333.5,0 		"/>
	</g>
</g>
</svg>
