<?xml version="1.0" encoding="utf-8"?>
<!-- Generator: Adobe Illustrator 16.0.0, SVG Export Plug-In . SVG Version: 6.00 Build 0)  -->
<!DOCTYPE svg PUBLIC "-//W3C//DTD SVG 1.1//EN" "http://www.w3.org/Graphics/SVG/1.1/DTD/svg11.dtd">
<svg version="1.1" id="Layer_1" xmlns="http://www.w3.org/2000/svg" xmlns:xlink="http://www.w3.org/1999/xlink" x="0px" y="0px"
	 width="360px" height="360px" viewBox="0 0 360 360" enable-background="new 0 0 360 360" xml:space="preserve">
<g>
	<g>
		<g>
			<defs>
				<path id="SVGID_1_" d="M180,360C80.589,360,0,279.41,0,180C0,80.589,80.589,0,180,0c99.41,0,180,80.589,180,180
					C360,279.41,279.41,360,180,360z"/>
			</defs>
			<clipPath id="SVGID_2_">
				<use xlink:href="#SVGID_1_"  overflow="visible"/>
			</clipPath>
			<g clip-path="url(#SVGID_2_)">
				
					<line fill="none" stroke="#BDC3C7" stroke-width="10" stroke-linecap="round" stroke-miterlimit="10" x1="6.5" y1="103.5" x2="118.838" y2="-8.838"/>
				
					<line fill="none" stroke="#BDC3C7" stroke-width="10" stroke-linecap="round" stroke-miterlimit="10" x1="77.5" y1="86.5" x2="112.669" y2="51.331"/>
				
					<line fill="none" stroke="#94A4A5" stroke-width="8" stroke-linecap="round" stroke-miterlimit="10" x1="-37.5" y1="259.5" x2="74.838" y2="147.162"/>
				
					<line fill="none" stroke="#EFC319" stroke-width="8" stroke-linecap="round" stroke-miterlimit="10" x1="9.5" y1="240.5" x2="49.838" y2="200.162"/>
				
					<line fill="none" stroke="#EFC319" stroke-width="8" stroke-linecap="round" stroke-miterlimit="10" x1="-49.5" y1="213.5" x2="62.838" y2="101.162"/>
				
					<line fill="none" stroke="#ECF0F1" stroke-width="10" stroke-linecap="round" stroke-miterlimit="10" x1="-1.5" y1="139.5" x2="110.838" y2="27.162"/>
				
					<line fill="none" stroke="#F19B1F" stroke-width="8" stroke-linecap="round" stroke-miterlimit="10" x1="18.5" y1="173.5" x2="100.838" y2="91.162"/>
				
					<line fill="none" stroke="#F19B1F" stroke-width="8" stroke-linecap="round" stroke-miterlimit="10" x1="-9.5" y1="287.5" x2="102.838" y2="175.162"/>
				
					<line fill="none" stroke="#EFC319" stroke-width="8" stroke-linecap="round" stroke-miterlimit="10" x1="64.5" y1="242.5" x2="93.084" y2="213.916"/>
				
					<line fill="none" stroke="#BCC2C6" stroke-width="8" stroke-linecap="round" stroke-miterlimit="10" x1="20.5" y1="285.5" x2="49.084" y2="256.916"/>
				
					<line fill="none" stroke="#ECF0F1" stroke-width="10" stroke-linecap="round" stroke-miterlimit="10" x1="-25.5" y1="215.5" x2="3.084" y2="186.916"/>
				
					<line fill="none" stroke="#EFC319" stroke-width="8" stroke-linecap="round" stroke-miterlimit="10" x1="31" y1="304" x2="88.084" y2="246.916"/>
				
					<line fill="none" stroke="#EFC319" stroke-width="8" stroke-linecap="round" stroke-miterlimit="10" x1="56" y1="308" x2="113.084" y2="250.916"/>
				
					<line fill="none" stroke="#ECF0F1" stroke-width="10" stroke-linecap="round" stroke-miterlimit="10" x1="60" y1="333" x2="117.084" y2="275.916"/>
				
					<line fill="none" stroke="#EFC319" stroke-width="8" stroke-linecap="round" stroke-miterlimit="10" x1="96" y1="323" x2="153.084" y2="265.916"/>
				
					<line fill="none" stroke="#BDC3C7" stroke-width="10" stroke-linecap="round" stroke-miterlimit="10" x1="121" y1="327" x2="178.084" y2="269.916"/>
				
					<line fill="none" stroke="#ECF0F1" stroke-width="10" stroke-linecap="round" stroke-miterlimit="10" x1="125" y1="352" x2="182.084" y2="294.916"/>
				
					<line fill="none" stroke="#F19B1F" stroke-width="8" stroke-linecap="round" stroke-miterlimit="10" x1="92" y1="356.001" x2="108.838" y2="339.162"/>
				
					<line fill="none" stroke="#F19B1F" stroke-width="8" stroke-linecap="round" stroke-miterlimit="10" x1="182.084" y1="322.916" x2="203.084" y2="301.916"/>
				
					<line fill="none" stroke="#F19B1F" stroke-width="8" stroke-linecap="round" stroke-miterlimit="10" x1="167.5" y1="364.5" x2="328.669" y2="203.331"/>
				
					<line fill="none" stroke="#EFC319" stroke-width="8" stroke-linecap="round" stroke-miterlimit="10" x1="189.5" y1="368.5" x2="311.084" y2="246.916"/>
				
					<line fill="none" stroke="#BDC3C7" stroke-width="10" stroke-linecap="round" stroke-miterlimit="10" x1="96" y1="96" x2="229.002" y2="-37"/>
				
					<line fill="none" stroke="#ECF0F1" stroke-width="10" stroke-linecap="round" stroke-miterlimit="10" x1="226.5" y1="358.5" x2="277.292" y2="307.708"/>
				
					<line fill="none" stroke="#ECF0F1" stroke-width="10" stroke-linecap="round" stroke-miterlimit="10" x1="142.5" y1="362.5" x2="157" y2="348"/>
				
					<line fill="none" stroke="#BDC3C7" stroke-width="10" stroke-linecap="round" stroke-miterlimit="10" x1="291.584" y1="213.916" x2="341.75" y2="163.75"/>
				
					<line fill="none" stroke="#EFC319" stroke-width="8" stroke-linecap="round" stroke-miterlimit="10" x1="148.542" y1="71.458" x2="204.615" y2="15.385"/>
				
					<line fill="none" stroke="#EFC319" stroke-width="8" stroke-linecap="round" stroke-miterlimit="10" x1="167.787" y1="337.212" x2="170.227" y2="334.773"/>
				
					<line fill="none" stroke="#BDC3C7" stroke-width="10" stroke-linecap="round" stroke-miterlimit="10" x1="146.5" y1="208.5" x2="161" y2="194"/>
				
					<line fill="none" stroke="#ECF0F1" stroke-width="10" stroke-linecap="round" stroke-miterlimit="10" x1="322.5" y1="234.5" x2="392" y2="165"/>
				
					<line fill="none" stroke="#ECF0F1" stroke-width="10" stroke-linecap="round" stroke-miterlimit="10" x1="127" y1="38.5" x2="196.5" y2="-31"/>
				
					<line fill="none" stroke="#ECF0F1" stroke-width="10" stroke-linecap="round" stroke-miterlimit="10" x1="178" y1="71.5" x2="247.5" y2="2"/>
				
					<line fill="none" stroke="#ECF0F1" stroke-width="10" stroke-linecap="round" stroke-miterlimit="10" x1="287" y1="190.5" x2="356.5" y2="121"/>
				
					<line fill="none" stroke="#ECF0F1" stroke-width="10" stroke-linecap="round" stroke-miterlimit="10" x1="321.75" y1="128.25" x2="381" y2="69"/>
				
					<line fill="none" stroke="#BDC3C7" stroke-width="10" stroke-linecap="round" stroke-miterlimit="10" x1="299.338" y1="150.66" x2="310.11" y2="139.891"/>
				
					<line fill="none" stroke="#ECF0F1" stroke-width="10" stroke-linecap="round" stroke-miterlimit="10" x1="192" y1="86.5" x2="261.5" y2="17"/>
				
					<line fill="none" stroke="#ECF0F1" stroke-width="10" stroke-linecap="round" stroke-miterlimit="10" x1="252" y1="56.5" x2="321.5" y2="-13"/>
				
					<line fill="none" stroke="#BDC3C7" stroke-width="10" stroke-linecap="round" stroke-miterlimit="10" x1="228.584" y1="111.916" x2="278.75" y2="61.75"/>
				
					<line fill="none" stroke="#EFC319" stroke-width="8" stroke-linecap="round" stroke-miterlimit="10" x1="292" y1="293.5" x2="361.5" y2="224"/>
				
					<line fill="none" stroke="#BDC3C7" stroke-width="10" stroke-linecap="round" stroke-miterlimit="10" x1="272.584" y1="340.916" x2="322.75" y2="290.75"/>
				
					<line fill="none" stroke="#ECF0F1" stroke-width="10" stroke-linecap="round" stroke-miterlimit="10" x1="341" y1="190.5" x2="386.5" y2="145"/>
				
					<line fill="none" stroke="#F19B1F" stroke-width="8" stroke-linecap="round" stroke-miterlimit="10" x1="270" y1="100.5" x2="339.5" y2="31"/>
				
					<line fill="none" stroke="#F19B1F" stroke-width="8" stroke-linecap="round" stroke-miterlimit="10" x1="336" y1="275.5" x2="405.5" y2="206"/>
				
					<line fill="none" stroke="#ECF0F1" stroke-width="10" stroke-linecap="round" stroke-miterlimit="10" x1="270" y1="127.5" x2="339.5" y2="58"/>
				
					<line fill="none" stroke="#BDC3C7" stroke-width="10" stroke-linecap="round" stroke-miterlimit="10" x1="285.584" y1="137.916" x2="335.75" y2="87.75"/>
				
					<line fill="none" stroke="#ECF0F1" stroke-width="10" stroke-linecap="round" stroke-miterlimit="10" x1="292" y1="49.5" x2="361.5" y2="-20"/>
				
					<line fill="none" stroke="#ECF0F1" stroke-width="10" stroke-linecap="round" stroke-miterlimit="10" x1="171" y1="138.5" x2="240.5" y2="69"/>
			</g>
			<g clip-path="url(#SVGID_2_)">
				<circle fill="#FFFFFF" cx="180" cy="180" r="125"/>
			</g>
		</g>
	</g>
	<g>
		<g>
			<defs>
				<rect id="SVGID_3_" x="110.317" y="112" width="139.365" height="136"/>
			</defs>
			<clipPath id="SVGID_4_">
				<use xlink:href="#SVGID_3_"  overflow="visible"/>
			</clipPath>
			<path clip-path="url(#SVGID_4_)" fill="#2C3E50" d="M167.181,204.491c0.869-1.408,0.892-3.169,0.063-4.829l-24.126-48.252
				c-0.881-1.764-2.353-2.774-4.034-2.774s-3.151,1.011-4.032,2.774l-24.128,48.252c-0.829,1.66-0.806,3.421,0.065,4.829
				c0.869,1.408,2.435,2.217,4.29,2.217h47.61C164.746,206.708,166.309,205.899,167.181,204.491L167.181,204.491z M139.083,157.573
				c0.478,0,0.776,0.693,0.776,0.693l17.098,34.193c1.219,2.309-0.309,1.661-1.008,1.494c-4.67-1.11-10.516-1.771-16.866-1.771
				c-6.27,0-12.051,0.646-16.69,1.731c-0.763,0.178-2.539,0.856-1.177-1.464l17.074-34.146
				C138.29,158.304,138.638,157.573,139.083,157.573L139.083,157.573z M139.083,157.573"/>
			<path clip-path="url(#SVGID_4_)" fill="#2C3E50" d="M248.994,183.606l-24.125-48.252c-0.882-1.764-2.353-2.774-4.034-2.774
				s-3.151,1.011-4.034,2.774l-24.126,48.252c-0.83,1.661-0.807,3.421,0.064,4.829c0.87,1.408,2.435,2.217,4.29,2.217h47.61
				c1.857,0,3.421-0.809,4.292-2.217C249.801,187.027,249.824,185.268,248.994,183.606L248.994,183.606z M220.835,141.934
				c0.646,0,1.154,1.034,1.154,1.034l16.499,32.998c1.4,2.479-0.507,1.99-1.445,1.781c-4.556-1.019-10.152-1.62-16.208-1.62
				c-6.217,0-11.951,0.634-16.57,1.702c-0.807,0.188-2.504,0.411-0.849-2.333l16.223-32.444
				C219.639,143.052,220.166,141.934,220.835,141.934L220.835,141.934z M220.835,141.934"/>
			<path clip-path="url(#SVGID_4_)" fill="#2C3E50" d="M116.371,141.366c0.231,0,0.465-0.017,0.699-0.056l127.164-20.757
				c2.347-0.382,3.938-2.595,3.557-4.941c-0.385-2.348-2.596-3.938-4.942-3.555l-51.634,8.428c-1.322,0.332-1.537-0.99-1.728-1.56
				c-1.33-3.988-5.093-6.864-9.528-6.864c-5.548,0-10.044,4.497-10.044,10.046c0,0.703,0.262,1.791-0.879,1.997l-53.353,8.708
				c-2.347,0.383-3.938,2.596-3.555,4.941C112.473,139.866,114.3,141.366,116.371,141.366L116.371,141.366z M116.371,141.366"/>
		</g>
		<path fill="#2C3E50" d="M184.265,221.023v-78.885c0-2.378-1.929-4.306-4.306-4.306s-4.306,1.928-4.306,4.306v78.885
			c0,1.63-1.442,1.781-2.159,1.828c-24.25,1.624-44.084,12.055-50.417,20.633c-1.106,1.498-2.604,4.268,3.266,4.268h107.236
			c5.87,0,4.498-2.494,3.571-3.837c-5.964-8.64-25.993-19.372-50.589-21.054C185.801,222.808,184.265,222.85,184.265,221.023
			L184.265,221.023z M184.265,221.023"/>
	</g>
</g>
</svg>
