<?xml version="1.0" encoding="utf-8"?>
<!-- Generator: Adobe Illustrator 16.0.0, SVG Export Plug-In . SVG Version: 6.00 Build 0)  -->
<!DOCTYPE svg PUBLIC "-//W3C//DTD SVG 1.1//EN" "http://www.w3.org/Graphics/SVG/1.1/DTD/svg11.dtd">
<svg version="1.1" id="Layer_1" xmlns="http://www.w3.org/2000/svg" xmlns:xlink="http://www.w3.org/1999/xlink" x="0px" y="0px"
	 width="600px" height="600px" viewBox="0 0 600 600" enable-background="new 0 0 600 600" xml:space="preserve">
<g>
	<path fill="#2C3E50" d="M521.238,492.022c2.922,5.106,3.682,11.043,2.134,16.726c-1.548,5.674-5.208,10.417-10.315,13.34
		c-3.377,1.932-7.119,2.912-10.901,2.912c-1.942,0-3.904-0.252-5.825-0.778c-5.674-1.548-10.417-5.208-13.339-10.315L425.55,413.505
		c-8.101,2.286-16.374,3.408-24.585,3.408c-7.97,0-15.877-1.052-23.523-3.084c-32.421,24.463-70.992,37.529-111.808,37.832
		c-0.485,0.011-0.971,0.021-1.456,0.021c-0.496,0-0.981-0.01-1.467-0.021c-49.988-0.374-96.933-20.125-132.166-55.611
		c-35.274-35.517-54.701-82.652-54.701-132.711c0-50.069,19.427-97.195,54.701-132.712c35.243-35.486,82.177-55.237,132.175-55.611
		c0.961-0.021,1.942-0.021,2.903,0c98.843,0.738,180,77.596,186.472,175.722c5.531,3.762,10.689,8.162,15.352,13.167
		c4.652,5.016,8.818,10.628,12.357,16.818c12.075,21.096,15.211,45.64,8.829,69.091c-4.409,16.201-12.995,30.541-24.827,41.838
		L521.238,492.022z M508.738,504.764c0.475-1.77,0.243-3.62-0.668-5.208l-56.237-98.298c-1.891,1.274-3.823,2.508-5.815,3.651
		c-2.012,1.153-4.045,2.205-6.088,3.186l56.229,98.277c0.91,1.588,2.387,2.731,4.156,3.216c1.77,0.476,3.62,0.243,5.208-0.667
		C507.109,508.01,508.253,506.533,508.738,504.764z M474.001,345.829c1.799-6.624,2.689-13.339,2.689-20.022
		c0-13.047-3.398-25.93-10.052-37.55c-13.986-24.453-39.623-38.166-65.957-38.166c-12.763,0-25.687,3.216-37.529,10.001
		c-36.305,20.762-48.937,67.19-28.164,103.496c13.985,24.442,39.622,38.156,65.956,38.156c12.763,0,25.687-3.217,37.54-10.002
		C456.06,381.69,468.681,365.377,474.001,345.829z M436.047,242.051c-3.793-31.037-15.746-59.454-33.636-83.098
		c-11.326,7.241-24.17,13.531-38.338,18.77c5.774,19.124,9.516,39.521,11.154,60.849
		C395.574,232.605,417.074,234.102,436.047,242.051z M359.249,163.332c12.317-4.581,23.502-9.992,33.413-16.171
		c-19.689-21.753-44.831-38.449-73.228-47.985c1.244,1.173,2.478,2.376,3.69,3.64C337.759,117.955,350.157,138.777,359.249,163.332z
		 M360.422,244.366c-1.335-21.773-4.944-42.515-10.739-61.851c-24.079,7.231-50.727,11.327-77.921,11.964v61.274h71.084
		c3.934-3.256,8.191-6.209,12.772-8.829C357.196,246.015,358.804,245.165,360.422,244.366z M360.331,407.387
		c-5.926-2.933-11.56-6.513-16.777-10.72c-7.2,12.166-15.29,22.512-24.17,30.896C333.784,422.738,347.518,415.982,360.331,407.387z
		 M328.304,270.923h-56.542v61.265c13.066,0.303,25.96,1.416,38.551,3.276C307.926,312.518,314.378,289.339,328.304,270.923z
		 M332.298,385.826c-3.903-4.46-7.423-9.365-10.477-14.704c-3.661-6.392-6.442-13.046-8.414-19.812
		c-13.522-2.275-27.477-3.601-41.646-3.954v88.589C294.333,432.669,315.945,414.819,332.298,385.826z M344.849,168.125
		c-16.545-44.365-43.759-73.146-73.087-77.404v88.589C297.307,178.673,322.286,174.85,344.849,168.125z M256.592,435.956v-88.589
		c-25.556,0.637-50.535,4.459-73.086,11.184C200.051,402.927,227.265,431.709,256.592,435.956z M256.592,332.188v-61.265h-89.136
		c0.637,25.606,4.47,50.646,11.226,73.237C202.761,336.93,229.399,332.834,256.592,332.188z M256.592,255.753v-61.274
		c-27.193-0.637-53.831-4.733-77.91-11.964c-6.755,22.592-10.588,47.622-11.226,73.238H256.592z M256.592,179.31V90.721
		c-29.338,4.248-56.552,33.029-73.086,77.404C206.058,174.85,231.037,178.673,256.592,179.31z M205.218,102.815
		c1.234-1.274,2.468-2.498,3.722-3.691c-25.231,8.465-48.34,22.764-67.635,42.191c-1.911,1.921-3.762,3.883-5.572,5.875
		c9.9,6.159,21.076,11.569,33.373,16.14C178.197,138.777,190.585,117.955,205.218,102.815z M208.97,427.563
		c-1.264-1.194-2.508-2.417-3.742-3.702c-14.633-15.139-27.032-35.962-36.123-60.515c-12.308,4.58-23.473,9.98-33.373,16.14
		c1.81,1.992,3.661,3.954,5.572,5.876C160.6,404.798,183.718,419.098,208.97,427.563z M152.288,255.753
		c0.637-27.244,4.743-53.932,11.994-78.031c-14.148-5.229-26.981-11.508-38.308-18.75c-21.167,27.912-33.282,61.406-34.789,96.781
		H152.288L152.288,255.753z M164.281,348.953c-7.251-24.098-11.356-50.786-11.994-78.03H91.185
		c1.507,35.374,13.622,68.869,34.789,96.78C137.29,360.473,150.123,354.183,164.281,348.953z"/>
	<path fill="#22AD5F" d="M508.07,499.556c0.911,1.588,1.143,3.438,0.668,5.208c-0.485,1.77-1.629,3.246-3.216,4.157
		c-1.588,0.91-3.438,1.143-5.208,0.667c-1.77-0.484-3.246-1.628-4.156-3.215l-56.229-98.278c2.043-0.98,4.076-2.032,6.088-3.186
		c1.992-1.144,3.925-2.377,5.815-3.651L508.07,499.556z"/>
	<path fill="#EFC319" d="M476.69,325.807c0,6.684-0.891,13.398-2.689,20.022c-5.32,19.548-17.941,35.861-35.517,45.913
		c-11.854,6.785-24.777,10.002-37.54,10.002c-26.334,0-51.971-13.714-65.956-38.156c-20.772-36.306-8.141-82.734,28.164-103.496
		c11.843-6.786,24.767-10.001,37.529-10.001c26.334,0,51.971,13.713,65.957,38.166C473.292,299.876,476.69,312.76,476.69,325.807z
		 M466.193,343.705c4.753-17.454,2.417-35.729-6.574-51.434c-12.489-21.844-35.395-34.101-58.917-34.101
		c-11.397,0-22.946,2.882-33.535,8.94c-32.432,18.558-43.718,60.03-25.16,92.462c8.99,15.706,23.553,26.972,41.018,31.725
		c5.916,1.608,11.923,2.407,17.9,2.407c11.649,0,23.158-3.034,33.534-8.98C450.174,375.744,461.44,361.17,466.193,343.705z"/>
	<path fill="#2C3E50" d="M459.619,292.271c8.991,15.705,11.327,33.979,6.574,51.434c-4.753,17.465-16.02,32.039-31.734,41.019
		c-10.376,5.946-21.885,8.98-33.534,8.98c-5.978,0-11.984-0.799-17.9-2.407c-17.465-4.753-32.027-16.019-41.018-31.725
		c-18.558-32.432-7.271-73.904,25.16-92.462c10.589-6.058,22.138-8.94,33.535-8.94C424.225,258.17,447.13,270.428,459.619,292.271z
		 M451.56,339.721c3.682-13.551,1.871-27.729-5.106-39.916c-9.011-15.766-25.01-25.08-41.889-26.313
		c-0.565,17.738-2.599,35.233-6.006,51.889c4.631,1.274,9.202,2.65,13.682,4.146c13.532,4.53,25.991,10.032,37.206,16.373
		C450.265,343.898,450.983,341.845,451.56,339.721z M426.935,371.557c5.765-3.297,10.75-7.575,14.806-12.591
		c-10.305-5.806-21.804-10.86-34.313-15.048c-4.034-1.355-8.141-2.6-12.308-3.752c-1.426,5.43-3.003,10.74-4.732,15.908
		c-2.245,6.705-4.723,13.166-7.413,19.305c1.325,0.466,2.66,0.91,4.035,1.284C400.56,380.345,414.739,378.535,426.935,371.557z
		 M383.813,321.791c3.064-15.149,4.935-31.047,5.531-47.197c-5.016,1.123-9.951,2.994-14.643,5.684
		c-13.997,8-22.906,21.51-25.597,36.244C361.009,317.625,372.599,319.385,383.813,321.791z M375.996,351.27
		c1.598-4.783,3.064-9.688,4.389-14.704c-10.285-2.194-20.913-3.821-31.825-4.864c0.759,6.957,2.923,13.875,6.613,20.338
		c3.682,6.432,8.576,11.893,14.371,16.18C371.87,362.819,374.034,357.146,375.996,351.27z"/>
</g>
</svg>
