<?xml version="1.0" encoding="utf-8"?>
<!-- Generator: Adobe Illustrator 16.0.0, SVG Export Plug-In . SVG Version: 6.00 Build 0)  -->
<!DOCTYPE svg PUBLIC "-//W3C//DTD SVG 1.1//EN" "http://www.w3.org/Graphics/SVG/1.1/DTD/svg11.dtd">
<svg version="1.1" id="Layer_1" xmlns="http://www.w3.org/2000/svg" xmlns:xlink="http://www.w3.org/1999/xlink" x="0px" y="0px"
	 width="720px" height="720px" viewBox="0 0 720 720" enable-background="new 0 0 720 720" xml:space="preserve">
<g>
	<defs>
		<circle id="SVGID_1_" cx="360" cy="360" r="360"/>
	</defs>
	<clipPath id="SVGID_2_">
		<use xlink:href="#SVGID_1_"  overflow="visible"/>
	</clipPath>
	<g clip-path="url(#SVGID_2_)">
		
			<line fill="none" stroke="#9B59B6" stroke-width="18" stroke-linecap="round" stroke-miterlimit="10" x1="13" y1="207" x2="237.676" y2="-17.676"/>
		
			<line fill="none" stroke="#E74C3C" stroke-width="18" stroke-linecap="round" stroke-miterlimit="10" x1="155" y1="173" x2="225.338" y2="102.662"/>
		
			<line fill="none" stroke="#1ABC9C" stroke-width="18" stroke-linecap="round" stroke-miterlimit="10" x1="-75" y1="519" x2="149.676" y2="294.324"/>
		
			<line fill="none" stroke="#BDC3C7" stroke-width="18" stroke-linecap="round" stroke-miterlimit="10" x1="19" y1="481" x2="99.676" y2="400.324"/>
		
			<line fill="none" stroke="#2ECC71" stroke-width="18" stroke-linecap="round" stroke-miterlimit="10" x1="-99" y1="427" x2="125.676" y2="202.324"/>
		
			<line fill="none" stroke="#2980B9" stroke-width="18" stroke-linecap="round" stroke-miterlimit="10" x1="-3" y1="279" x2="221.676" y2="54.324"/>
		
			<line fill="none" stroke="#F1C40F" stroke-width="18" stroke-linecap="round" stroke-miterlimit="10" x1="37" y1="347" x2="201.676" y2="182.324"/>
		
			<line fill="none" stroke="#8E44AD" stroke-width="18" stroke-linecap="round" stroke-miterlimit="10" x1="-19" y1="575" x2="205.676" y2="350.324"/>
		
			<line fill="none" stroke="#E74C3C" stroke-width="18" stroke-linecap="round" stroke-miterlimit="10" x1="129" y1="485" x2="186.169" y2="427.832"/>
		
			<line fill="none" stroke="#2C3E50" stroke-width="18" stroke-linecap="round" stroke-miterlimit="10" x1="41" y1="571" x2="98.169" y2="513.832"/>
		
			<line fill="none" stroke="#E74C3C" stroke-width="18" stroke-linecap="round" stroke-miterlimit="10" x1="-51" y1="431" x2="6.169" y2="373.832"/>
		
			<line fill="none" stroke="#27AE60" stroke-width="18" stroke-linecap="round" stroke-miterlimit="10" x1="61.999" y1="608" x2="176.169" y2="493.832"/>
		
			<line fill="none" stroke="#7F8C8D" stroke-width="18" stroke-linecap="round" stroke-miterlimit="10" x1="111.999" y1="616" x2="226.169" y2="501.832"/>
		
			<line fill="none" stroke="#C0392B" stroke-width="18" stroke-linecap="round" stroke-miterlimit="10" x1="119.999" y1="666" x2="234.169" y2="551.832"/>
		
			<line fill="none" stroke="#27AE60" stroke-width="18" stroke-linecap="round" stroke-miterlimit="10" x1="191.999" y1="646" x2="306.169" y2="531.832"/>
		
			<line fill="none" stroke="#7F8C8D" stroke-width="18" stroke-linecap="round" stroke-miterlimit="10" x1="241.999" y1="654" x2="356.169" y2="539.832"/>
		
			<line fill="none" stroke="#E74C3C" stroke-width="18" stroke-linecap="round" stroke-miterlimit="10" x1="249.999" y1="704" x2="364.168" y2="589.832"/>
		
			<line fill="none" stroke="#F1C40F" stroke-width="18" stroke-linecap="round" stroke-miterlimit="10" x1="183.999" y1="712.002" x2="217.676" y2="678.324"/>
		
			<line fill="none" stroke="#2C3E50" stroke-width="18" stroke-linecap="round" stroke-miterlimit="10" x1="364.168" y1="645.832" x2="406.168" y2="603.832"/>
		
			<line fill="none" stroke="#1ABC9C" stroke-width="18" stroke-linecap="round" stroke-miterlimit="10" x1="335" y1="729" x2="657.338" y2="406.662"/>
		
			<line fill="none" stroke="#F39C12" stroke-width="18" stroke-linecap="round" stroke-miterlimit="10" x1="379" y1="737" x2="622.168" y2="493.832"/>
		
			<line fill="none" stroke="#2980B9" stroke-width="18" stroke-linecap="round" stroke-miterlimit="10" x1="191.999" y1="192.001" x2="458.004" y2="-74"/>
		
			<line fill="none" stroke="#2980B9" stroke-width="18" stroke-linecap="round" stroke-miterlimit="10" x1="453" y1="717" x2="554.584" y2="615.416"/>
		
			<line fill="none" stroke="#ECF0F1" stroke-width="18" stroke-linecap="round" stroke-miterlimit="10" x1="285" y1="725" x2="314" y2="696"/>
		
			<line fill="none" stroke="#BDC3C7" stroke-width="18" stroke-linecap="round" stroke-miterlimit="10" x1="583.168" y1="427.832" x2="683.5" y2="327.5"/>
		
			<line fill="none" stroke="#8E44AD" stroke-width="18" stroke-linecap="round" stroke-miterlimit="10" x1="297.084" y1="142.916" x2="409.23" y2="30.77"/>
		
			<line fill="none" stroke="#C0392B" stroke-width="18" stroke-linecap="round" stroke-miterlimit="10" x1="335.574" y1="674.424" x2="340.453" y2="669.547"/>
		
			<line fill="none" stroke="#BDC3C7" stroke-width="18" stroke-linecap="round" stroke-miterlimit="10" x1="293" y1="417" x2="322" y2="388"/>
		
			<line fill="none" stroke="#ECF0F1" stroke-width="18" stroke-linecap="round" stroke-miterlimit="10" x1="645" y1="469" x2="784" y2="330"/>
		
			<line fill="none" stroke="#ECF0F1" stroke-width="18" stroke-linecap="round" stroke-miterlimit="10" x1="254" y1="77" x2="393" y2="-62"/>
		
			<line fill="none" stroke="#ECF0F1" stroke-width="18" stroke-linecap="round" stroke-miterlimit="10" x1="356" y1="143" x2="495" y2="4"/>
		
			<line fill="none" stroke="#ECF0F1" stroke-width="18" stroke-linecap="round" stroke-miterlimit="10" x1="574" y1="381" x2="713" y2="242"/>
		
			<line fill="none" stroke="#ECF0F1" stroke-width="18" stroke-linecap="round" stroke-miterlimit="10" x1="643.5" y1="256.5" x2="762" y2="138"/>
		
			<line fill="none" stroke="#F1C40F" stroke-width="18" stroke-linecap="round" stroke-miterlimit="10" x1="598.676" y1="301.32" x2="620.221" y2="279.782"/>
		<linearGradient id="SVGID_3_" gradientUnits="userSpaceOnUse" x1="860" y1="360" x2="-140" y2="360.0001">
			<stop  offset="0" style="stop-color:#FFFFFF"/>
			<stop  offset="0.5364" style="stop-color:#FCFCFC;stop-opacity:0.4636"/>
			<stop  offset="0.8678" style="stop-color:#F4F4F4;stop-opacity:0.1322"/>
			<stop  offset="1" style="stop-color:#EEEEEE;stop-opacity:0"/>
		</linearGradient>
		<rect x="-140" y="-140" display="none" fill="url(#SVGID_3_)" width="1000" height="1000"/>
		<g>
			<circle fill="#FFFFFF" cx="360" cy="360" r="250"/>
			<g>
				<g>
					<path fill="#C0392B" d="M284.31,207.472l0.014,14.688l-23.472,0.021l0.067,74.448l-17.856,0.016l-0.067-74.448l-23.472,0.021
						l-0.014-14.688L284.31,207.472z"/>
					<path fill="#C0392B" d="M318.725,206.433c5.087-0.005,9.696,0.566,13.826,1.715c4.127,1.148,7.682,2.923,10.66,5.318
						c2.977,2.397,5.262,5.444,6.849,9.138c1.587,3.695,2.383,8.039,2.388,13.029c0.004,5.185-1.049,9.89-3.155,14.115
						c-2.109,4.228-5.609,7.446-10.503,9.657c1.634,2.497,3.364,5.253,5.192,8.275c1.825,3.023,3.605,6.189,5.336,9.499
						c1.73,3.312,3.39,6.621,4.977,9.933c1.587,3.31,2.958,6.454,4.112,9.428l-18.576,0.017c-2.214-5.758-4.787-11.299-7.719-16.625
						c-2.935-5.325-6.083-10.723-9.447-16.191l-9.216,0.009l0.03,32.832l-17.712,0.016l-0.08-87.84
						c1.728-0.384,3.622-0.746,5.687-1.085c2.063-0.337,4.151-0.58,6.263-0.726c2.11-0.146,4.126-0.268,6.048-0.366
						C315.604,206.484,317.285,206.434,318.725,206.433z M334.448,235.506c-0.004-4.703-1.448-8.157-4.33-10.364
						c-2.882-2.204-6.676-3.307-11.379-3.302c-0.673,0-1.489,0.026-2.448,0.074c-0.961,0.051-1.921,0.171-2.88,0.363l0.024,26.784
						l3.888-0.004c6.048-0.005,10.414-1.185,13.101-3.54C333.109,243.163,334.452,239.825,334.448,235.506z"/>
				</g>
				<g>
					<path fill="#2C3E50" d="M239.193,316.502c0.672,2.015,1.516,4.606,2.527,7.773c1.011,3.167,2.094,6.575,3.249,10.222
						c1.156,3.648,2.311,7.341,3.466,11.084c1.156,3.743,2.261,7.198,3.321,10.365c1.148-3.552,2.345-7.225,3.59-11.02
						c1.243-3.792,2.441-7.44,3.59-10.946c1.148-3.505,2.201-6.793,3.159-9.867c0.956-3.072,1.817-5.618,2.584-7.635l14.688-0.013
						c0.678,7.774,1.333,15.358,1.965,22.75c0.63,7.393,1.165,14.712,1.604,21.958c0.438,7.249,0.805,14.544,1.099,21.887
						c0.295,7.344,0.541,14.856,0.741,22.536l-16.272,0.015l0.801-69.265l-10.909,37.737l-12.96,0.012l-10.547-37.718l0.783,69.263
						l-16.272,0.016c0.282-7.296,0.585-14.88,0.916-22.753c0.328-7.871,0.681-15.697,1.059-23.473
						c0.375-7.777,0.826-15.313,1.347-22.61c0.521-7.295,1.115-14.063,1.782-20.305L239.193,316.502z"/>
					<path fill="#C0392B" d="M297.162,405.585l-0.081-89.136l54-0.049l0.014,14.688l-36.288,0.033l0.018,20.017l31.536-0.029
						l0.013,14.688l-31.536,0.029l0.023,25.056l39.456-0.036l0.013,14.688L297.162,405.585z"/>
					<path fill="#2C3E50" d="M404.949,329.743c-4.226,0.003-7.774,0.776-10.653,2.313c-2.879,1.54-5.253,3.678-7.123,6.415
						c-1.868,2.738-3.211,6.004-4.022,9.796c-0.813,3.795-1.217,7.993-1.213,12.602c0.01,10.655,1.695,18.502,5.062,23.539
						c3.364,5.037,8.31,7.553,14.839,7.547c1.056-0.001,2.207-0.05,3.456-0.147c1.247-0.096,2.398-0.241,3.456-0.436l-0.03-32.544
						l17.712-0.016l0.041,44.496c-2.112,0.771-5.398,1.639-9.862,2.601c-4.463,0.963-9.862,1.449-16.198,1.455
						c-5.569,0.005-10.584-0.976-15.05-2.938c-4.467-1.963-8.285-4.888-11.456-8.773c-3.172-3.886-5.625-8.729-7.358-14.538
						c-1.732-5.805-2.603-12.548-2.609-20.229c-0.007-7.583,0.994-14.28,3.005-20.091c2.011-5.81,4.742-10.683,8.195-14.624
						c3.452-3.938,7.528-6.895,12.232-8.867c4.7-1.971,9.739-2.961,15.117-2.966c3.455-0.003,6.552,0.26,9.288,0.783
						c2.736,0.527,5.113,1.125,7.13,1.795s3.674,1.389,4.97,2.154c1.297,0.769,2.28,1.344,2.954,1.726l-4.596,14.116
						c-2.113-1.342-4.707-2.538-7.779-3.593C411.381,330.267,408.212,329.74,404.949,329.743z"/>
					<path fill="#2C3E50" d="M483.787,405.415l-4.195-20.588l-23.76,0.021l-4.014,20.596l-18.432,0.017
						c4.207-17.572,8.465-33.582,12.772-48.036c4.307-14.451,8.471-28.159,12.49-41.122l19.296-0.018
						c4.235,13.053,8.449,26.897,12.638,41.532c4.189,14.637,8.259,30.497,12.212,47.58L483.787,405.415z M467.882,333.573
						c-0.958,3.363-1.844,6.555-2.655,9.578c-0.814,3.025-1.579,6.003-2.297,8.932c-0.717,2.929-1.388,5.882-2.008,8.856
						c-0.623,2.978-1.218,6.05-1.791,9.218l17.424-0.016c-0.579-3.168-1.158-6.238-1.737-9.215
						c-0.578-2.974-1.229-5.925-1.951-8.854c-0.723-2.927-1.494-5.902-2.313-8.927C469.734,340.124,468.843,336.935,467.882,333.573
						z"/>
				</g>
				<g>
					<path fill="#C0392B" d="M339.308,514.538c-4.042-9.883-8.442-19.743-13.204-29.58c-4.761-9.835-9.881-19.694-15.363-29.578
						l0.054,59.184l-15.984,0.015l-0.082-89.136l14.256-0.013c2.69,4.224,5.384,8.804,8.077,13.745
						c2.691,4.942,5.312,9.859,7.862,14.752c2.547,4.895,4.905,9.645,7.069,14.25c2.164,4.606,4.015,8.637,5.555,12.09l-0.05-54.863
						l15.984-0.014l0.082,89.136L339.308,514.538z"/>
					<path fill="#C0392B" d="M428.26,469.817c0.007,8.257-1.02,15.289-3.078,21.099c-2.06,5.812-4.91,10.541-8.554,14.191
						c-3.646,3.652-7.987,6.32-13.025,8.004s-10.582,2.53-16.63,2.535c-3.168,0.003-6.265-0.163-9.288-0.495
						c-3.024-0.335-6.265-0.881-9.723-1.647l-0.079-86.977c4.031-0.867,7.823-1.446,11.376-1.737
						c3.549-0.292,6.861-0.438,9.935-0.441c5.854-0.005,11.208,0.854,16.059,2.577c4.848,1.724,8.955,4.434,12.319,8.125
						c3.363,3.693,5.983,8.396,7.86,14.105C427.31,454.867,428.252,461.753,428.26,469.817z M385.663,500.096
						c0.479,0.096,1.008,0.144,1.584,0.143c0.576,0,1.103-0.001,1.584-0.001c4.032-0.004,7.415-0.774,10.149-2.313
						c2.734-1.537,4.939-3.651,6.618-6.343c1.676-2.687,2.875-5.882,3.592-9.578s1.073-7.753,1.069-12.169
						c-0.004-3.839-0.295-7.583-0.875-11.231c-0.579-3.647-1.59-6.861-3.033-9.646c-1.441-2.782-3.412-5.012-5.909-6.69
						c-2.5-1.677-5.715-2.516-9.65-2.512c-0.77,0.001-1.634,0.026-2.592,0.074c-0.961,0.051-1.825,0.171-2.592,0.363
						L385.663,500.096z"/>
					<path fill="#C0392B" d="M465.584,501.463c2.975-0.003,5.447-0.315,7.415-0.943c1.966-0.625,3.526-1.489,4.678-2.596
						c1.151-1.104,1.942-2.353,2.372-3.746c0.432-1.391,0.646-2.809,0.645-4.249c-0.001-1.822-0.532-3.454-1.588-4.894
						c-1.059-1.439-2.404-2.709-4.036-3.813c-1.635-1.101-3.458-2.106-5.474-3.019c-2.018-0.909-4.034-1.747-6.052-2.515
						c-2.689-0.955-5.474-2.058-8.354-3.304c-2.881-1.244-5.5-2.826-7.852-4.745c-2.355-1.918-4.302-4.292-5.839-7.122
						c-1.54-2.83-2.311-6.356-2.314-10.582c-0.008-8.353,2.698-14.883,8.119-19.592c5.418-4.708,12.881-7.068,22.385-7.077
						c5.472-0.005,10.247,0.617,14.33,1.859c4.08,1.245,7.514,2.635,10.3,4.166l-5.171,13.686c-2.403-1.342-5.068-2.49-7.995-3.448
						c-2.931-0.957-6.315-1.435-10.154-1.432c-9.409,0.009-14.109,3.422-14.103,10.237c0.001,1.728,0.482,3.239,1.444,4.535
						c0.96,1.295,2.185,2.445,3.675,3.451c1.488,1.008,3.17,1.896,5.043,2.66c1.872,0.768,3.721,1.486,5.546,2.155
						c2.784,1.055,5.69,2.227,8.715,3.521c3.025,1.293,5.811,3.019,8.357,5.176c2.544,2.157,4.634,4.844,6.271,8.059
						c1.634,3.216,2.455,7.27,2.46,12.166c0.007,8.352-2.701,14.812-8.118,19.375c-5.421,4.565-13.652,6.853-24.69,6.862
						c-7.394,0.007-13.299-0.779-17.714-2.359c-4.419-1.58-7.732-3.04-9.94-4.384l5.171-14.404c2.594,1.535,5.69,2.972,9.292,4.312
						C456.008,500.801,460.399,501.468,465.584,501.463z"/>
				</g>
			</g>
		</g>
	</g>
</g>
</svg>
