<?xml version="1.0" encoding="utf-8"?>
<!-- Generator: Adobe Illustrator 16.0.0, SVG Export Plug-In . SVG Version: 6.00 Build 0)  -->
<!DOCTYPE svg PUBLIC "-//W3C//DTD SVG 1.1//EN" "http://www.w3.org/Graphics/SVG/1.1/DTD/svg11.dtd">
<svg version="1.1" id="Layer_1" xmlns="http://www.w3.org/2000/svg" xmlns:xlink="http://www.w3.org/1999/xlink" x="0px" y="0px"
	 width="180px" height="180px" viewBox="0 0 180 180" enable-background="new 0 0 180 180" xml:space="preserve">
<g>
	<defs>
		<circle id="SVGID_1_" cx="90" cy="90" r="90"/>
	</defs>
	<clipPath id="SVGID_2_">
		<use xlink:href="#SVGID_1_"  overflow="visible"/>
	</clipPath>
	<g clip-path="url(#SVGID_2_)">
		
			<line fill="none" stroke="#9B59B6" stroke-width="5" stroke-linecap="round" stroke-miterlimit="10" x1="3.25" y1="51.75" x2="59.419" y2="-4.419"/>
		
			<line fill="none" stroke="#E74C3C" stroke-width="5" stroke-linecap="round" stroke-miterlimit="10" x1="38.75" y1="43.25" x2="56.334" y2="25.666"/>
		
			<line fill="none" stroke="#1ABC9C" stroke-width="5" stroke-linecap="round" stroke-miterlimit="10" x1="-18.75" y1="129.75" x2="37.419" y2="73.581"/>
		
			<line fill="none" stroke="#BDC3C7" stroke-width="5" stroke-linecap="round" stroke-miterlimit="10" x1="4.75" y1="120.25" x2="24.919" y2="100.081"/>
		
			<line fill="none" stroke="#2ECC71" stroke-width="5" stroke-linecap="round" stroke-miterlimit="10" x1="-24.75" y1="106.75" x2="31.419" y2="50.581"/>
		
			<line fill="none" stroke="#2980B9" stroke-width="5" stroke-linecap="round" stroke-miterlimit="10" x1="-0.75" y1="69.75" x2="55.419" y2="13.581"/>
		
			<line fill="none" stroke="#F1C40F" stroke-width="5" stroke-linecap="round" stroke-miterlimit="10" x1="9.25" y1="86.75" x2="50.419" y2="45.582"/>
		
			<line fill="none" stroke="#8E44AD" stroke-width="5" stroke-linecap="round" stroke-miterlimit="10" x1="-4.75" y1="143.75" x2="51.419" y2="87.582"/>
		
			<line fill="none" stroke="#E74C3C" stroke-width="5" stroke-linecap="round" stroke-miterlimit="10" x1="32.25" y1="121.25" x2="46.542" y2="106.958"/>
		
			<line fill="none" stroke="#2C3E50" stroke-width="5" stroke-linecap="round" stroke-miterlimit="10" x1="10.25" y1="142.75" x2="24.542" y2="128.458"/>
		
			<line fill="none" stroke="#E74C3C" stroke-width="5" stroke-linecap="round" stroke-miterlimit="10" x1="-12.75" y1="107.75" x2="1.542" y2="93.458"/>
		
			<line fill="none" stroke="#27AE60" stroke-width="5" stroke-linecap="round" stroke-miterlimit="10" x1="15.5" y1="152" x2="44.042" y2="123.458"/>
		
			<line fill="none" stroke="#7F8C8D" stroke-width="5" stroke-linecap="round" stroke-miterlimit="10" x1="28" y1="154" x2="56.542" y2="125.458"/>
		
			<line fill="none" stroke="#C0392B" stroke-width="5" stroke-linecap="round" stroke-miterlimit="10" x1="30" y1="166.5" x2="58.542" y2="137.958"/>
		
			<line fill="none" stroke="#27AE60" stroke-width="5" stroke-linecap="round" stroke-miterlimit="10" x1="48" y1="161.5" x2="76.542" y2="132.958"/>
		
			<line fill="none" stroke="#7F8C8D" stroke-width="5" stroke-linecap="round" stroke-miterlimit="10" x1="60.5" y1="163.5" x2="89.042" y2="134.958"/>
		
			<line fill="none" stroke="#E74C3C" stroke-width="5" stroke-linecap="round" stroke-miterlimit="10" x1="62.5" y1="176" x2="91.042" y2="147.458"/>
		
			<line fill="none" stroke="#F1C40F" stroke-width="5" stroke-linecap="round" stroke-miterlimit="10" x1="46" y1="178" x2="54.419" y2="169.581"/>
		
			<line fill="none" stroke="#2C3E50" stroke-width="5" stroke-linecap="round" stroke-miterlimit="10" x1="91.042" y1="161.458" x2="101.542" y2="150.958"/>
		
			<line fill="none" stroke="#1ABC9C" stroke-width="5" stroke-linecap="round" stroke-miterlimit="10" x1="83.75" y1="182.25" x2="164.334" y2="101.666"/>
		
			<line fill="none" stroke="#F39C12" stroke-width="5" stroke-linecap="round" stroke-miterlimit="10" x1="94.75" y1="184.25" x2="155.542" y2="123.458"/>
		
			<line fill="none" stroke="#2980B9" stroke-width="5" stroke-linecap="round" stroke-miterlimit="10" x1="48" y1="48" x2="114.501" y2="-18.5"/>
		
			<line fill="none" stroke="#2980B9" stroke-width="5" stroke-linecap="round" stroke-miterlimit="10" x1="113.25" y1="179.25" x2="138.646" y2="153.854"/>
		
			<line fill="none" stroke="#ECF0F1" stroke-width="5" stroke-linecap="round" stroke-miterlimit="10" x1="71.25" y1="181.25" x2="78.5" y2="174"/>
		
			<line fill="none" stroke="#BDC3C7" stroke-width="5" stroke-linecap="round" stroke-miterlimit="10" x1="145.792" y1="106.958" x2="170.875" y2="81.875"/>
		
			<line fill="none" stroke="#8E44AD" stroke-width="5" stroke-linecap="round" stroke-miterlimit="10" x1="74.271" y1="35.729" x2="102.308" y2="7.692"/>
		
			<line fill="none" stroke="#C0392B" stroke-width="5" stroke-linecap="round" stroke-miterlimit="10" x1="83.894" y1="168.606" x2="85.113" y2="167.386"/>
		
			<line fill="none" stroke="#BDC3C7" stroke-width="5" stroke-linecap="round" stroke-miterlimit="10" x1="73.25" y1="104.25" x2="80.5" y2="97"/>
		
			<line fill="none" stroke="#ECF0F1" stroke-width="5" stroke-linecap="round" stroke-miterlimit="10" x1="161.25" y1="117.25" x2="196" y2="82.5"/>
		
			<line fill="none" stroke="#ECF0F1" stroke-width="5" stroke-linecap="round" stroke-miterlimit="10" x1="63.5" y1="19.25" x2="98.25" y2="-15.5"/>
		
			<line fill="none" stroke="#ECF0F1" stroke-width="5" stroke-linecap="round" stroke-miterlimit="10" x1="89" y1="35.75" x2="123.75" y2="1"/>
		
			<line fill="none" stroke="#ECF0F1" stroke-width="5" stroke-linecap="round" stroke-miterlimit="10" x1="143.5" y1="95.25" x2="178.25" y2="60.5"/>
		
			<line fill="none" stroke="#ECF0F1" stroke-width="5" stroke-linecap="round" stroke-miterlimit="10" x1="160.875" y1="64.125" x2="190.5" y2="34.5"/>
		
			<line fill="none" stroke="#F1C40F" stroke-width="5" stroke-linecap="round" stroke-miterlimit="10" x1="149.669" y1="75.33" x2="155.055" y2="69.946"/>
	</g>
</g>
<g>
	<circle fill="#FFFFFF" cx="90" cy="90" r="62.5"/>
	<g>
		<g>
			<path fill="#C0392B" d="M71.077,51.867l0.003,3.672l-5.868,0.004l0.018,18.612l-4.464,0.004l-0.017-18.612l-5.868,0.006
				l-0.003-3.672L71.077,51.867z"/>
			<path fill="#C0392B" d="M79.681,51.608c1.271-0.001,2.424,0.141,3.457,0.428c1.031,0.287,1.92,0.731,2.666,1.33
				c0.743,0.599,1.315,1.361,1.711,2.284c0.397,0.924,0.596,2.01,0.597,3.258c0.001,1.296-0.262,2.473-0.789,3.529
				c-0.527,1.058-1.402,1.862-2.626,2.414c0.409,0.625,0.842,1.314,1.298,2.07c0.457,0.756,0.902,1.547,1.335,2.375
				c0.433,0.828,0.847,1.655,1.244,2.483s0.739,1.614,1.028,2.357l-4.645,0.004c-0.554-1.44-1.196-2.824-1.93-4.157
				c-0.733-1.33-1.521-2.681-2.362-4.047l-2.303,0.003l0.007,8.208l-4.428,0.004l-0.02-21.961c0.433-0.095,0.906-0.186,1.422-0.271
				c0.516-0.083,1.038-0.145,1.566-0.182c0.527-0.037,1.032-0.066,1.512-0.091C78.901,51.621,79.321,51.608,79.681,51.608z
				 M83.611,58.875c-0.001-1.175-0.361-2.039-1.082-2.59s-1.67-0.828-2.845-0.826c-0.168,0-0.373,0.007-0.612,0.019
				c-0.24,0.013-0.48,0.042-0.72,0.091l0.006,6.696l0.972-0.001c1.512-0.001,2.603-0.296,3.274-0.885
				C83.276,60.79,83.612,59.956,83.611,58.875z"/>
		</g>
		<g>
			<path fill="#2C3E50" d="M59.798,79.125c0.168,0.504,0.379,1.151,0.631,1.942c0.252,0.792,0.524,1.645,0.812,2.556
				c0.29,0.913,0.578,1.835,0.867,2.771s0.565,1.799,0.83,2.591c0.287-0.888,0.587-1.806,0.897-2.755
				c0.311-0.948,0.61-1.86,0.897-2.736c0.287-0.877,0.55-1.698,0.79-2.467c0.238-0.769,0.454-1.405,0.646-1.909l3.673-0.003
				c0.17,1.942,0.332,3.839,0.491,5.687c0.157,1.849,0.291,3.678,0.4,5.49c0.11,1.812,0.202,3.636,0.275,5.471
				c0.073,1.835,0.135,3.715,0.185,5.634l-4.067,0.004l0.2-17.316l-2.728,9.434l-3.24,0.003l-2.637-9.429l0.196,17.316l-4.068,0.003
				c0.07-1.824,0.146-3.719,0.229-5.688c0.082-1.967,0.17-3.924,0.264-5.868c0.094-1.944,0.207-3.828,0.337-5.651
				c0.13-1.825,0.278-3.517,0.445-5.077L59.798,79.125z"/>
			<path fill="#C0392B" d="M74.29,101.395L74.27,79.112l13.5-0.013l0.003,3.672l-9.071,0.009l0.004,5.004l7.884-0.007l0.004,3.672
				l-7.885,0.007l0.006,6.264l9.864-0.009l0.004,3.671L74.29,101.395z"/>
			<path fill="#2C3E50" d="M101.236,82.436c-1.057,0-1.943,0.193-2.663,0.577c-0.72,0.385-1.313,0.92-1.78,1.604
				c-0.468,0.684-0.804,1.501-1.006,2.449c-0.204,0.949-0.304,1.998-0.304,3.151c0.003,2.663,0.424,4.625,1.266,5.884
				c0.841,1.26,2.077,1.888,3.709,1.887c0.264,0,0.553-0.013,0.864-0.037c0.313-0.023,0.6-0.06,0.864-0.108l-0.007-8.137
				l4.428-0.003l0.011,11.124c-0.529,0.192-1.35,0.409-2.466,0.649c-1.116,0.242-2.465,0.363-4.049,0.365
				c-1.392,0.001-2.646-0.245-3.764-0.735c-1.116-0.491-2.07-1.222-2.863-2.193s-1.406-2.183-1.839-3.634s-0.65-3.138-0.653-5.058
				c-0.001-1.896,0.249-3.57,0.752-5.021c0.502-1.453,1.186-2.672,2.048-3.656c0.864-0.984,1.882-1.724,3.058-2.218
				c1.175-0.492,2.435-0.74,3.779-0.741c0.864,0,1.638,0.066,2.322,0.196c0.684,0.132,1.278,0.281,1.783,0.448
				c0.504,0.168,0.917,0.347,1.242,0.539s0.57,0.335,0.738,0.431l-1.149,3.53c-0.528-0.335-1.177-0.636-1.945-0.899
				C102.845,82.566,102.052,82.434,101.236,82.436z"/>
			<path fill="#2C3E50" d="M120.945,101.353l-1.049-5.146l-5.939,0.004l-1.003,5.149l-4.607,0.004
				c1.052-4.393,2.116-8.395,3.191-12.009c1.078-3.612,2.118-7.04,3.123-10.28l4.824-0.004c1.059,3.262,2.112,6.724,3.159,10.383
				c1.048,3.659,2.065,7.625,3.053,11.895L120.945,101.353z M116.969,83.392c-0.24,0.841-0.46,1.639-0.664,2.395
				c-0.204,0.756-0.395,1.5-0.573,2.232c-0.181,0.732-0.348,1.471-0.503,2.215c-0.156,0.744-0.305,1.512-0.448,2.304l4.356-0.004
				c-0.145-0.791-0.29-1.559-0.434-2.303s-0.307-1.482-0.488-2.213c-0.181-0.732-0.374-1.477-0.578-2.232
				C117.433,85.03,117.21,84.233,116.969,83.392z"/>
		</g>
		<g>
			<path fill="#C0392B" d="M84.826,128.634c-1.01-2.471-2.11-4.937-3.3-7.395c-1.19-2.459-2.47-4.925-3.841-7.395l0.013,14.795
				l-3.996,0.004l-0.02-22.285l3.563-0.003c0.673,1.056,1.346,2.202,2.019,3.437c0.673,1.236,1.329,2.465,1.966,3.688
				s1.227,2.411,1.767,3.563c0.542,1.151,1.004,2.159,1.389,3.022l-0.012-13.715l3.996-0.004l0.021,22.285L84.826,128.634z"/>
			<path fill="#C0392B" d="M107.064,117.454c0.002,2.064-0.254,3.822-0.769,5.273c-0.515,1.453-1.228,2.637-2.14,3.549
				c-0.911,0.913-1.996,1.579-3.255,2.001c-1.259,0.42-2.646,0.631-4.158,0.633c-0.792,0.001-1.566-0.041-2.322-0.123
				c-0.756-0.085-1.565-0.221-2.43-0.413l-0.02-21.743c1.008-0.217,1.956-0.362,2.844-0.435c0.888-0.073,1.715-0.11,2.483-0.11
				c1.464-0.001,2.802,0.212,4.015,0.645c1.212,0.431,2.238,1.107,3.08,2.03c0.841,0.923,1.497,2.099,1.965,3.527
				C106.827,113.716,107.062,115.437,107.064,117.454z M96.415,125.023c0.12,0.025,0.252,0.037,0.396,0.037
				c0.145,0,0.275-0.001,0.396-0.001c1.008,0,1.854-0.193,2.538-0.579c0.683-0.384,1.234-0.913,1.653-1.585
				c0.42-0.671,0.72-1.471,0.898-2.395c0.179-0.923,0.268-1.938,0.267-3.042c0-0.959-0.074-1.896-0.218-2.807
				c-0.145-0.913-0.397-1.715-0.758-2.411c-0.361-0.696-0.854-1.254-1.479-1.673c-0.625-0.419-1.428-0.63-2.412-0.628
				c-0.192,0-0.408,0.007-0.647,0.019c-0.24,0.012-0.457,0.042-0.648,0.091L96.415,125.023z"/>
			<path fill="#C0392B" d="M116.396,125.364c0.744,0,1.362-0.078,1.854-0.234c0.492-0.157,0.882-0.374,1.169-0.65
				c0.288-0.275,0.486-0.587,0.593-0.936c0.107-0.347,0.161-0.702,0.16-1.062c0-0.456-0.132-0.864-0.396-1.223
				c-0.265-0.36-0.601-0.678-1.009-0.954s-0.865-0.527-1.369-0.754s-1.008-0.437-1.512-0.628c-0.673-0.239-1.369-0.516-2.089-0.826
				c-0.72-0.311-1.375-0.706-1.963-1.187c-0.589-0.479-1.075-1.072-1.459-1.781c-0.385-0.706-0.577-1.588-0.578-2.646
				c-0.002-2.087,0.675-3.721,2.029-4.897c1.354-1.178,3.22-1.768,5.596-1.77c1.368-0.001,2.563,0.154,3.583,0.464
				c1.021,0.312,1.878,0.659,2.575,1.043l-1.292,3.42c-0.601-0.335-1.268-0.623-1.999-0.863c-0.733-0.239-1.578-0.357-2.538-0.357
				c-2.353,0.003-3.527,0.855-3.525,2.559c0,0.432,0.121,0.81,0.36,1.134c0.24,0.324,0.546,0.612,0.92,0.864
				c0.371,0.25,0.792,0.473,1.26,0.664c0.469,0.192,0.93,0.372,1.387,0.539c0.696,0.264,1.423,0.557,2.179,0.88
				s1.452,0.754,2.089,1.293c0.636,0.539,1.158,1.211,1.568,2.016c0.408,0.803,0.613,1.816,0.614,3.041
				c0.002,2.087-0.675,3.703-2.03,4.844c-1.354,1.141-3.413,1.712-6.172,1.715c-1.849,0.001-3.324-0.195-4.428-0.59
				c-1.104-0.396-1.934-0.76-2.485-1.096l1.293-3.601c0.648,0.384,1.422,0.743,2.323,1.078
				C114.001,125.2,115.1,125.366,116.396,125.364z"/>
		</g>
	</g>
</g>
</svg>
