<?xml version="1.0" encoding="utf-8"?>
<!-- Generator: Adobe Illustrator 16.0.0, SVG Export Plug-In . SVG Version: 6.00 Build 0)  -->
<!DOCTYPE svg PUBLIC "-//W3C//DTD SVG 1.1//EN" "http://www.w3.org/Graphics/SVG/1.1/DTD/svg11.dtd">
<svg version="1.1" id="Layer_1" xmlns="http://www.w3.org/2000/svg" xmlns:xlink="http://www.w3.org/1999/xlink" x="0px" y="0px"
	 width="400px" height="373px" viewBox="0 0 400 373" enable-background="new 0 0 400 373" xml:space="preserve">
<g>
	<path fill="#FFFEEE" d="M0,375V181h9.5C9.771,285,95.125,371,200,371s190.229-86,190.499-190H399v194H0z"/>
	<path fill="#EEEEEE" d="M399,181v193H1V181h8.002C9.544,285.857,95.017,371,200,371c104.982,0,190.456-85.143,190.997-190H399
		 M400,180h-10c0,104.936-85.066,190-190,190C95.066,370,10,284.936,10,180H0v195h400V180L400,180z"/>
</g>
<g>
	<g>
		<g>
			<defs>
				<path id="SVGID_1_" d="M200,360c-99.411,0-180-80.59-180-180C20,80.589,100.589,0,200,0c99.41,0,180,80.589,180,180
					C380,279.41,299.41,360,200,360z"/>
			</defs>
			<clipPath id="SVGID_2_">
				<use xlink:href="#SVGID_1_"  overflow="visible"/>
			</clipPath>
			<g clip-path="url(#SVGID_2_)">
				
					<line fill="none" stroke="#BDC3C7" stroke-width="10" stroke-linecap="round" stroke-miterlimit="10" x1="26.5" y1="103.5" x2="138.838" y2="-8.838"/>
				
					<line fill="none" stroke="#BDC3C7" stroke-width="10" stroke-linecap="round" stroke-miterlimit="10" x1="97.5" y1="86.5" x2="132.669" y2="51.331"/>
				
					<line fill="none" stroke="#94A4A5" stroke-width="8" stroke-linecap="round" stroke-miterlimit="10" x1="-17.5" y1="259.5" x2="94.838" y2="147.162"/>
				
					<line fill="none" stroke="#3B97D2" stroke-width="8" stroke-linecap="round" stroke-miterlimit="10" x1="29.5" y1="240.5" x2="69.838" y2="200.162"/>
				
					<line fill="none" stroke="#ECF0F1" stroke-width="10" stroke-linecap="round" stroke-miterlimit="10" x1="-29.5" y1="213.5" x2="82.838" y2="101.162"/>
				
					<line fill="none" stroke="#ECF0F1" stroke-width="10" stroke-linecap="round" stroke-miterlimit="10" x1="18.5" y1="139.5" x2="130.838" y2="27.162"/>
				
					<line fill="none" stroke="#2880B9" stroke-width="8" stroke-linecap="round" stroke-miterlimit="10" x1="38.5" y1="173.5" x2="120.838" y2="91.162"/>
				
					<line fill="none" stroke="#3B97D2" stroke-width="8" stroke-linecap="round" stroke-miterlimit="10" x1="10.5" y1="287.5" x2="122.838" y2="175.162"/>
				
					<line fill="none" stroke="#2880B9" stroke-width="8" stroke-linecap="round" stroke-miterlimit="10" x1="84.5" y1="242.5" x2="113.084" y2="213.916"/>
				
					<line fill="none" stroke="#2880B9" stroke-width="8" stroke-linecap="round" stroke-miterlimit="10" x1="40.5" y1="285.5" x2="69.084" y2="256.916"/>
				
					<line fill="none" stroke="#ECF0F1" stroke-width="10" stroke-linecap="round" stroke-miterlimit="10" x1="-5.5" y1="215.5" x2="23.084" y2="186.916"/>
				
					<line fill="none" stroke="#2880B9" stroke-width="8" stroke-linecap="round" stroke-miterlimit="10" x1="51" y1="304" x2="108.084" y2="246.916"/>
				
					<line fill="none" stroke="#3B97D2" stroke-width="8" stroke-linecap="round" stroke-miterlimit="10" x1="76" y1="308" x2="133.084" y2="250.916"/>
				
					<line fill="none" stroke="#ECF0F1" stroke-width="10" stroke-linecap="round" stroke-miterlimit="10" x1="80" y1="333" x2="137.084" y2="275.916"/>
				
					<line fill="none" stroke="#2880B9" stroke-width="8" stroke-linecap="round" stroke-miterlimit="10" x1="116" y1="323" x2="173.084" y2="265.916"/>
				
					<line fill="none" stroke="#BDC3C7" stroke-width="10" stroke-linecap="round" stroke-miterlimit="10" x1="141" y1="327" x2="198.084" y2="269.916"/>
				
					<line fill="none" stroke="#ECF0F1" stroke-width="10" stroke-linecap="round" stroke-miterlimit="10" x1="145" y1="352" x2="202.084" y2="294.916"/>
				
					<line fill="none" stroke="#2880B9" stroke-width="8" stroke-linecap="round" stroke-miterlimit="10" x1="112" y1="356.001" x2="128.838" y2="339.162"/>
				
					<line fill="none" stroke="#3B97D2" stroke-width="8" stroke-linecap="round" stroke-miterlimit="10" x1="202.084" y1="322.916" x2="223.084" y2="301.916"/>
				
					<line fill="none" stroke="#2880B9" stroke-width="8" stroke-linecap="round" stroke-miterlimit="10" x1="187.5" y1="364.5" x2="348.669" y2="203.331"/>
				
					<line fill="none" stroke="#3B97D2" stroke-width="8" stroke-linecap="round" stroke-miterlimit="10" x1="209.5" y1="368.5" x2="331.084" y2="246.916"/>
				
					<line fill="none" stroke="#3B97D2" stroke-width="8" stroke-linecap="round" stroke-miterlimit="10" x1="116" y1="96" x2="249.002" y2="-37"/>
				
					<line fill="none" stroke="#ECF0F1" stroke-width="10" stroke-linecap="round" stroke-miterlimit="10" x1="246.5" y1="358.5" x2="297.292" y2="307.708"/>
				
					<line fill="none" stroke="#ECF0F1" stroke-width="10" stroke-linecap="round" stroke-miterlimit="10" x1="162.5" y1="362.5" x2="177" y2="348"/>
				
					<line fill="none" stroke="#BDC3C7" stroke-width="10" stroke-linecap="round" stroke-miterlimit="10" x1="311.584" y1="213.916" x2="361.75" y2="163.75"/>
				
					<line fill="none" stroke="#2880B9" stroke-width="8" stroke-linecap="round" stroke-miterlimit="10" x1="168.542" y1="71.458" x2="224.615" y2="15.385"/>
				
					<line fill="none" stroke="#3B97D2" stroke-width="8" stroke-linecap="round" stroke-miterlimit="10" x1="187.787" y1="337.212" x2="190.227" y2="334.773"/>
				
					<line fill="none" stroke="#BDC3C7" stroke-width="10" stroke-linecap="round" stroke-miterlimit="10" x1="166.5" y1="208.5" x2="181" y2="194"/>
				
					<line fill="none" stroke="#ECF0F1" stroke-width="10" stroke-linecap="round" stroke-miterlimit="10" x1="342.5" y1="234.5" x2="412" y2="165"/>
				
					<line fill="none" stroke="#ECF0F1" stroke-width="10" stroke-linecap="round" stroke-miterlimit="10" x1="147" y1="38.5" x2="216.5" y2="-31"/>
				
					<line fill="none" stroke="#ECF0F1" stroke-width="10" stroke-linecap="round" stroke-miterlimit="10" x1="198" y1="71.5" x2="267.5" y2="2"/>
				
					<line fill="none" stroke="#3B97D2" stroke-width="8" stroke-linecap="round" stroke-miterlimit="10" x1="307" y1="190.5" x2="376.5" y2="121"/>
				
					<line fill="none" stroke="#ECF0F1" stroke-width="10" stroke-linecap="round" stroke-miterlimit="10" x1="341.75" y1="128.25" x2="401" y2="69"/>
				
					<line fill="none" stroke="#BDC3C7" stroke-width="10" stroke-linecap="round" stroke-miterlimit="10" x1="319.338" y1="150.66" x2="330.11" y2="139.891"/>
				
					<line fill="none" stroke="#ECF0F1" stroke-width="10" stroke-linecap="round" stroke-miterlimit="10" x1="212" y1="86.5" x2="281.5" y2="17"/>
				
					<line fill="none" stroke="#ECF0F1" stroke-width="10" stroke-linecap="round" stroke-miterlimit="10" x1="272" y1="56.5" x2="341.5" y2="-13"/>
				
					<line fill="none" stroke="#3B97D2" stroke-width="8" stroke-linecap="round" stroke-miterlimit="10" x1="248.584" y1="111.916" x2="298.75" y2="61.75"/>
				
					<line fill="none" stroke="#ECF0F1" stroke-width="10" stroke-linecap="round" stroke-miterlimit="10" x1="312" y1="293.5" x2="381.5" y2="224"/>
				
					<line fill="none" stroke="#BDC3C7" stroke-width="10" stroke-linecap="round" stroke-miterlimit="10" x1="292.584" y1="340.916" x2="342.75" y2="290.75"/>
				
					<line fill="none" stroke="#ECF0F1" stroke-width="10" stroke-linecap="round" stroke-miterlimit="10" x1="361" y1="190.5" x2="406.5" y2="145"/>
				
					<line fill="none" stroke="#3B97D2" stroke-width="8" stroke-linecap="round" stroke-miterlimit="10" x1="290" y1="100.5" x2="359.5" y2="31"/>
				
					<line fill="none" stroke="#3B97D2" stroke-width="8" stroke-linecap="round" stroke-miterlimit="10" x1="356" y1="275.5" x2="425.5" y2="206"/>
				
					<line fill="none" stroke="#ECF0F1" stroke-width="10" stroke-linecap="round" stroke-miterlimit="10" x1="290" y1="127.5" x2="359.5" y2="58"/>
				
					<line fill="none" stroke="#BDC3C7" stroke-width="10" stroke-linecap="round" stroke-miterlimit="10" x1="305.584" y1="137.916" x2="355.75" y2="87.75"/>
				
					<line fill="none" stroke="#ECF0F1" stroke-width="10" stroke-linecap="round" stroke-miterlimit="10" x1="312" y1="49.5" x2="381.5" y2="-20"/>
				
					<line fill="none" stroke="#ECF0F1" stroke-width="10" stroke-linecap="round" stroke-miterlimit="10" x1="191" y1="138.5" x2="260.5" y2="69"/>
			</g>
			<g clip-path="url(#SVGID_2_)">
				<circle fill="#FFFFFF" cx="200" cy="180" r="125"/>
			</g>
		</g>
	</g>
	<g>
		<path fill="#2C3E50" d="M238.948,144.827c4.441,0,8.134,3.003,9.26,7.092h19.771v-12.515L233.358,112H132v24.025h52.307v16.038
			c3.587,1.314,6.173,4.735,6.173,8.781c0,5.192-4.213,9.385-9.406,9.385c-5.171,0-9.385-4.192-9.385-9.385
			c0-4.297,2.92-7.884,6.861-8.989v-10.429H132v10.449h24.339l0.021,7.695c4.046,0.939,7.049,4.547,7.049,8.869
			c0,5.063-4.088,9.151-9.135,9.151s-9.134-4.088-9.134-9.151c0-3.946,2.502-7.283,6.027-8.556v-3.378H132v44.296h61.691
			l7.612-8.988c-0.814-1.376-1.314-2.982-1.314-4.713c0-5.192,4.213-9.385,9.406-9.385c5.172,0,9.385,4.192,9.385,9.385
			s-4.213,9.385-9.385,9.385c-1.418,0-2.753-0.334-3.963-0.897l-9.405,11.096l-0.334-0.292H132V248h136v-24.109h-18.958
			c-1.105,3.941-4.692,6.861-8.988,6.861c-5.193,0-9.386-4.212-9.386-9.385c0-5.193,4.192-9.406,9.386-9.406
			c4.483,0,8.216,3.15,9.155,7.362H268V157.34h-19.897c-1.229,3.9-4.837,6.758-9.154,6.758c-5.318,0-9.636-4.317-9.636-9.636
			C229.313,149.123,233.63,144.827,238.948,144.827L238.948,144.827z M238.948,144.827"/>
	</g>
</g>
</svg>
