<?xml version="1.0" encoding="utf-8"?>
<!-- Generator: Adobe Illustrator 16.0.0, SVG Export Plug-In . SVG Version: 6.00 Build 0)  -->
<!DOCTYPE svg PUBLIC "-//W3C//DTD SVG 1.1//EN" "http://www.w3.org/Graphics/SVG/1.1/DTD/svg11.dtd">
<svg version="1.1" id="Layer_1" xmlns="http://www.w3.org/2000/svg" xmlns:xlink="http://www.w3.org/1999/xlink" x="0px" y="0px"
	 width="360px" height="360px" viewBox="0 0 360 360" enable-background="new 0 0 360 360" xml:space="preserve">
<g>
	<g>
		<g>
			<g>
				<defs>
					<circle id="SVGID_1_" cx="180" cy="180" r="180"/>
				</defs>
				<clipPath id="SVGID_2_">
					<use xlink:href="#SVGID_1_"  overflow="visible"/>
				</clipPath>
				<g clip-path="url(#SVGID_2_)">
					
						<line fill="none" stroke="#BDC3C7" stroke-width="10" stroke-linecap="round" stroke-miterlimit="10" x1="6.5" y1="103.5" x2="118.838" y2="-8.838"/>
					
						<line fill="none" stroke="#BDC3C7" stroke-width="10" stroke-linecap="round" stroke-miterlimit="10" x1="77.5" y1="86.5" x2="112.669" y2="51.331"/>
					
						<line fill="none" stroke="#94A4A5" stroke-width="8" stroke-linecap="round" stroke-miterlimit="10" x1="-37.5" y1="259.5" x2="74.838" y2="147.162"/>
					
						<line fill="none" stroke="#3B97D2" stroke-width="8" stroke-linecap="round" stroke-miterlimit="10" x1="9.5" y1="240.5" x2="49.838" y2="200.162"/>
					
						<line fill="none" stroke="#ECF0F1" stroke-width="10" stroke-linecap="round" stroke-miterlimit="10" x1="-49.5" y1="213.5" x2="62.838" y2="101.162"/>
					
						<line fill="none" stroke="#ECF0F1" stroke-width="10" stroke-linecap="round" stroke-miterlimit="10" x1="-1.5" y1="139.5" x2="110.838" y2="27.162"/>
					
						<line fill="none" stroke="#2880B9" stroke-width="8" stroke-linecap="round" stroke-miterlimit="10" x1="18.5" y1="173.5" x2="100.838" y2="91.162"/>
					
						<line fill="none" stroke="#3B97D2" stroke-width="8" stroke-linecap="round" stroke-miterlimit="10" x1="-9.5" y1="287.5" x2="102.838" y2="175.162"/>
					
						<line fill="none" stroke="#2880B9" stroke-width="8" stroke-linecap="round" stroke-miterlimit="10" x1="64.5" y1="242.5" x2="93.084" y2="213.916"/>
					
						<line fill="none" stroke="#2880B9" stroke-width="8" stroke-linecap="round" stroke-miterlimit="10" x1="20.5" y1="285.5" x2="49.084" y2="256.916"/>
					
						<line fill="none" stroke="#ECF0F1" stroke-width="10" stroke-linecap="round" stroke-miterlimit="10" x1="-25.5" y1="215.5" x2="3.084" y2="186.916"/>
					
						<line fill="none" stroke="#2880B9" stroke-width="8" stroke-linecap="round" stroke-miterlimit="10" x1="31" y1="304" x2="88.084" y2="246.916"/>
					
						<line fill="none" stroke="#3B97D2" stroke-width="8" stroke-linecap="round" stroke-miterlimit="10" x1="56" y1="308" x2="113.084" y2="250.916"/>
					
						<line fill="none" stroke="#ECF0F1" stroke-width="10" stroke-linecap="round" stroke-miterlimit="10" x1="60" y1="333" x2="117.084" y2="275.916"/>
					
						<line fill="none" stroke="#2880B9" stroke-width="8" stroke-linecap="round" stroke-miterlimit="10" x1="96" y1="323" x2="153.084" y2="265.916"/>
					
						<line fill="none" stroke="#BDC3C7" stroke-width="10" stroke-linecap="round" stroke-miterlimit="10" x1="121" y1="327" x2="178.084" y2="269.916"/>
					
						<line fill="none" stroke="#ECF0F1" stroke-width="10" stroke-linecap="round" stroke-miterlimit="10" x1="125" y1="352" x2="182.084" y2="294.916"/>
					
						<line fill="none" stroke="#2880B9" stroke-width="8" stroke-linecap="round" stroke-miterlimit="10" x1="92" y1="356.001" x2="108.838" y2="339.162"/>
					
						<line fill="none" stroke="#3B97D2" stroke-width="8" stroke-linecap="round" stroke-miterlimit="10" x1="182.084" y1="322.916" x2="203.084" y2="301.916"/>
					
						<line fill="none" stroke="#2880B9" stroke-width="8" stroke-linecap="round" stroke-miterlimit="10" x1="167.5" y1="364.5" x2="328.669" y2="203.331"/>
					
						<line fill="none" stroke="#3B97D2" stroke-width="8" stroke-linecap="round" stroke-miterlimit="10" x1="189.5" y1="368.5" x2="311.084" y2="246.916"/>
					
						<line fill="none" stroke="#3B97D2" stroke-width="8" stroke-linecap="round" stroke-miterlimit="10" x1="96" y1="96" x2="229.002" y2="-37"/>
					
						<line fill="none" stroke="#ECF0F1" stroke-width="10" stroke-linecap="round" stroke-miterlimit="10" x1="226.5" y1="358.5" x2="277.292" y2="307.708"/>
					
						<line fill="none" stroke="#ECF0F1" stroke-width="10" stroke-linecap="round" stroke-miterlimit="10" x1="142.5" y1="362.5" x2="157" y2="348"/>
					
						<line fill="none" stroke="#BDC3C7" stroke-width="10" stroke-linecap="round" stroke-miterlimit="10" x1="291.584" y1="213.916" x2="341.75" y2="163.75"/>
					
						<line fill="none" stroke="#2880B9" stroke-width="8" stroke-linecap="round" stroke-miterlimit="10" x1="148.542" y1="71.458" x2="204.615" y2="15.385"/>
					
						<line fill="none" stroke="#3B97D2" stroke-width="8" stroke-linecap="round" stroke-miterlimit="10" x1="167.787" y1="337.212" x2="170.227" y2="334.773"/>
					
						<line fill="none" stroke="#BDC3C7" stroke-width="10" stroke-linecap="round" stroke-miterlimit="10" x1="146.5" y1="208.5" x2="161" y2="194"/>
					
						<line fill="none" stroke="#ECF0F1" stroke-width="10" stroke-linecap="round" stroke-miterlimit="10" x1="322.5" y1="234.5" x2="392" y2="165"/>
					
						<line fill="none" stroke="#ECF0F1" stroke-width="10" stroke-linecap="round" stroke-miterlimit="10" x1="127" y1="38.5" x2="196.5" y2="-31"/>
					
						<line fill="none" stroke="#ECF0F1" stroke-width="10" stroke-linecap="round" stroke-miterlimit="10" x1="178" y1="71.5" x2="247.5" y2="2"/>
					
						<line fill="none" stroke="#3B97D2" stroke-width="8" stroke-linecap="round" stroke-miterlimit="10" x1="287" y1="190.5" x2="356.5" y2="121"/>
					
						<line fill="none" stroke="#ECF0F1" stroke-width="10" stroke-linecap="round" stroke-miterlimit="10" x1="321.75" y1="128.25" x2="381" y2="69"/>
					
						<line fill="none" stroke="#BDC3C7" stroke-width="10" stroke-linecap="round" stroke-miterlimit="10" x1="299.338" y1="150.66" x2="310.11" y2="139.891"/>
					
						<line fill="none" stroke="#ECF0F1" stroke-width="10" stroke-linecap="round" stroke-miterlimit="10" x1="192" y1="86.5" x2="261.5" y2="17"/>
					
						<line fill="none" stroke="#ECF0F1" stroke-width="10" stroke-linecap="round" stroke-miterlimit="10" x1="252" y1="56.5" x2="321.5" y2="-13"/>
					
						<line fill="none" stroke="#3B97D2" stroke-width="8" stroke-linecap="round" stroke-miterlimit="10" x1="228.584" y1="111.916" x2="278.75" y2="61.75"/>
					
						<line fill="none" stroke="#ECF0F1" stroke-width="10" stroke-linecap="round" stroke-miterlimit="10" x1="292" y1="293.5" x2="361.5" y2="224"/>
					
						<line fill="none" stroke="#BDC3C7" stroke-width="10" stroke-linecap="round" stroke-miterlimit="10" x1="272.584" y1="340.916" x2="322.75" y2="290.75"/>
					
						<line fill="none" stroke="#ECF0F1" stroke-width="10" stroke-linecap="round" stroke-miterlimit="10" x1="341" y1="190.5" x2="386.5" y2="145"/>
					
						<line fill="none" stroke="#3B97D2" stroke-width="8" stroke-linecap="round" stroke-miterlimit="10" x1="270" y1="100.5" x2="339.5" y2="31"/>
					
						<line fill="none" stroke="#3B97D2" stroke-width="8" stroke-linecap="round" stroke-miterlimit="10" x1="336" y1="275.5" x2="405.5" y2="206"/>
					
						<line fill="none" stroke="#ECF0F1" stroke-width="10" stroke-linecap="round" stroke-miterlimit="10" x1="270" y1="127.5" x2="339.5" y2="58"/>
					
						<line fill="none" stroke="#BDC3C7" stroke-width="10" stroke-linecap="round" stroke-miterlimit="10" x1="285.584" y1="137.916" x2="335.75" y2="87.75"/>
					
						<line fill="none" stroke="#ECF0F1" stroke-width="10" stroke-linecap="round" stroke-miterlimit="10" x1="292" y1="49.5" x2="361.5" y2="-20"/>
					
						<line fill="none" stroke="#ECF0F1" stroke-width="10" stroke-linecap="round" stroke-miterlimit="10" x1="171" y1="138.5" x2="240.5" y2="69"/>
				</g>
			</g>
			<g>
				<defs>
					<circle id="SVGID_3_" cx="180" cy="180" r="180"/>
				</defs>
				<clipPath id="SVGID_4_">
					<use xlink:href="#SVGID_3_"  overflow="visible"/>
				</clipPath>
				<g clip-path="url(#SVGID_4_)">
					<circle fill="#FFFFFF" cx="180" cy="180" r="125"/>
				</g>
			</g>
		</g>
	</g>
	<g>
		<path fill="#2880B9" d="M164.52,254.279c-3.84-11.039-7.92-23.521-12.239-37.439c-4.32-13.92-8.4-27.799-12.24-41.64
			c-3.84-13.838-7.282-26.918-10.32-39.24c-3.041-12.318-5.28-22.398-6.72-30.24h31.2c0.96,7.681,2.399,16.603,4.319,26.761
			c1.92,10.162,4.039,20.64,6.36,31.439c2.317,10.8,4.8,21.441,7.44,31.92c2.64,10.48,5.238,19.883,7.8,28.2
			c2.558-8.16,5.118-17.479,7.68-27.96c2.558-10.479,4.958-21.12,7.2-31.92c2.238-10.8,4.32-21.319,6.24-31.561
			c1.92-10.237,3.518-19.199,4.8-26.88H237c-1.92,9.601-4.282,20.321-7.08,32.16c-2.802,11.843-6,24.281-9.6,37.32
			c-3.602,13.042-7.562,26.32-11.881,39.84c-4.319,13.521-8.801,26.604-13.439,39.24H164.52L164.52,254.279z"/>
	</g>
</g>
</svg>
