<?xml version="1.0" encoding="utf-8"?>
<!-- Generator: Adobe Illustrator 16.0.0, SVG Export Plug-In . SVG Version: 6.00 Build 0)  -->
<!DOCTYPE svg PUBLIC "-//W3C//DTD SVG 1.1//EN" "http://www.w3.org/Graphics/SVG/1.1/DTD/svg11.dtd">
<svg version="1.1" id="Layer_1" xmlns="http://www.w3.org/2000/svg" xmlns:xlink="http://www.w3.org/1999/xlink" x="0px" y="0px"
	 width="300px" height="1000px" viewBox="0 0 300 1000" enable-background="new 0 0 300 1000" xml:space="preserve">
<g>
	<path fill="#F7F7F7" d="M0,0v1000h300V0H0z M70,985c-30.375,0-55-24.624-55-55s24.625-55,55-55s55,24.624,55,55S100.375,985,70,985
		z M150,285c-74.559,0-135-60.442-135-135S75.441,15,150,15c74.557,0,135,60.442,135,135S224.558,285,150,285z"/>
</g>
<g>
	<path fill="#EEEEEE" d="M70,876c29.776,0,54,24.225,54,54s-24.224,54-54,54s-54-24.225-54-54S40.224,876,70,876 M70,875
		c-30.375,0-55,24.625-55,55s24.625,55,55,55c30.375,0,55-24.625,55-55S100.375,875,70,875L70,875z"/>
</g>
<g>
	<path fill="#EEEEEE" d="M150,16c35.792,0,69.442,13.938,94.752,39.248S284,114.208,284,150s-13.938,69.442-39.248,94.752
		S185.792,284,150,284c-35.792,0-69.442-13.938-94.752-39.248S16,185.792,16,150c0-35.792,13.938-69.442,39.248-94.752
		S114.208,16,150,16 M150,15C75.442,15,15,75.443,15,150c0,74.558,60.442,135,135,135c74.557,0,135-60.442,135-135
		C285,75.443,224.557,15,150,15L150,15z"/>
</g>
</svg>
